<?xml version="1.0" encoding="UTF-8"?>
<svg id="Capa_2" data-name="Capa 2" xmlns="http://www.w3.org/2000/svg" viewBox="0 0 506.53 114.13">
  <defs>
    <style>
      .cls-1 {
        fill: #d1553e;
      }

      .cls-2 {
        fill: #fff;
      }

      .cls-3 {
        fill: #e3a99e;
      }

      .cls-4 {
        fill: #485451;
      }
    </style>
  </defs>
  <g id="Capa_1-2" data-name="Capa 1">
    <g>
      <path class="cls-3" d="M106.99,0c.03.42-.26.61-.44.87l-12.28-.44v-.44h12.72Z"/>
      <path class="cls-4" d="M75.86,82.64h-12.5l-7.02-6.41-39.03,37.89H3.95l46.05-47.02c.79-.33,5.2,1.76,6.83,1.93,1.88.2,4.62-.66,5.85-.16,1.78.71,10.98,10.44,12.52,12.45.34.44.85.55.66,1.31Z"/>
      <path class="cls-4" d="M32.01,76.96v-12.9c.85-2.13,6.68-4.66,5.48-7.21-6.3-6.4-12.79-12.62-19.09-19.02C12.2,31.53,5.72,25.39,0,18.58V5.68c14.64,14.63,30.5,28.03,44.53,43.26.71,2.2-.61,4.49-.56,6.68.07,2.74,1.46,5.04,2.44,7.49l-14.4,13.84Z"/>
      <path class="cls-4" d="M83.75,37.6v12.46l-6.15,6.12c12.07,13.43,25.4,26.02,38.16,38.92v13.34l-45.98-44.48c-.38-1.38,2.43-5.59,2.54-7.84.12-2.38-1.62-5.67-.62-8.02.37-.88,8.51-8.35,9.85-9.42.64-.51,1.31-1.17,2.2-1.09Z"/>
      <path class="cls-1" d="M106.55.87c-1,1.49-2.55,2.6-3.5,4.17l-37.16,37.76c-4.25-1.57-8.75-2.68-13.14-.9-1.23.5-4.18,2.89-5.09,2.66-3.01-3.08-6.48-5.89-9.3-9.13-.81-.93-2.05-2.34-2.41-3.5h12.06c1.79,1.1,3.14,2.7,4.62,4.14,1.02,1,1.12,2.66,3.05,1.76.23-.11,3.19-2.78,3.75-3.27C71.41,23.9,81.84,10.67,94.28.44l12.28.44Z"/>
      <path class="cls-1" d="M50.75,7.1c4.56-.83,7.77,0,10.39,3.86,6.72,9.9-8.07,19.94-15.53,9.81-3.3-4.47-.4-12.66,5.14-13.67Z"/>
    </g>
    <g>
      <g>
        <path class="cls-2" d="M355.4,38.13c3.74.5,10.39,3.73,11.99,7.36,4.04,9.14-4.93,12.09-11.73,14.29l13.62,9.14h-13.88c-.89,0-11.55-8.35-13.62-8.35h-18.07v-5.74c7.74-.45,16.16.62,23.83,0,3.62-.29,12.28-1.54,10.65-6.93-.45-1.48-4.58-4.03-5.92-4.03h-32.74v25.05h-9.43v-30.79h45.31Z"/>
        <path class="cls-2" d="M431.1,38.13v5.74h-32.22c-.72,0-5.1,1.41-6.02,1.83-8.94,4.04-7.45,12.79,1.05,16.17.6.24,3.66,1.31,3.92,1.31h27.5v-5.74h-23.57v-5.74h32.48v17.22h-39.55c-.57,0-4.94-1.61-5.86-1.99-12.95-5.39-16.19-18.64-2.8-25.93,1.33-.72,5.88-2.86,7.08-2.86h37.98Z"/>
        <path class="cls-2" d="M305.37,68.92h-11.79l-7.86-8.35h-23.31c-.36-1.21,4.08-5.74,4.45-5.74h12.31l-7.6-8.34c-2.69,2.41-19.92,22.43-21.48,22.43h-11.26c.58-2.17,2.89-4.52,4.45-6.27,5.33-5.98,13.26-14.13,19.12-19.57,3.66-3.39,6.01-5.48,11.3-4.97,5.93.57,13.17,10.9,17.25,15.17,4.91,5.12,10.53,9.65,14.41,15.65Z"/>
        <path class="cls-2" d="M231.51,38.13v5.74h-33.26c-2.19,0-9.79,4.44-10.51,6.76-1.57,5.08,1.48,8.87,5.86,10.92.7.33,4.21,1.63,4.65,1.63h33.26v5.74h-35.36c-2.56,0-10.06-3.33-12.27-5-5.8-4.39-8.64-12.96-3.21-18.76,2.09-2.23,11.07-7.02,13.9-7.02h36.93Z"/>
        <path class="cls-2" d="M123.07,38.13v9.65c0,1.04,2.58,2.79,3.55,3.25,1.8.86,7.43,2.23,9.29,2.23h17.03v-15.13h8.91v15.13h7.33v5.74h-7.33v9.92h-8.91v-9.92h-23.31c-2.1,0-8.84-2.63-10.71-3.95-1.34-.95-5.27-5.26-5.27-6.75v-10.18h9.43Z"/>
      </g>
      <path class="cls-2" d="M506.53,49.61v7.83c-3.19,6.74-12.44,10.89-19.63,11.5-11.25.96-30.96,1.24-40.05-6.07-11.55-9.3.01-23.46,11.74-24.75,6.67-.73,25.78-.77,32.25.24,6.29.97,13.24,5.22,15.69,11.25ZM463.98,44.02c-17.1,1.93-15.85,17.86.88,19.18,6.53.51,21.71.81,27.16-2.21,8.77-4.86,5.55-13.71-2.78-16.33-4.49-1.41-20.16-1.22-25.26-.64Z"/>
    </g>
  </g>
</svg>