<?xml version="1.0" encoding="UTF-8" standalone="no"?>
<!DOCTYPE svg PUBLIC "-//W3C//DTD SVG 1.1//EN" "http://www.w3.org/Graphics/SVG/1.1/DTD/svg11.dtd">
<svg width="100%" height="100%" viewBox="0 0 584 292" version="1.1" xmlns="http://www.w3.org/2000/svg"
  xmlns:xlink="http://www.w3.org/1999/xlink" xml:space="preserve" xmlns:serif="http://www.serif.com/"
  style="fill-rule:evenodd;clip-rule:evenodd;stroke-linejoin:round;stroke-miterlimit:2;">
  <g transform="matrix(1,0,0,1,38.735,88.945)">
    <g id="Capa9">
      <g>
        <g>
          <g id="Capa_1-2">
            <g>
              <path d="M106.99,0C107.02,0.42 106.73,0.61 106.55,0.87L94.27,0.43L94.27,-0.01L106.99,-0.01L106.99,0Z"
                style="fill:rgb(227,169,158);fill-rule:nonzero;" />
              <path
                d="M75.86,82.64L63.36,82.64L56.34,76.23L17.31,114.12L3.95,114.12L50,67.1C50.79,66.77 55.2,68.86 56.83,69.03C58.71,69.23 61.45,68.37 62.68,68.87C64.46,69.58 73.66,79.31 75.2,81.32C75.54,81.76 76.05,81.87 75.86,82.63L75.86,82.64Z"
                style="fill:currentColor;fill-rule:nonzero;" />
              <path
                d="M32.01,76.96L32.01,64.06C32.86,61.93 38.69,59.4 37.49,56.85C31.19,50.45 24.7,44.23 18.4,37.83C12.2,31.53 5.72,25.39 0,18.58L0,5.68C14.64,20.31 30.5,33.71 44.53,48.94C45.24,51.14 43.92,53.43 43.97,55.62C44.04,58.36 45.43,60.66 46.41,63.11L32.01,76.95L32.01,76.96Z"
                style="fill:currentColor;fill-rule:nonzero;" />
              <path
                d="M83.75,37.59L83.75,50.06L77.6,56.18C89.67,69.61 103,82.2 115.76,95.1L115.76,108.44L69.78,63.96C69.4,62.58 72.21,58.37 72.32,56.12C72.44,53.74 70.7,50.45 71.7,48.1C72.07,47.22 80.21,39.75 81.55,38.68C82.19,38.17 82.86,37.51 83.75,37.59Z"
                style="fill:currentColor;fill-rule:nonzero;" />
              <path
                d="M106.55,0.87C105.55,2.36 104,3.47 103.05,5.04L65.89,42.8C61.64,41.23 57.14,40.12 52.75,41.9C51.52,42.4 48.57,44.79 47.66,44.56C44.65,41.48 41.18,38.67 38.36,35.43C37.55,34.5 36.31,33.09 35.95,31.93L48.01,31.93C49.8,33.03 51.15,34.63 52.63,36.07C53.65,37.07 53.75,38.73 55.68,37.83C55.91,37.72 58.87,35.05 59.43,34.56C71.41,23.9 81.84,10.67 94.28,0.44L106.56,0.88L106.55,0.87Z"
                style="fill:currentColor;fill-rule:nonzero;" />
              <path
                d="M50.75,7.1C55.31,6.27 58.52,7.1 61.14,10.96C67.86,20.86 53.07,30.9 45.61,20.77C42.31,16.3 45.21,8.11 50.75,7.1Z"
                style="fill:currentColor;fill-rule:nonzero;" />
            </g>
            <g>
              <g>
                <path
                  d="M355.4,38.13C359.14,38.63 365.79,41.86 367.39,45.49C371.43,54.63 362.46,57.58 355.66,59.78L369.28,68.92L355.4,68.92C354.51,68.92 343.85,60.57 341.78,60.57L323.71,60.57L323.71,54.83C331.45,54.38 339.87,55.45 347.54,54.83C351.16,54.54 359.82,53.29 358.19,47.9C357.74,46.42 353.61,43.87 352.27,43.87L319.53,43.87L319.53,68.92L310.1,68.92L310.1,38.13L355.41,38.13L355.4,38.13Z"
                  style="fill:currentColor;fill-rule:nonzero;" />
                <path
                  d="M431.1,38.13L431.1,43.87L398.88,43.87C398.16,43.87 393.78,45.28 392.86,45.7C383.92,49.74 385.41,58.49 393.91,61.87C394.51,62.11 397.57,63.18 397.83,63.18L425.33,63.18L425.33,57.44L401.76,57.44L401.76,51.7L434.24,51.7L434.24,68.92L394.69,68.92C394.12,68.92 389.75,67.31 388.83,66.93C375.88,61.54 372.64,48.29 386.03,41C387.36,40.28 391.91,38.14 393.11,38.14L431.09,38.14L431.1,38.13Z"
                  style="fill:currentColor;fill-rule:nonzero;" />
                <path
                  d="M305.37,68.92L293.58,68.92L285.72,60.57L262.41,60.57C262.05,59.36 266.49,54.83 266.86,54.83L279.17,54.83L271.57,46.49C268.88,48.9 251.65,68.92 250.09,68.92L238.83,68.92C239.41,66.75 241.72,64.4 243.28,62.65C248.61,56.67 256.54,48.52 262.4,43.08C266.06,39.69 268.41,37.6 273.7,38.11C279.63,38.68 286.87,49.01 290.95,53.28C295.86,58.4 301.48,62.93 305.36,68.93L305.37,68.92Z"
                  style="fill:currentColor;fill-rule:nonzero;" />
                <path
                  d="M231.51,38.13L231.51,43.87L198.25,43.87C196.06,43.87 188.46,48.31 187.74,50.63C186.17,55.71 189.22,59.5 193.6,61.55C194.3,61.88 197.81,63.18 198.25,63.18L231.51,63.18L231.51,68.92L196.15,68.92C193.59,68.92 186.09,65.59 183.88,63.92C178.08,59.53 175.24,50.96 180.67,45.16C182.76,42.93 191.74,38.14 194.57,38.14L231.5,38.14L231.51,38.13Z"
                  style="fill:currentColor;fill-rule:nonzero;" />
                <path
                  d="M123.07,38.13L123.07,47.78C123.07,48.82 125.65,50.57 126.62,51.03C128.42,51.89 134.05,53.26 135.91,53.26L152.94,53.26L152.94,38.13L161.85,38.13L161.85,53.26L169.18,53.26L169.18,59L161.85,59L161.85,68.92L152.94,68.92L152.94,59L129.63,59C127.53,59 120.79,56.37 118.92,55.05C117.58,54.1 113.65,49.79 113.65,48.3L113.65,38.12L123.08,38.12L123.07,38.13Z"
                  style="fill:currentColor;fill-rule:nonzero;" />
              </g>
              <path
                d="M506.53,49.61L506.53,57.44C503.34,64.18 494.09,68.33 486.9,68.94C475.65,69.9 455.94,70.18 446.85,62.87C435.3,53.57 446.86,39.41 458.59,38.12C465.26,37.39 484.37,37.35 490.84,38.36C497.13,39.33 504.08,43.58 506.53,49.61ZM463.98,44.02C446.88,45.95 448.13,61.88 464.86,63.2C471.39,63.71 486.57,64.01 492.02,60.99C500.79,56.13 497.57,47.28 489.24,44.66C484.75,43.25 469.08,43.44 463.98,44.02Z"
                style="fill:currentColor;fill-rule:nonzero;" />
            </g>
          </g>
        </g>
      </g>
    </g>
  </g>
</svg>
