<?xml version="1.0" encoding="UTF-8" standalone="no"?>
<!DOCTYPE svg PUBLIC "-//W3C//DTD SVG 1.1//EN" "http://www.w3.org/Graphics/SVG/1.1/DTD/svg11.dtd">
<svg width="100%" height="100%" viewBox="0 0 308 99" version="1.1" xmlns="http://www.w3.org/2000/svg"
  xmlns:xlink="http://www.w3.org/1999/xlink" xml:space="preserve" xmlns:serif="http://www.serif.com/"
  style="fill-rule:evenodd;clip-rule:evenodd;stroke-linejoin:round;stroke-miterlimit:2;">
  <g transform="matrix(1,0,0,1,-43.19,-29.09)">
    <path
      d="M124.57,109.83L133.33,70.47L137.76,70.36C139.23,70.36 140.69,70.27 142.14,70.19L144.39,70.08C145.13,70.04 145.88,70.02 146.64,70.02C148.268,69.987 149.895,70.134 151.49,70.46C152.543,70.708 153.573,71.042 154.57,71.46C157.59,72.647 160.109,74.842 161.7,77.67C163.33,80.603 164.161,83.914 164.11,87.27C164.117,88.86 163.953,90.446 163.62,92C163.318,93.357 162.927,94.694 162.45,96C162.062,97.075 161.611,98.127 161.1,99.15C160.761,99.839 160.381,100.507 159.96,101.15C159.68,101.56 159.2,102.15 158.53,102.99C157.757,103.908 156.896,104.749 155.96,105.5C155.103,106.239 154.175,106.892 153.19,107.45C152.225,107.972 151.222,108.42 150.19,108.79C149.252,109.098 148.288,109.322 147.31,109.46C146.31,109.61 145.31,109.71 144.43,109.77C143.55,109.83 142.75,109.86 142.1,109.85L124.57,109.85L124.57,109.83ZM136.08,106.94L139.5,106.94C139.869,106.975 140.241,106.975 140.61,106.94C141.211,106.938 141.81,106.882 142.4,106.77C143.341,106.657 144.249,106.354 145.07,105.88C145.751,105.489 146.37,105 146.91,104.43C147.364,103.95 147.757,103.416 148.08,102.84C148.37,102.3 148.61,101.84 148.78,101.48C149.45,100.048 150.012,98.567 150.46,97.05C150.987,95.323 151.463,93.533 151.89,91.68C152.317,89.827 152.65,88 152.89,86.2C153.12,84.603 153.24,82.993 153.25,81.38L153.25,79.88C153.258,79.545 153.231,79.21 153.17,78.88C153.029,77.708 152.691,76.569 152.17,75.51C151.862,74.92 151.428,74.405 150.9,74C150.446,73.609 149.928,73.298 149.37,73.08C148.868,72.89 148.349,72.749 147.82,72.66C147.383,72.594 146.942,72.557 146.5,72.55L143.7,72.55L136.08,106.94Z"
      style="fill:currentColor;fill-rule:nonzero;" />
    <path
      d="M188.33,69.35C188.92,69.35 189.51,69.35 190.12,69.41C190.72,69.448 191.318,69.522 191.91,69.63L193.21,69.85C193.956,69.993 194.691,70.186 195.41,70.43C196.342,70.745 197.251,71.126 198.13,71.57C199.689,72.395 201.096,73.481 202.29,74.78L203.01,75.59C203.242,75.857 203.45,76.145 203.63,76.45C203.919,76.927 204.18,77.421 204.41,77.93C204.94,79.03 205.372,80.174 205.7,81.35C206.124,83.033 206.316,84.765 206.27,86.5C206.314,88.617 206.086,90.731 205.59,92.79C205.231,94.191 204.78,95.568 204.24,96.91L203.62,98.36C203.41,98.858 203.17,99.342 202.9,99.81C202.55,100.4 202.19,100.98 201.81,101.54C201.411,102.123 200.977,102.68 200.51,103.21C200.27,103.51 199.91,103.94 199.42,104.49C197.784,106.253 195.842,107.706 193.69,108.78C192.49,109.331 191.241,109.769 189.96,110.09C188.976,110.342 187.972,110.509 186.96,110.59C186.1,110.65 185.51,110.67 185.2,110.67L184.01,110.67C183.42,110.67 182.76,110.56 182.01,110.45C181.164,110.323 180.325,110.146 179.5,109.92C178.592,109.667 177.708,109.333 176.86,108.92C176.469,108.726 176.089,108.513 175.72,108.28C175.34,108.04 174.98,107.79 174.63,107.53C173.58,106.833 172.651,105.968 171.88,104.97C171.331,104.222 170.83,103.441 170.38,102.63C169.797,101.417 169.312,100.16 168.93,98.87C168.403,97.014 168.157,95.089 168.2,93.16C168.2,92.71 168.2,91.99 168.28,90.99C168.358,89.8 168.522,88.617 168.77,87.45C169.087,85.961 169.522,84.5 170.07,83.08C170.702,81.435 171.521,79.868 172.51,78.41C172.789,77.967 173.093,77.539 173.42,77.13C173.75,76.72 174.1,76.32 174.48,75.91C174.993,75.284 175.555,74.698 176.16,74.16C176.737,73.593 177.352,73.065 178,72.58L178.75,72.08C178.977,71.933 179.227,71.783 179.5,71.63L180.69,71.05C181.1,70.85 181.5,70.67 181.88,70.52C182.709,70.221 183.558,69.98 184.42,69.8C185.705,69.521 187.015,69.37 188.33,69.35ZM189.63,71.58L189,71.73C188.789,71.771 188.582,71.828 188.38,71.9C187.67,72.13 187.027,72.532 186.51,73.07C185.77,73.922 185.16,74.879 184.7,75.91L184.21,77C184.05,77.34 183.91,77.69 183.77,78.06C183.63,78.43 183.44,78.95 183.3,79.39C183.166,79.825 183.009,80.252 182.83,80.67C182.66,81.26 182.49,81.84 182.34,82.4C182.19,82.96 182.02,83.53 181.85,84.13C181.54,85.32 181.25,86.49 180.99,87.64C180.73,88.79 180.46,89.94 180.19,91.09C179.88,92.61 179.59,94.09 179.33,95.6C179.07,97.11 178.85,98.6 178.68,100.11C178.58,101.11 178.53,102.11 178.53,103.11C178.419,104.608 178.989,106.078 180.08,107.11C181.167,108.021 182.553,108.498 183.97,108.45L184.62,108.45C184.96,108.432 185.297,108.368 185.62,108.26C186.223,108.122 186.789,107.856 187.28,107.48C187.732,107.14 188.141,106.747 188.5,106.31C188.805,105.941 189.066,105.538 189.28,105.11C189.47,104.72 189.6,104.44 189.67,104.25C190.34,102.54 190.93,100.79 191.43,99.02C192.1,96.68 192.76,94.02 193.43,91.02L194.05,87.68C194.26,86.57 194.45,85.45 194.62,84.34C194.83,82.93 194.98,81.56 195.09,80.22C195.09,79.77 195.16,79.32 195.19,78.86C195.22,78.4 195.24,77.94 195.24,77.5C195.251,76.962 195.224,76.424 195.16,75.89C195.108,75.326 194.941,74.778 194.67,74.28C194.357,73.571 193.819,72.984 193.14,72.61C192.743,72.403 192.336,72.216 191.92,72.05C191.488,71.921 191.047,71.828 190.6,71.77C190.275,71.675 189.939,71.622 189.6,71.61L189.63,71.58Z"
      style="fill:currentColor;fill-rule:nonzero;" />
    <path
      d="M239.54,84.22C239.82,83.22 240.02,82.22 240.16,81.46C240.31,80.531 240.38,79.591 240.37,78.65C240.403,77.803 240.288,76.957 240.03,76.15C239.84,75.613 239.57,75.107 239.23,74.65C238.72,74.047 238.107,73.54 237.42,73.15C235.36,72.22 233.002,72.191 230.92,73.07C230.273,73.409 229.671,73.829 229.13,74.32C228.392,74.948 227.761,75.691 227.26,76.52L226.33,78.22C225.992,78.87 225.688,79.538 225.42,80.22C225.23,80.74 225.06,81.22 224.93,81.61C224.653,82.346 224.419,83.097 224.23,83.86C224.043,84.62 223.843,85.39 223.63,86.17C223.49,86.69 223.36,87.17 223.24,87.76C223.12,88.35 223.01,88.83 222.9,89.35C222.9,89.46 222.79,89.83 222.67,90.46C222.55,91.09 222.42,91.85 222.28,92.74C222.14,93.63 222.02,94.58 221.92,95.61C221.82,96.64 221.77,97.48 221.76,98.42C221.778,99.485 221.892,100.546 222.1,101.59C222.281,102.643 222.639,103.657 223.16,104.59C223.309,104.956 223.519,105.294 223.78,105.59C224.039,105.868 224.317,106.128 224.61,106.37C224.75,106.48 224.96,106.64 225.26,106.84C225.621,107.075 226.015,107.253 226.43,107.37C226.919,107.557 227.436,107.662 227.96,107.68L228.96,107.68C229.63,107.652 230.297,107.588 230.96,107.49C232.049,107.321 233.096,106.951 234.05,106.4C234.665,106.061 235.225,105.629 235.71,105.12C236.749,104.162 237.6,103.019 238.22,101.75C238.789,100.601 239.241,99.399 239.57,98.16C239.84,97.136 240.03,96.093 240.14,95.04C240.23,94.11 240.29,93.45 240.32,93.04L244,95.05L244,95.86C244.012,96.113 243.985,96.366 243.92,96.61C243.764,97.763 243.496,98.899 243.12,100C242.763,101.105 242.286,102.168 241.7,103.17C241.08,104.269 240.313,105.278 239.42,106.17C238.747,106.941 237.969,107.614 237.11,108.17L235.32,109.17C234.413,109.573 233.477,109.907 232.52,110.17C231.079,110.531 229.595,110.689 228.11,110.64L226.43,110.64C225.629,110.592 224.831,110.498 224.04,110.36C223.066,110.187 222.104,109.953 221.16,109.66C220.082,109.33 219.04,108.891 218.05,108.35C217.486,108.062 216.948,107.728 216.44,107.35C215.878,106.917 215.341,106.453 214.83,105.96C214.311,105.474 213.827,104.953 213.38,104.4C213.07,103.99 212.8,103.61 212.58,103.26C212.418,103.019 212.271,102.769 212.14,102.51C211.241,100.92 210.619,99.189 210.3,97.39C210.102,96.213 209.988,95.023 209.96,93.83C209.951,92.296 210.099,90.764 210.4,89.26C210.658,87.929 211.012,86.619 211.46,85.34C211.817,84.313 212.241,83.311 212.73,82.34C213.16,81.49 213.5,80.86 213.73,80.45C214.32,79.451 214.988,78.502 215.73,77.61C216.4,76.83 216.86,76.29 217.13,76C217.4,75.71 217.46,75.66 217.6,75.53L218.07,75.11C218.874,74.337 219.741,73.631 220.66,73C221.258,72.58 221.883,72.199 222.53,71.86C223.173,71.513 223.842,71.215 224.53,70.97C225.568,70.59 226.635,70.292 227.72,70.08L229.51,69.8C230.428,69.678 231.354,69.622 232.28,69.63C232.63,69.63 233.19,69.63 233.96,69.69C234.851,69.749 235.735,69.89 236.6,70.11C237.664,70.379 238.697,70.761 239.68,71.25C240.802,71.787 241.818,72.523 242.68,73.42C243.473,74.202 244.108,75.129 244.55,76.15C244.953,77.216 245.146,78.35 245.12,79.49C245.132,80.117 245.078,80.744 244.96,81.36C244.86,81.86 244.72,82.44 244.55,83.11L239.54,84.22Z"
      style="fill:currentColor;fill-rule:nonzero;" />
    <path
      d="M277.33,84.22C277.61,83.22 277.81,82.22 277.95,81.46C278.1,80.531 278.17,79.591 278.16,78.65C278.193,77.803 278.078,76.957 277.82,76.15C277.63,75.613 277.36,75.107 277.02,74.65C276.51,74.047 275.897,73.54 275.21,73.15C273.15,72.22 270.792,72.191 268.71,73.07C268.063,73.409 267.461,73.829 266.92,74.32C266.182,74.948 265.551,75.691 265.05,76.52L264.12,78.22C263.782,78.87 263.478,79.538 263.21,80.22C263.02,80.74 262.85,81.22 262.72,81.61C262.443,82.346 262.209,83.097 262.02,83.86C261.833,84.62 261.633,85.39 261.42,86.17C261.28,86.69 261.15,87.17 261.03,87.76C260.91,88.35 260.8,88.83 260.69,89.35C260.69,89.46 260.58,89.83 260.46,90.46C260.34,91.09 260.21,91.85 260.07,92.74C259.93,93.63 259.81,94.58 259.71,95.61C259.61,96.64 259.56,97.48 259.55,98.42C259.568,99.485 259.682,100.546 259.89,101.59C260.071,102.643 260.429,103.657 260.95,104.59C261.099,104.956 261.309,105.294 261.57,105.59C261.829,105.868 262.107,106.128 262.4,106.37C262.54,106.48 262.75,106.64 263.05,106.84C263.411,107.075 263.805,107.253 264.22,107.37C264.709,107.557 265.226,107.662 265.75,107.68L266.75,107.68C267.42,107.652 268.087,107.588 268.75,107.49C269.839,107.321 270.886,106.951 271.84,106.4C272.455,106.061 273.015,105.629 273.5,105.12C274.54,104.147 275.388,102.987 276,101.7C276.569,100.551 277.021,99.349 277.35,98.11C277.62,97.086 277.81,96.043 277.92,94.99C278.01,94.06 278.07,93.4 278.1,92.99L281.78,95.05L281.78,95.86C281.792,96.113 281.765,96.366 281.7,96.61C281.544,97.763 281.276,98.899 280.9,100C280.543,101.105 280.066,102.168 279.48,103.17C278.86,104.269 278.093,105.278 277.2,106.17C276.527,106.941 275.749,107.614 274.89,108.17L273.1,109.17C272.193,109.573 271.257,109.907 270.3,110.17C268.859,110.531 267.375,110.689 265.89,110.64L264.21,110.64C263.409,110.592 262.611,110.498 261.82,110.36C260.846,110.187 259.884,109.953 258.94,109.66C257.862,109.33 256.82,108.891 255.83,108.35C255.266,108.062 254.728,107.728 254.22,107.35C253.658,106.917 253.121,106.453 252.61,105.96C252.091,105.474 251.607,104.953 251.16,104.4C250.85,103.99 250.58,103.61 250.36,103.26C250.198,103.019 250.051,102.769 249.92,102.51C249.021,100.92 248.399,99.189 248.08,97.39C247.882,96.213 247.768,95.023 247.74,93.83C247.731,92.296 247.879,90.764 248.18,89.26C248.438,87.929 248.792,86.619 249.24,85.34C249.597,84.313 250.021,83.311 250.51,82.34C250.94,81.49 251.28,80.86 251.51,80.45C252.1,79.451 252.768,78.502 253.51,77.61C254.18,76.83 254.64,76.29 254.91,76C255.18,75.71 255.24,75.66 255.38,75.53L255.85,75.11C256.658,74.337 257.527,73.631 258.45,73C259.048,72.58 259.673,72.199 260.32,71.86C260.963,71.513 261.632,71.215 262.32,70.97C263.358,70.59 264.425,70.292 265.51,70.08L267.3,69.76C268.218,69.638 269.144,69.582 270.07,69.59C270.42,69.59 270.98,69.59 271.75,69.65C272.641,69.709 273.525,69.85 274.39,70.07C275.454,70.339 276.487,70.721 277.47,71.21C278.592,71.747 279.608,72.483 280.47,73.38C281.263,74.162 281.898,75.089 282.34,76.11C282.743,77.176 282.936,78.31 282.91,79.45C282.922,80.077 282.868,80.704 282.75,81.32C282.65,81.82 282.51,82.4 282.34,83.07L277.33,84.22Z"
      style="fill:currentColor;fill-rule:nonzero;" />
    <path
      d="M314.08,83C314.22,82.66 314.41,82.22 314.65,81.66C314.913,80.964 315.035,80.223 315.01,79.48C315.029,78.802 314.931,78.125 314.72,77.48C314.556,76.968 314.332,76.478 314.05,76.02C313.829,75.653 313.56,75.316 313.25,75.02C313.02,74.801 312.777,74.597 312.52,74.41C312.25,74.17 311.96,73.95 311.67,73.74C311.229,73.438 310.752,73.193 310.25,73.01C309.995,72.912 309.735,72.828 309.47,72.76C309.12,72.67 308.73,72.58 308.28,72.51C307.59,72.4 307.07,72.33 306.73,72.31L305,72.31C304.563,72.318 304.128,72.365 303.7,72.45C303.168,72.539 302.645,72.68 302.14,72.87C301.604,73.067 301.099,73.34 300.64,73.68C300.395,73.831 300.175,74.02 299.99,74.24C299.8,74.46 299.62,74.68 299.45,74.91C298.92,75.659 298.63,76.552 298.62,77.47C298.59,77.992 298.697,78.512 298.93,78.98C299.09,79.279 299.281,79.561 299.5,79.82C300.122,80.518 300.859,81.103 301.68,81.55C302.871,82.182 304.1,82.739 305.36,83.22L308.81,84.59C309.66,84.928 310.492,85.312 311.3,85.74C311.986,86.078 312.653,86.452 313.3,86.86C313.9,87.26 314.468,87.704 315,88.19L315.7,88.86C315.912,89.069 316.109,89.293 316.29,89.53C316.744,90.111 317.136,90.738 317.46,91.4C317.66,91.81 317.84,92.22 318,92.65C318.348,93.527 318.583,94.444 318.7,95.38C318.775,95.991 318.818,96.605 318.83,97.22C318.839,97.798 318.806,98.377 318.73,98.95C318.647,99.735 318.483,100.509 318.24,101.26C317.951,102.156 317.579,103.023 317.13,103.85C316.602,104.803 315.927,105.667 315.13,106.41C314.622,106.971 314.048,107.468 313.42,107.89C312.87,108.24 312.42,108.49 312.18,108.64C311.027,109.211 309.821,109.67 308.58,110.01C306.697,110.517 304.75,110.753 302.8,110.71C302.45,110.71 301.87,110.71 301.04,110.65C300.074,110.6 299.112,110.49 298.16,110.32C296.98,110.11 295.812,109.84 294.66,109.51C293.413,109.159 292.211,108.662 291.08,108.03C290.87,107.92 290.45,107.66 289.81,107.25C289.086,106.777 288.416,106.227 287.81,105.61C287.075,104.862 286.455,104.009 285.97,103.08C285.423,102.014 285.148,100.828 285.17,99.63C285.139,98.909 285.262,98.19 285.53,97.52C285.77,97 285.98,96.59 286.15,96.29L290.76,95.29C290.648,95.694 290.562,96.105 290.5,96.52C290.39,97.181 290.34,97.85 290.35,98.52C290.333,99.362 290.427,100.203 290.63,101.02C290.754,101.532 290.918,102.034 291.12,102.52C291.213,102.718 291.317,102.912 291.43,103.1C291.589,103.344 291.762,103.578 291.95,103.8C292.23,104.13 292.49,104.43 292.75,104.69C293.169,105.072 293.629,105.407 294.12,105.69C294.996,106.191 295.916,106.61 296.87,106.94C298.354,107.442 299.914,107.679 301.48,107.64C302.6,107.671 303.718,107.539 304.8,107.25C305.52,107.035 306.197,106.697 306.8,106.25C307.22,105.87 307.611,105.459 307.97,105.02C308.48,104.309 308.728,103.443 308.67,102.57C308.651,102.158 308.608,101.747 308.54,101.34C308.441,100.721 308.201,100.133 307.84,99.62C307.28,98.801 306.51,98.148 305.61,97.73C304.61,97.25 303.33,96.64 301.67,95.89C300.34,95.3 299.17,94.75 298.17,94.25C297.282,93.802 296.417,93.308 295.58,92.77C294.9,92.333 294.252,91.848 293.64,91.32C293.081,90.841 292.559,90.319 292.08,89.76C291.98,89.65 291.73,89.35 291.35,88.87C290.959,88.372 290.623,87.832 290.35,87.26C290.17,86.942 290.023,86.607 289.91,86.26C289.728,85.751 289.581,85.229 289.47,84.7C289.4,84.4 289.32,84.04 289.24,83.61C289.142,83.086 289.098,82.553 289.11,82.02C289.118,81.582 289.151,81.144 289.21,80.71C289.29,80.119 289.41,79.534 289.57,78.96C289.769,78.271 290.03,77.602 290.35,76.96C290.73,76.261 291.183,75.604 291.7,75C291.87,74.78 292.05,74.57 292.22,74.39C292.39,74.21 292.67,73.93 293.05,73.56L293.67,73.03L294.34,72.5C294.996,72.052 295.688,71.661 296.41,71.33C297.64,70.756 298.937,70.336 300.27,70.08L301.33,69.89L302.7,69.72C303.431,69.643 304.165,69.607 304.9,69.61L306.27,69.61C306.94,69.638 307.607,69.702 308.27,69.8C309.1,69.927 309.921,70.104 310.73,70.33C311.65,70.578 312.544,70.913 313.4,71.33C313.972,71.601 314.527,71.908 315.06,72.25L316.06,72.95C316.597,73.387 317.092,73.872 317.54,74.4C317.832,74.751 318.1,75.122 318.34,75.51C318.612,75.935 318.831,76.391 318.99,76.87C319.259,77.631 319.391,78.433 319.38,79.24C319.39,79.758 319.319,80.274 319.17,80.77C319.03,81.2 318.86,81.67 318.65,82.19L314.08,83Z"
      style="fill:currentColor;fill-rule:nonzero;" />
    <path
      d="M346.89,70.3L350.31,109.82L339.58,109.82L339,99.58L327.35,99.58L322,109.83L317.6,109.83L338.39,70.31L346.89,70.3ZM338.75,95.8L337.75,79.27C337.61,79.57 337.48,79.88 337.36,80.27C337.24,80.595 337.093,80.91 336.92,81.21C336.75,81.574 336.56,81.928 336.35,82.27C336.14,82.612 335.95,82.966 335.78,83.33L334.54,85.73C333.647,87.43 332.77,89.097 331.91,90.73C331.05,92.4 330.17,94.08 329.27,95.79L338.75,95.8Z"
      style="fill:currentColor;fill-rule:nonzero;" />
    <path
      d="M104.62,98.9L68.55,98.9L54.39,127.85L43.19,127.85L91.69,29.09L105.28,29.09L122.49,127.85L109.78,127.85L104.62,98.9ZM103.24,89L95.61,43.63L73.4,89L103.24,89Z"
      style="fill:currentColor;fill-rule:nonzero;" />
    <path
      d="M93.94,98.17L79,98.17L73.12,110.17L68.43,110.17L88.57,69.17L94.21,69.17L101.36,110.17L96.08,110.17L93.94,98.17ZM93.37,94.05L90.2,75.21L81,94.05L93.37,94.05Z"
      style="fill:currentColor;fill-rule:nonzero;" />
  </g>
</svg>
