<svg width="100%" height="100%" viewBox="0 0 584 292" version="1.1" xmlns="http://www.w3.org/2000/svg"
  xmlns:xlink="http://www.w3.org/1999/xlink" xml:space="preserve" xmlns:serif="http://www.serif.com/"
  style="fill-rule:evenodd;clip-rule:evenodd;stroke-linejoin:round;stroke-miterlimit:2;">
  <g id="Capa_1-2" transform="matrix(1.42042,0,0,1.42042,61.3733,102.279)">
    <g id="Capa_2">
      <g id="Capa_1-21" serif:id="Capa_1-2">
        <path
          d="M321.4,53C323.237,53.016 324.74,54.532 324.74,56.37C324.74,58.219 323.219,59.74 321.37,59.74C319.521,59.74 318,58.219 318,56.37C318,56.363 318,56.357 318,56.35C318.005,54.51 319.52,53 321.36,53C321.373,53 321.387,53 321.4,53M321.4,59.26C321.427,59.261 321.453,59.261 321.48,59.261C323.06,59.261 324.36,57.961 324.36,56.381C324.36,54.801 323.06,53.501 321.48,53.501C319.912,53.501 318.617,54.782 318.6,56.35C318.598,56.39 318.597,56.43 318.597,56.47C318.597,58.001 319.857,59.26 321.387,59.26C321.392,59.26 321.396,59.26 321.4,59.26M320.08,54.39L321.6,54.39C322.54,54.39 322.98,54.78 322.98,55.53C322.982,55.557 322.983,55.583 322.983,55.61C322.983,56.159 322.532,56.61 321.983,56.61C321.982,56.61 321.981,56.61 321.98,56.61L323.1,58.35L322.44,58.35L321.37,56.64L320.72,56.64L320.72,58.35L320.12,58.35L320.08,54.39ZM320.68,56.15L321.34,56.15C321.87,56.15 322.34,56.15 322.34,55.51C322.34,54.87 321.89,54.9 321.47,54.9L320.65,54.9L320.68,56.15Z"
          style="fill:currentColor;fill-rule:nonzero;" />
        <path
          d="M54.65,53C56.495,53.006 58.01,54.525 58.01,56.37C58.01,58.219 56.489,59.74 54.64,59.74C52.791,59.74 51.27,58.219 51.27,56.37C51.27,56.363 51.27,56.35 51.27,56.35C51.27,54.512 52.782,53 54.62,53C54.63,53 54.64,53 54.65,53M54.65,59.26C54.687,59.261 54.723,59.262 54.76,59.262C56.34,59.262 57.64,57.962 57.64,56.382C57.64,54.802 56.34,53.502 54.76,53.502C53.192,53.502 51.897,54.782 51.88,56.35C51.878,56.39 51.877,56.43 51.877,56.47C51.877,57.994 53.126,59.25 54.65,59.26M53.35,54.39L54.87,54.39C55.87,54.39 56.24,54.78 56.24,55.53C56.242,55.557 56.243,55.583 56.243,55.61C56.243,56.159 55.792,56.61 55.243,56.61C55.242,56.61 55.241,56.61 55.24,56.61L56.38,58.35L55.72,58.35L54.6,56.67L54,56.67L54,58.38L53.4,58.38L53.35,54.39ZM53.95,56.15L54.6,56.15C55.14,56.15 55.6,56.15 55.6,55.51C55.6,54.87 55.16,54.9 54.74,54.9L54,54.9L53.95,56.15Z"
          style="fill:currentColor;fill-rule:nonzero;" />
        <path
          d="M84.82,23.12C85.025,23.12 85.209,23.248 85.28,23.44C95,52.56 95.88,54.93 96.85,57.83C96.902,57.981 96.879,58.148 96.79,58.28C96.692,58.401 96.546,58.474 96.39,58.48L92.58,58.48C92.378,58.479 92.197,58.35 92.13,58.16C90.64,54.16 89.92,51.58 88.48,47.73L77.16,47.73L73.61,58.15C73.544,58.343 73.364,58.475 73.16,58.48L69.39,58.48C69.237,58.474 69.094,58.401 69,58.28C68.908,58.149 68.885,57.981 68.94,57.83L80.64,23.44C80.709,23.246 80.894,23.117 81.1,23.12L84.82,23.12ZM78.59,43.37L87.23,43.37L82.94,30.17L78.59,43.37Z"
          style="fill:currentColor;fill-rule:nonzero;" />
        <path
          d="M103.58,55.38C101.462,52.901 100.342,49.719 100.44,46.46L100.44,39.7C100.36,36.455 101.486,33.293 103.6,30.83C105.631,28.555 108.55,27.267 111.6,27.3C115.17,27.24 118.634,28.534 121.29,30.92C121.469,31.082 121.495,31.357 121.35,31.55L119.51,34.07C119.422,34.182 119.292,34.255 119.15,34.27C119.004,34.276 118.863,34.213 118.77,34.1C116.932,32.105 114.311,31.008 111.6,31.1C107.6,31.1 104.6,34.28 104.6,39.7L104.6,46.46C104.6,52.46 108.01,55.16 111.8,55.18C114.67,55.18 118.19,53.3 118.2,49.18C118.195,49.133 118.195,49.087 118.2,49.04L118.2,45.92C118.204,45.877 118.204,45.833 118.2,45.79L111.33,45.79C111.09,45.791 110.886,45.609 110.86,45.37L110.45,42.49C110.441,42.35 110.483,42.211 110.57,42.1C110.663,42.001 110.794,41.947 110.93,41.95L121.81,41.95C121.935,41.95 122.057,41.996 122.15,42.08C122.242,42.173 122.293,42.299 122.29,42.43L122.29,49.27C122.29,54.84 117.71,58.94 111.81,58.94C108.692,58.995 105.699,57.695 103.61,55.38"
          style="fill:currentColor;fill-rule:nonzero;" />
        <path
          d="M147,58.48C146.796,58.477 146.613,58.35 146.54,58.16C145.26,54.73 144.62,52.44 143.38,49.1L133.62,49.1L130.53,58.1C130.462,58.296 130.277,58.429 130.07,58.43L126.8,58.43C126.644,58.424 126.498,58.351 126.4,58.23C126.308,58.099 126.285,57.931 126.34,57.78L136.53,27.83C136.598,27.634 136.783,27.501 136.99,27.5L140.23,27.5C140.434,27.503 140.617,27.63 140.69,27.82C149.17,53.18 149.93,55.26 150.77,57.82C150.816,57.972 150.794,58.136 150.71,58.27C150.612,58.386 150.471,58.458 150.32,58.47L147,58.48ZM134.89,45.19L142.24,45.19L138.59,34L134.89,45.19Z"
          style="fill:currentColor;fill-rule:nonzero;" />
        <path
          d="M160.59,58.48C160.379,58.478 160.194,58.334 160.14,58.13L150.78,28.13C150.728,27.981 150.754,27.815 150.85,27.69C150.942,27.575 151.082,27.508 151.23,27.51L154.59,27.51C154.802,27.506 154.991,27.646 155.05,27.85L162.83,53L170.66,27.85C170.719,27.646 170.908,27.506 171.12,27.51L174.44,27.51C174.7,27.515 174.911,27.73 174.911,27.99C174.911,28.037 174.904,28.085 174.89,28.13L165.58,58.13C165.521,58.339 165.327,58.484 165.11,58.48L160.59,58.48Z"
          style="fill:currentColor;fill-rule:nonzero;" />
        <path
          d="M180.4,58.48C180.27,58.473 180.148,58.415 180.06,58.32C179.97,58.238 179.919,58.122 179.92,58L179.92,28C179.919,27.87 179.969,27.744 180.06,27.65C180.153,27.566 180.275,27.52 180.4,27.52L197.4,27.52C197.522,27.522 197.639,27.569 197.73,27.65C197.821,27.744 197.871,27.87 197.87,28L197.87,31C197.871,31.13 197.817,31.254 197.72,31.34C197.638,31.43 197.522,31.481 197.4,31.48L184,31.48L184,41L196.2,41C196.324,41.001 196.443,41.052 196.53,41.14C196.629,41.229 196.684,41.357 196.68,41.49L196.68,44.49C196.68,44.616 196.625,44.737 196.53,44.82C196.444,44.911 196.325,44.965 196.2,44.97L184,44.97L184,54.44L197.27,54.44C197.51,54.439 197.714,54.621 197.74,54.86L198.15,57.92C198.167,58.055 198.123,58.191 198.03,58.29C197.942,58.392 197.815,58.454 197.68,58.46L180.4,58.48Z"
          style="fill:currentColor;fill-rule:nonzero;" />
        <path
          d="M235.91,58.46C235.714,58.47 235.532,58.353 235.46,58.17C233.98,54.17 233.25,51.58 231.81,47.73L220.51,47.73L216.94,58.15C216.869,58.337 216.689,58.46 216.49,58.46L212.72,58.46C212.568,58.461 212.423,58.39 212.33,58.27C212.239,58.143 212.213,57.979 212.26,57.83L224,23.44C224.069,23.246 224.254,23.117 224.46,23.12L228.18,23.12C228.383,23.118 228.565,23.248 228.63,23.44C238.36,52.56 239.24,54.93 240.21,57.83C240.254,57.984 240.225,58.15 240.13,58.28C240.034,58.396 239.89,58.462 239.74,58.46L235.91,58.46ZM221.91,43.37L230.55,43.37L226.26,30.19L221.91,43.37Z"
          style="fill:currentColor;fill-rule:nonzero;" />
        <path
          d="M244.78,58.46C244.566,58.459 244.378,58.316 244.32,58.11L243.4,54.42C243.362,54.289 243.388,54.148 243.47,54.04C247.37,48.24 254.95,37.41 259.03,31.54L245.27,31.54C245.049,31.546 244.852,31.395 244.8,31.18L244.07,28.18C244.032,28.032 244.069,27.875 244.17,27.76C244.262,27.651 244.398,27.589 244.54,27.59L263.92,27.59C264.042,27.591 264.16,27.637 264.25,27.72C264.344,27.811 264.395,27.939 264.39,28.07L264.39,31.07L264.31,31.33C261.53,35.43 253.18,47.33 248.31,54.53L263.74,54.53C263.862,54.54 263.978,54.589 264.07,54.67C264.159,54.769 264.208,54.897 264.21,55.03L264.21,58.03C264.201,58.155 264.152,58.274 264.07,58.37C263.974,58.441 263.859,58.483 263.74,58.49L244.78,58.46Z"
          style="fill:currentColor;fill-rule:nonzero;" />
        <path
          d="M272.93,55.53C270.739,53.282 269.554,50.237 269.65,47.1L269.65,28C269.66,27.741 269.871,27.53 270.13,27.52L273.25,27.52C273.253,27.52 273.257,27.52 273.26,27.52C273.523,27.52 273.74,27.737 273.74,28C273.74,28 273.74,47 273.74,47C273.74,51.61 276.4,54.74 280.81,54.77C285.05,54.77 287.62,51.58 287.65,47L287.65,28C287.649,27.87 287.699,27.744 287.79,27.65C287.887,27.565 288.011,27.519 288.14,27.52L291.26,27.52C291.385,27.522 291.506,27.568 291.6,27.65C291.686,27.747 291.736,27.871 291.74,28L291.74,47.18C291.74,54.12 286.74,58.62 280.86,58.63C277.913,58.682 275.061,57.567 272.93,55.53"
          style="fill:currentColor;fill-rule:nonzero;" />
        <path
          d="M298.85,58.48C298.721,58.471 298.599,58.414 298.51,58.32C298.426,58.235 298.379,58.12 298.38,58L298.38,28C298.375,27.871 298.422,27.745 298.51,27.65C298.604,27.568 298.725,27.522 298.85,27.52L302,27.52C302.128,27.522 302.252,27.568 302.35,27.65C302.434,27.747 302.48,27.872 302.48,28L302.48,54.59L315.84,54.59C316.103,54.591 316.319,54.807 316.319,55.07C316.319,55.1 316.316,55.13 316.31,55.16L315.8,58.07C315.762,58.301 315.564,58.474 315.33,58.48L298.85,58.48Z"
          style="fill:currentColor;fill-rule:nonzero;" />
        <path
          d="M80.82,18.32L80.46,18.32L80.46,6L84.72,6C85.88,5.996 86.994,6.465 87.8,7.3C88.652,8.34 89.096,9.656 89.05,11L89.05,13.28C89.11,14.634 88.66,15.961 87.79,17C86.984,17.827 85.875,18.293 84.72,18.29L80.82,18.32ZM82.37,16.47L84.68,16.47C86.47,16.47 86.94,15.35 87.07,13.32L87.07,11.05C86.94,9.05 86.46,7.87 84.68,7.83L82.37,7.83L82.37,16.47Z"
          style="fill:currentColor;fill-rule:nonzero;" />
        <path
          d="M95.88,18.32L95.88,6L103.21,6L103.21,7.84L97.8,7.84L97.8,11.2L102.73,11.2L102.73,13.1L97.8,13.1L97.8,16.42L103.1,16.42L103.15,16.73L103.35,18.32L95.88,18.32Z"
          style="fill:currentColor;fill-rule:nonzero;" />
        <path
          d="M113.47,18.51C112.248,18.47 111.042,18.227 109.9,17.79L109.62,17.68L109.62,17.4L109.78,16.1L109.84,15.58L110.3,15.83C111.314,16.353 112.43,16.647 113.57,16.69C114.71,16.69 115.45,16.35 115.57,15.19C115.579,15.117 115.579,15.043 115.57,14.97C115.584,14.219 115.063,13.555 114.33,13.39C113.58,13.11 112.71,12.92 111.81,12.65C110.343,12.31 109.299,10.986 109.31,9.48C109.308,9.218 109.335,8.956 109.39,8.7C109.78,6.7 111.75,5.85 113.59,5.86C114.733,5.849 115.858,6.142 116.85,6.71L117.02,6.83L117.02,7L117,8.94L116.46,8.54C115.621,7.989 114.644,7.684 113.64,7.66L113.45,7.66C112.567,7.608 111.749,8.148 111.45,8.98C111.437,9.136 111.437,9.294 111.45,9.45C111.456,10.181 111.982,10.812 112.7,10.95C113.55,11.21 114.7,11.52 115.51,11.81C116.857,12.217 117.781,13.473 117.77,14.88C117.763,15.217 117.72,15.552 117.64,15.88C117.18,17.75 115.46,18.51 113.64,18.51L113.57,18.51"
          style="fill:currentColor;fill-rule:nonzero;" />
        <path
          d="M126,18.32L126,7.75L123.08,7.75C122.987,7.759 122.896,7.726 122.83,7.66C122.759,7.592 122.72,7.498 122.72,7.4C122.72,7.302 122.72,5.97 122.72,5.97L131.21,5.97L131.21,7.75L127.92,7.75L127.92,18.32L126,18.32Z"
          style="fill:currentColor;fill-rule:nonzero;" />
        <path
          d="M138.28,6C138.377,5.989 138.473,6.031 138.53,6.11C138.601,6.174 138.641,6.265 138.64,6.36L138.64,18.36L136.7,18.36L136.7,6L138.28,6Z"
          style="fill:currentColor;fill-rule:nonzero;" />
        <path d="M145.63,18.34L145.63,6L147.57,6L147.57,16.5L153,16.5L152.67,18.37L145.63,18.34Z"
          style="fill:currentColor;fill-rule:nonzero;" />
        <path
          d="M163.31,6L167.46,18.37L165.46,18.37C165.46,18.37 164.65,15.94 164.19,14.71L160.65,14.71L159.41,18.37L157.36,18.37L161.53,6L163.31,6ZM161.22,12.85L163.59,12.85L162.42,9.21L161.22,12.85Z"
          style="fill:currentColor;fill-rule:nonzero;" />
        <path
          d="M223.67,6L227.82,18.37L225.82,18.37C225.82,18.37 224.99,15.94 224.54,14.71L221,14.71L219.77,18.37L217.77,18.37L221.89,6L223.67,6ZM221.57,12.85L224,12.85L222.82,9.21L221.57,12.85Z"
          style="fill:currentColor;fill-rule:nonzero;" />
        <path
          d="M173.48,18.32L173.48,6L177.75,6C178.915,6.01 180.025,6.499 180.82,7.35C181.658,8.379 182.105,9.673 182.08,11L182.08,13.28C182.137,14.633 181.687,15.96 180.82,17C180.019,17.829 178.913,18.295 177.76,18.29L173.48,18.29L173.48,18.32ZM175.41,16.47L177.71,16.47C179.49,16.47 179.96,15.35 180.1,13.32L180.1,11.05C179.97,9.05 179.48,7.87 177.72,7.83L175.41,7.83L175.41,16.47Z"
          style="fill:currentColor;fill-rule:nonzero;" />
        <path
          d="M188.45,13.34L188.45,11C188.45,7.82 190.45,5.81 193.08,5.83C195.71,5.85 197.8,7.83 197.8,11L197.8,13.29C197.8,16.44 195.73,18.45 193.12,18.46C190.51,18.47 188.45,16.46 188.45,13.32M193.15,16.63C194.97,16.63 195.76,15.33 195.8,13.24L195.8,11.08C195.8,9.08 194.95,7.72 193.12,7.69C191.29,7.66 190.46,9.06 190.43,11.14L190.43,13.24C190.43,15.35 191.32,16.65 193.16,16.68"
          style="fill:currentColor;fill-rule:nonzero;" />
        <path
          d="M212.41,17.93L212.41,18.31L211.95,18.31C211.787,18.355 211.619,18.379 211.45,18.38C210.718,18.37 210.038,17.995 209.64,17.38C209.228,16.712 208.861,16.017 208.54,15.3C208.08,14.3 207.54,13.46 207.03,13.5L205.88,13.5L205.88,18.3L204,18.3L204,6L208.41,6C210.388,6.027 212.001,7.661 212.001,9.64C212.001,9.663 212,9.687 212,9.71C212.029,11.298 211.029,12.735 209.53,13.26L209.59,13.34C210.3,14.43 210.66,15.46 211.21,16.34C211.307,16.489 211.473,16.579 211.65,16.58C211.726,16.577 211.8,16.56 211.87,16.53L212.33,16.37L212.33,16.85L212.41,17.93ZM208.24,11.67C209.248,11.624 210.053,10.781 210.053,9.772C210.053,9.738 210.052,9.704 210.05,9.67C210.052,9.639 210.052,9.609 210.052,9.578C210.052,8.637 209.301,7.851 208.36,7.81L205.88,7.81L205.88,11.65L208.24,11.67Z"
          style="fill:currentColor;fill-rule:nonzero;" />
        <path
          d="M61.59,30.8C61.59,30.793 61.59,30.787 61.59,30.78C61.59,13.884 47.686,-0.02 30.79,-0.02C13.894,-0.02 -0.01,13.884 -0.01,30.78C-0.01,47.676 13.894,61.58 30.79,61.58C47.677,61.575 61.574,47.687 61.59,30.8M41.29,47.8L44.7,38.11C45.21,36.67 46.298,35.506 47.7,34.9L57.08,31.34L41.29,47.8ZM39.61,48.8C39.19,50 36.26,51.74 34,52.48C36.08,49.37 38,43.12 38,43.12L36.86,35.63C36.52,33.51 37.11,32.39 38.52,30.5L50,18.07L39.61,48.8ZM4.5,31.32L13.88,34.88C15.281,35.488 16.369,36.651 16.88,38.09L20.3,47.78L4.5,31.32ZM22,48.83L11.56,18.07L23,30.49C24.41,32.39 25,33.49 24.64,35.63L23.51,43.12C23.51,43.12 25.51,49.37 27.56,52.48C25.29,51.74 22.35,50 22,48.83M30.82,53.06C29.34,53.06 28.73,52.67 27.77,50.65C27.12,49.19 26.35,47.22 26.15,46.65C25.95,46.08 24.95,43.34 24.83,42.88L30.83,8.69L30.83,8.58L30.83,8.69L36.83,42.88C36.71,43.34 35.74,46.17 35.52,46.65C35.3,47.13 34.52,49.23 33.89,50.65C32.89,52.65 32.33,53.06 30.89,53.06L30.82,53.06Z"
          style="fill:currentColor;fill-rule:nonzero;" />
      </g>
    </g>
  </g>
</svg>
