<svg class="self-start" xmlns="http://www.w3.org/2000/svg" xmlns:xlink="http://www.w3.org/1999/xlink"
  viewBox="0 0 595 465" version="1.1" xml:space="preserve"
  style="fill-rule:evenodd;clip-rule:evenodd;stroke-linejoin:round;stroke-miterlimit:2;">
  <path
    d="M47,430C46.201,430.598 45.309,431.061 44.36,431.37C45.284,431.88 46.105,432.558 46.78,433.37C47.38,433.87 48.04,434.92 48.65,435.37C48.59,434.82 49.65,434.16 50.08,433.01C51.08,432.35 51.63,431.74 52.73,431.63C51.806,431.12 50.985,430.442 50.31,429.63C49.15,429.19 49.04,428.09 48.44,427.63C47.822,428.327 47.334,429.13 47,430Z"
    style="fill:currentColor;fill-rule:nonzero;"></path>
  <rect x="48.55" y="430.62" width="93.39" height="1.79" style="fill:currentColor;"></rect>
  <path
    d="M543.86,430C543.061,430.598 542.169,431.061 541.22,431.37C542.144,431.88 542.965,432.558 543.64,433.37C544.25,433.87 544.91,434.91 545.51,435.37C545.51,434.82 545.95,434.21 546.95,433C547.95,432.34 548.49,431.74 549.59,431.63C548.666,431.12 547.845,430.442 547.17,429.63C546.256,429.312 545.556,428.563 545.3,427.63C544.682,428.327 544.194,429.13 543.86,430Z"
    style="fill:currentColor;fill-rule:nonzero;"></path>
  <rect x="452.02" y="430.62" width="93.39" height="1.79" style="fill:currentColor;"></rect>
  <path
    d="M0,335.7C0.06,335.998 0.324,336.214 0.627,336.214C0.672,336.214 0.716,336.209 0.76,336.2C5.16,338.59 7.43,343.37 8.06,349.79C8.06,372.69 7.69,383.88 7.69,406.79C7.69,413.34 5.18,420.38 0.02,427.3C21.867,417.679 44.228,409.27 67,402.11C68.26,392.05 69.14,386.64 70.39,376.57C64.99,395.32 52.28,403.75 40.08,408.16C35.17,409.8 32.78,410.93 27.24,412.69C27.62,394.95 27.11,385.89 27.49,368.15C31.39,371.3 37.3,371.42 43.49,369.53C49.49,367.01 54.68,363.36 57.83,359.46C57.7,352.29 57.7,349.02 57.57,341.85C54.57,352.92 47.26,362.23 39.96,365C35.68,366.51 31.03,366.14 27.63,362.24C20.46,355.82 17.43,340.72 18.19,331.41C26.62,327.76 31.52,326.13 40.08,323.11C52.28,318.7 65.37,318.7 70.91,333.29C69.14,324.48 68.26,320.08 67,310.52C44.218,317.667 21.85,326.073 -0,335.7Z"
    style="fill:currentColor;fill-rule:nonzero;"></path>
  <path
    d="M106.72,296.82C92.38,300.35 78.41,312.3 78.16,327.4C78.04,343.13 88.23,348.28 99.56,352.56C101.317,353.338 103.181,353.847 105.09,354.07L107.36,355.58C120.7,360.1 128.12,364.51 128.25,371.68C128.186,377.369 124.395,382.386 118.94,384C116.412,384.531 113.775,384.129 111.52,382.87C100.82,378.47 97.42,368.03 83.33,366.27C81.07,377.84 80.33,383.88 78.81,395.96C80.477,394.885 82.303,394.078 84.22,393.57C87.936,392.295 91.91,391.951 95.79,392.57C100.32,392.32 105.61,392.57 112.53,391.18C126.11,387.18 140.96,376.33 140.58,361.36C140.83,349.53 135.67,343.36 121.32,337.08C120.69,337.21 119.94,336.7 119.18,336.2C117.04,335.32 116.29,334.82 114.18,333.94C113.202,333.963 112.239,333.699 111.41,333.18C98,328.65 91.12,323.5 91,316.33C90.63,307.9 98.05,302.48 105.47,300.33C118.47,296.43 133.78,304.48 140.47,321.46C138.96,310.64 137.83,304.98 136.19,293.53C125.59,296.31 118.42,293.17 106.72,296.82Z"
    style="fill:currentColor;fill-rule:nonzero;"></path>
  <path
    d="M148.4,289.31C149.03,289.19 149.03,289.19 149.16,289.82C154.027,293.161 156.875,298.759 156.71,304.66C156.71,327.56 156.34,338.76 156.34,361.66C156.34,368.2 153.7,374.66 148.92,380.15L148.3,380.28C171.57,375.62 195.1,372.22 218.12,369.57C219.51,360.13 220.51,355.35 221.77,345.29C216.11,362.78 202.9,368.69 190.7,369.83C186.31,370.83 181.851,371.499 177.36,371.83L177,301.26C177.037,294.54 179.753,288.105 184.54,283.39C185.17,283.26 185.04,282.64 185.67,282.51C170.42,284.9 163.5,286.29 148.4,289.31Z"
    style="fill:currentColor;fill-rule:nonzero;"></path>
  <path
    d="M267.84,274.78C264.19,285.98 262.69,291.51 258.41,302.84C255.27,313.28 253.63,324.73 258.79,334.17C251.12,335.05 246.34,340.59 243.79,347.63C243.92,348.26 243.92,348.26 243.42,349.02C241.03,356.69 233.98,364.02 227.19,369.28C236.141,367.894 245.182,367.175 254.24,367.13C248.24,363.13 244.68,355.31 246.56,348.39C249.45,339.96 254.86,337.57 263.29,337.19C270.34,336.43 274.24,336.3 282.04,336.05C283.8,341.59 284.94,343.98 286.7,349.51C289.09,354.92 287.08,361.21 283.43,365.87C295.885,365.365 308.357,365.488 320.8,366.24C315.622,361.703 311.579,356.013 309,349.63C299.43,324.72 290.49,299.69 280.93,274.78C275.64,274.53 273.13,275 267.84,274.78ZM261.43,304.85C263.06,299.94 263.82,297.18 265.43,292.27C271.98,308.62 274.88,316.55 280.79,333.03C273.62,333.16 270.48,333.79 263.3,333.92C258.16,327.75 257.28,316.81 261.43,304.85Z"
    style="fill:currentColor;fill-rule:nonzero;"></path>
  <path
    d="M329.47,275.41C334.159,279.75 336.811,285.87 336.77,292.26L337.16,349.76C336.95,355.982 334.06,361.82 329.24,365.76C328.942,365.815 328.724,366.077 328.724,366.38C328.724,366.427 328.729,366.474 328.74,366.52C339.93,366.89 345.85,367.02 357.8,367.9C357.67,350.9 357.8,341.73 357.54,324.11C358.29,318.11 360.68,313.67 367.98,314.17C380.69,315.55 386.86,336.56 386.86,346.38C386.99,366.63 369.25,369.53 369.25,369.53C373.91,369.91 376.55,370.03 380.58,370.53C395.3,372.16 407.12,362.59 406.99,348.88C407.37,337.68 396.67,326.74 388.11,319.94C395.41,317.17 400.69,310.88 400.31,302.45C400.19,288.74 388.61,279.93 375.9,278.55C357.15,276.42 347.21,275.79 328.72,274.91C328.84,275.53 328.84,275.53 329.47,275.41ZM357.91,280.18C361.236,280.08 364.564,280.291 367.85,280.81C378.54,281.94 383.45,290.12 383.58,300.56C383.33,305.84 381.7,310.75 378.3,313.39C374.94,312.277 371.495,311.437 368,310.88C363.35,310.5 359.7,311.88 357.56,314.28C357.41,300.56 357.28,293.39 357.91,280.18Z"
    style="fill:currentColor;fill-rule:nonzero;"></path>
  <path
    d="M414.94,329.73C415.45,355.15 435.33,379.3 460.88,385.96C461.51,385.84 461.51,385.84 462.26,386.34C465.137,387.057 468.09,387.419 471.055,387.419C491.007,387.419 507.425,371.001 507.425,351.049C507.425,350.856 507.423,350.663 507.42,350.47C506.42,325.81 491.18,298.76 467.02,292.47C456.58,289.32 446.64,295.24 452.81,316.25C456.33,330.59 461.62,340.66 461.12,354.5C461.63,360.28 458.35,363.56 452.57,364.06C455.97,367.96 456.97,369.72 460.37,373.62C466.66,372.36 470.56,365.69 470.43,358.52C470.3,344.81 463.26,332.52 456.33,314.23C453.33,305.68 452.05,292.85 463.75,295.74C482.25,299.89 487.16,330.96 487.29,344.68C487.42,368.21 481.38,387.08 461.5,382.55C441.62,378.02 435.33,356.39 435.83,332.73C435.32,317.13 438.21,298.89 450.04,289.32C430,290.72 414.68,308.84 414.94,329.73Z"
    style="fill:currentColor;fill-rule:nonzero;"></path>
  <path
    d="M509.75,306.58C513.91,310.98 516.93,316.27 519.82,320.92C524.35,330.48 526.49,334.64 530.9,343.57C530.15,343.06 529.52,343.19 528.76,342.69C522.47,340.69 518.7,344.69 518.57,350.62C518.82,358.42 518.95,362.32 519.08,369.49C518.522,372.984 518.355,376.529 518.58,380.06C518.13,387.057 513.8,393.242 507.38,396.06C517.83,399.2 522.73,400.84 533.18,403.98C527.39,397.98 522.23,388.51 521.97,380.71C521.85,376.81 522.1,374.79 521.97,370.89L522.09,351.89C521.97,347.99 523.85,344.34 528.01,345.48C531.53,346.73 533.42,349.63 535.43,353.15C546.13,373.91 556.2,394.793 565.64,415.8C574.83,419.2 579.73,420.8 588.42,424.98C590.56,425.86 591.94,426.24 594.08,427.12C593.2,425.99 592.44,425.48 591.56,424.35C588.155,420.197 585.085,415.78 582.38,411.14L582.74,360.69C582.62,356.79 582.87,354.77 582.74,350.87C583.12,342.95 587.9,337.41 594.06,335.52C583.36,331.12 578.46,329.52 568.39,324.96C574.31,331.63 578.84,341.19 579.09,348.96C579.34,353.49 579.72,355.37 579.22,359.4L579.86,405.07L579.23,405.2C565.23,374.63 550.65,344.2 535.3,313.2C524.1,309.56 518.56,308.05 507.36,304.4C508.24,305.57 508.37,306.2 509.75,306.58Z"
    style="fill:currentColor;fill-rule:nonzero;"></path>
  <path d="M454.49,288.74L493.87,282.81L488.34,268.22L454.49,288.74Z" style="fill:currentColor;fill-rule:nonzero;">
  </path>
  <path
    d="M88.2,219.36C176.66,209.46 238.69,219.67 242.86,220.44L206.86,210.08C206.86,210.08 201.92,209.92 193.86,209.92C170.79,209.92 122.22,211 88.2,219.36Z"
    style="fill:currentColor;fill-rule:nonzero;"></path>
  <path
    d="M88.14,219.4C88.14,219.4 173.58,218.24 206.14,225.07C206.14,225.07 238.76,220.74 242.87,220.48C239.94,220.02 210.62,215.12 164.38,215.09C138.907,215.115 113.454,216.554 88.14,219.4Z"
    style="fill:currentColor;fill-rule:nonzero;"></path>
  <path
    d="M251.86,209.09L217.58,182.18C217.58,182.18 128.46,156.3 80.46,154.59C184.5,172.24 251.86,209.09 251.86,209.09Z"
    style="fill:currentColor;fill-rule:nonzero;"></path>
  <path d="M209.23,202.9L251.88,209.09C251.88,209.09 184.52,172.09 80.5,154.66C80.5,154.66 156.8,176.53 209.23,202.9Z"
    style="fill:currentColor;fill-rule:nonzero;"></path>
  <path
    d="M262.36,201.19L239.36,171.92C239.36,171.92 175,125.08 128.14,112.33C201.42,142.66 262.36,201.19 262.36,201.19Z"
    style="fill:currentColor;fill-rule:nonzero;"></path>
  <path
    d="M228.84,182.75L262.29,201.19C262.29,201.19 201.41,142.75 128.12,112.29C135.79,116.42 197.39,151 228.84,182.75Z"
    style="fill:currentColor;fill-rule:nonzero;"></path>
  <path d="M275.8,201.16L262.34,157.16C262.34,157.16 213.19,93.66 154.81,59.07C229.38,112.4 275.8,201.16 275.8,201.16Z"
    style="fill:currentColor;fill-rule:nonzero;"></path>
  <path d="M241.81,167.54L275.81,201.1C275.81,201.1 229.27,112.3 154.81,59.1C154.85,59.14 206.46,109.48 241.81,167.54Z"
    style="fill:currentColor;fill-rule:nonzero;"></path>
  <path d="M285.49,196.11L284.3,156.77C284.3,156.77 257.55,86.59 219.59,50.21C275,122 285.49,196.11 285.49,196.11Z"
    style="fill:currentColor;fill-rule:nonzero;"></path>
  <path d="M267.41,159.93L285.47,196.18C285.47,196.18 275,122 219.55,50.21C220.41,51.77 264.09,134.37 267.41,159.93Z"
    style="fill:currentColor;fill-rule:nonzero;"></path>
  <path
    d="M387,210.08L351,220.44C355.18,219.67 417.2,209.44 505.66,219.36C471.66,211.01 423.07,209.92 400.03,209.92C392,209.92 387,210.08 387,210.08Z"
    style="fill:currentColor;fill-rule:nonzero;"></path>
  <path
    d="M351,220.51C355.11,220.77 387.73,224.95 387.73,224.95C420.27,218.27 505.73,219.43 505.73,219.43C480.423,216.585 454.977,215.146 429.51,215.12C383.25,215.15 353.92,220.05 351,220.51Z"
    style="fill:currentColor;fill-rule:nonzero;"></path>
  <path d="M376.26,182.18L342,209.09C342,209.09 409.36,172.24 513.4,154.59C465.39,156.3 376.26,182.18 376.26,182.18Z"
    style="fill:currentColor;fill-rule:nonzero;"></path>
  <path d="M342,209.09L384.64,202.9C437.08,176.53 513.38,154.66 513.38,154.66C409.32,172.09 342,209.09 342,209.09Z"
    style="fill:currentColor;fill-rule:nonzero;"></path>
  <path
    d="M354.43,171.92L331.48,201.19C331.48,201.19 392.42,142.66 465.7,112.33C418.86,125.08 354.43,171.92 354.43,171.92Z"
    style="fill:currentColor;fill-rule:nonzero;"></path>
  <path
    d="M331.55,201.19L365,182.75C396.45,151.01 458.05,116.42 465.72,112.29C392.43,142.75 331.55,201.19 331.55,201.19Z"
    style="fill:currentColor;fill-rule:nonzero;"></path>
  <path d="M331.5,157.18L318.04,201.18C318.04,201.18 364.46,112.4 439,59.07C380.66,93.66 331.5,157.18 331.5,157.18Z"
    style="fill:currentColor;fill-rule:nonzero;"></path>
  <path d="M318,201.1L352,167.54C387.35,109.48 439,59.14 439,59.14C364.53,112.3 318,201.1 318,201.1Z"
    style="fill:currentColor;fill-rule:nonzero;"></path>
  <path
    d="M309.54,156.77L308.35,196.11C308.35,196.11 318.83,121.97 374.25,50.21C336.23,86.59 309.54,156.77 309.54,156.77Z"
    style="fill:currentColor;fill-rule:nonzero;"></path>
  <path d="M308.38,196.18L326.44,159.93C329.76,134.37 373.44,51.77 374.29,50.21C318.81,122 308.38,196.18 308.38,196.18Z"
    style="fill:currentColor;fill-rule:nonzero;"></path>
  <path d="M286.94,152.12C286.94,152.12 292.54,163.56 296.43,192.7L296.49,0C294.67,9.48 281.16,79.94 286.94,152.12Z"
    style="fill:currentColor;fill-rule:nonzero;"></path>
  <path d="M296.54,192.65C300.46,163.54 306.01,152.22 306.01,152.22C311.78,79.93 298.38,9.48 296.54,0L296.54,192.65Z"
    style="fill:currentColor;fill-rule:nonzero;"></path>
  <path
    d="M160.3,401.28L160,411.8L161.08,411.66C161.016,410.321 161.216,408.982 161.67,407.72C162.062,406.177 162.824,404.752 163.89,403.57C165.052,402.542 166.539,401.954 168.09,401.91L168.63,401.84L168.9,450.37C169.059,451.883 168.881,453.413 168.38,454.85C167.44,456.08 166.97,456.69 165.88,456.85L165.95,457.4L178.64,457.4L178.57,456.86C178.03,456.93 177.35,455.92 176.66,454.86C175.934,453.536 175.734,451.985 176.1,450.52L175.85,402L176.39,401.93C178.03,402.11 179.61,402.657 181.01,403.53C181.83,404.859 182.565,406.238 183.21,407.66C183.93,408.986 184.13,410.535 183.77,412L184.86,411.86L184.6,401.41L160.3,401.28Z"
    style="fill:currentColor;fill-rule:nonzero;"></path>
  <path
    d="M202.76,401.08L202.91,402.17C203.787,402.108 204.581,402.717 204.75,403.58C205.494,405.095 205.716,406.815 205.38,408.47L205.38,450.41C205.539,451.923 205.361,453.453 204.86,454.89C204.556,455.821 203.804,456.54 202.86,456.8L202.93,457.35L226.69,457.55L226.43,447.1L225.81,446.63C225.901,448.142 225.725,449.659 225.29,451.11C224.42,452.88 224.02,454.04 222.53,455.34C221.307,456.255 219.773,456.654 218.26,456.45L212.77,456.61L212.77,422.95L216.09,423.07C217.603,422.903 219.134,423.078 220.57,423.58C221.8,424.53 222.41,425 222.57,426.08L223.11,426.01L222.8,419.43L222.26,419.5C222.4,420.59 221.93,421.2 220.26,421.41C218.931,422.078 217.476,422.457 215.99,422.52L212.66,422.41L212.75,401.98L218.25,401.81C219.95,402.14 221.65,402.47 222.33,403.49C223.44,404.696 224.364,406.061 225.07,407.54C225.8,408.863 226.003,410.414 225.64,411.88L226.72,411.74L226.46,401.29L202.76,401.08Z"
    style="fill:currentColor;fill-rule:nonzero;"></path>
  <path
    d="M254.11,401.3C252.48,401.52 250.31,401.8 249.44,403.57C248.001,404.687 247.198,406.441 247.29,408.26L247.29,450.21C247.05,452.151 247.714,454.1 249.09,455.49C250.39,456.98 252.09,457.31 254.33,457.57C254,459.26 254.75,460.82 256.05,462.31C257.35,463.8 259.05,464.12 261.29,464.38L264.61,464.5L264.47,463.41C263.637,463.381 262.832,463.102 262.16,462.61C261.608,461.837 261.295,460.919 261.26,459.97L260.91,457.26C262.852,457.508 264.804,456.843 266.19,455.46C267.68,454.17 268.01,452.46 268.27,450.23L268.27,408.23C268.084,406.458 267.285,404.805 266.01,403.56C264.889,402.122 263.131,401.322 261.31,401.42L254.11,401.3ZM255.11,455.8C254.519,454.835 254.176,453.739 254.11,452.61L254.05,405.71C253.958,404.86 254.251,404.011 254.85,403.4C255.397,402.501 256.378,401.954 257.43,401.96C258.51,401.82 259.12,402.29 259.81,403.31C260.586,403.963 261.099,404.877 261.25,405.88L260.76,452.88C260.869,453.887 260.61,454.9 260.03,455.73C259.56,456.34 258.48,456.49 257.39,456.63C256.561,456.693 255.746,456.389 255.16,455.8L255.11,455.8Z"
    style="fill:currentColor;fill-rule:nonzero;"></path>
  <path
    d="M302.11,401.26L302.18,401.8C302.936,402.341 303.584,403.02 304.09,403.8C304.842,405.309 305.067,407.028 304.73,408.68L304.97,452.79C305.145,453.928 304.65,455.07 303.7,455.72C303.23,456.33 302.21,457.02 301.6,456.54C300.593,456.661 299.575,456.4 298.75,455.81C298.242,455.015 297.934,454.109 297.85,453.17L298.07,408.45C297.912,406.933 298.09,405.4 298.59,403.96C298.906,403.036 299.653,402.323 300.59,402.05L300.52,401.51L288.37,401.44L287.9,402.05C288.98,401.91 289.67,402.93 290.35,403.94L290.92,408.28L290.92,450.22C291.2,452.4 291.42,454.02 293.26,455.44C294.56,456.92 296.26,457.25 297.95,457.58L305.08,457.2C306.78,457.53 308.33,456.78 309.82,455.48C311.375,454.216 312.161,452.226 311.89,450.24L311.89,408.3C311.731,406.787 311.909,405.257 312.41,403.82C313.35,402.59 313.82,401.98 314.91,401.82L314.84,401.27L302.11,401.26Z"
    style="fill:currentColor;fill-rule:nonzero;"></path>
  <path
    d="M333.59,401.43L333.12,402.04C334.2,401.9 334.82,402.37 335.57,403.93L336.14,408.27L336.14,450.21C336.299,451.723 336.121,453.253 335.62,454.69C334.68,455.92 334.21,456.53 333.12,456.69L333.19,457.23L345.89,457.23L345.81,456.68C345.27,456.75 344.66,456.28 343.9,454.73C343.171,453.403 342.971,451.848 343.34,450.38L343.34,408.44C343.182,406.927 343.359,405.397 343.86,403.96C344.164,403.029 344.916,402.31 345.86,402.05L345.79,401.51L333.59,401.43Z"
    style="fill:currentColor;fill-rule:nonzero;"></path>
  <path
    d="M364.45,401.12L364.59,402.2C365.68,402.06 366.29,402.53 366.98,403.55L367.61,408.43L367.61,450.37C367.29,452.07 367.5,453.7 366.55,454.93C366.15,456.08 365.68,456.7 364.6,456.84L364.67,457.38L388.42,457.59L388.7,447.07L387.55,446.67C387.639,448.182 387.463,449.698 387.03,451.15C386.64,452.694 385.878,454.119 384.81,455.3C383.26,456.06 382.24,456.74 380.54,456.41L374.54,456.65L374.28,408.12C374.61,406.42 375.01,405.27 375.34,403.57C375.74,402.41 376.21,401.8 377.34,402.2L377.2,401.12L364.45,401.12Z"
    style="fill:currentColor;fill-rule:nonzero;"></path>
  <path
    d="M420.23,401.53L411.68,450.1C411.626,451.766 411.068,453.378 410.08,454.72C409.776,455.651 409.024,456.37 408.08,456.63L408.15,457.18L414.26,457.48L414.19,456.94C413.58,456.47 412.96,456 412.89,455.45C412.305,454.486 411.962,453.395 411.89,452.27C411.82,451.73 412.3,451.11 412.22,450.57L413.47,443.23L421.75,443.23L423.22,450.23L423.5,452.4C423.1,453.56 423.24,454.64 422.77,455.25C422.37,456.41 421.83,456.48 420.77,456.62L420.84,457.16L433.53,457.16L433.46,456.62C432.92,456.69 432.31,456.22 431.55,454.62C430.87,453.62 430.66,451.98 429.9,450.42L421.28,401.33L420.23,401.53ZM417.62,419.53L421.75,442.71L413.47,442.71L417.62,419.53Z"
    style="fill:currentColor;fill-rule:nonzero;"></path>
</svg>
