<?xml version="1.0" encoding="UTF-8" standalone="no"?>
<!DOCTYPE svg PUBLIC "-//W3C//DTD SVG 1.1//EN" "http://www.w3.org/Graphics/SVG/1.1/DTD/svg11.dtd">
<svg width="100%" height="100%" viewBox="0 0 584 292" version="1.1" xmlns="http://www.w3.org/2000/svg"
  xmlns:xlink="http://www.w3.org/1999/xlink" xml:space="preserve" xmlns:serif="http://www.serif.com/"
  style="fill-rule:evenodd;clip-rule:evenodd;stroke-linejoin:round;stroke-miterlimit:2;">
  <g transform="matrix(1.17654,0,0,1.17654,-105.193,-42.4469)">
    <g id="Capa11">
      <g>
        <g transform="matrix(0.284248,0,0,0.284248,184.739,110.299)">
          <path
            d="M167.57,110.39L136.5,133.05C105.18,95.87 45.33,110.64 45.33,165.39C45.33,189.84 62.14,217.09 92.19,217.09C109,217.09 132.43,212.76 136.76,188.09L85.25,188.09L105.87,151.67L179,151.67C179.488,156.154 179.745,160.66 179.77,165.17C179.77,224.25 143.86,257.36 91.4,257.36C32.09,257.33 0.25,211.74 0,165.39C0,118 32.09,71.93 91.43,71.93C122,71.93 143.89,81.1 167.57,110.39Z"
            style="fill:currentColor;fill-rule:nonzero;stroke:black;stroke-width:1px;" />
        </g>
        <g transform="matrix(0.284248,0,0,0.284248,184.739,110.299)">
          <path
            d="M283.43,114.2L240.06,114.2L240.06,142.2L293.38,142.2L293.32,180.4L240.06,180.4L240.06,215.54L305.77,215.54L305.77,254.25L196.26,254.25L196.26,76L305.77,76L283.43,114.2Z"
            style="fill:currentColor;fill-rule:nonzero;stroke:black;stroke-width:1px;" />
        </g>
        <g transform="matrix(0.284248,0,0,0.284248,184.739,110.299)">
          <path
            d="M642.3,76L642.3,115.22L600.79,115.22L600.79,254.27L555.2,254.27L555.2,115.27L514.2,115.27L514.2,76L642.3,76Z"
            style="fill:currentColor;fill-rule:nonzero;stroke:black;stroke-width:1px;" />
        </g>
        <g transform="matrix(0.284248,0,0,0.284248,184.739,110.299)">
          <rect x="658.34" y="75.24" width="45.33" height="179"
            style="fill:currentColor;stroke:black;stroke-width:1px;" />
        </g>
        <g transform="matrix(0.284248,0,0,0.284248,184.739,110.299)">
          <path
            d="M863.1,133.56C848.1,117.77 832.79,112.68 820.1,113.19C789.79,113.95 773.24,138.4 773.24,165.65C773.24,192.9 790.05,217.35 820.1,217.35C833.34,217.35 851.67,211.74 865.68,193.66L894.46,217.6C872.3,244.6 849.13,257.84 820.1,257.84C760.5,257.84 728.42,213.27 728.42,165.65C728.42,118.03 760.46,72.7 820.06,72.7C846.29,72.7 868.44,81.61 890.35,108.09L863.1,133.56Z"
            style="fill:currentColor;fill-rule:nonzero;stroke:black;stroke-width:1px;" />
        </g>
        <g transform="matrix(0.284248,0,0,0.284248,184.739,110.299)">
          <path
            d="M1012.6,210.72L955.81,210.72L942.31,254.27L893.92,254.27L954.79,74.27L1013.87,74.27L1075.5,254.32L1026.86,254.32L1012.6,210.72ZM983.6,106.82L979.02,131.82L967.82,170.27L1000.67,170.27L989.97,131.82L985.39,106.82L983.6,106.82Z"
            style="fill:currentColor;fill-rule:nonzero;stroke:black;stroke-width:1px;" />
        </g>
        <g transform="matrix(0.284248,0,0,0.284248,184.739,110.299)">
          <path
            d="M514.69,153.7C514.69,153.45 514.62,153.21 514.59,152.96C513.548,144.696 511.356,136.618 508.08,128.96C498.571,106.5 480.678,88.603 458.22,79.09C457.61,78.83 456.99,78.61 456.38,78.36L454.79,77.72L453.2,77.13C450.58,76.177 447.913,75.357 445.2,74.67L444.91,74.59C441.192,73.643 437.418,72.935 433.61,72.47L421.86,54.89L410.09,72.5L409.33,72.61C401.038,73.643 392.933,75.834 385.25,79.12C374.127,83.845 364.013,90.662 355.46,99.2C346.908,107.77 340.054,117.882 335.26,129C331.831,136.865 329.57,145.19 328.55,153.71L311,165.47L328.6,177.24C329.598,185.774 331.842,194.116 335.26,202C340.054,213.118 346.908,223.23 355.46,231.8C364.011,240.338 374.125,247.152 385.25,251.87C393.171,255.261 401.541,257.487 410.1,258.48L421.87,276L433.64,258.4L435.24,258.17L436.37,258.01C437.67,257.81 438.96,257.59 440.25,257.34L441.47,257.08C442.38,256.88 443.29,256.68 444.19,256.46L445.78,256.06C446.63,255.84 447.47,255.59 448.31,255.35C449.31,255.04 450.38,254.7 451.41,254.35L452.66,253.92C454.53,253.26 456.39,252.57 458.22,251.78C480.667,242.296 498.56,224.432 508.08,202C511.356,194.342 513.547,186.264 514.59,178C514.59,177.76 514.66,177.53 514.69,177.29L532.29,165.52L514.69,153.7ZM471.81,186.75C469.084,193.209 465.115,199.07 460.13,204C455.126,208.914 449.24,212.839 442.78,215.57C429.238,221.235 413.972,221.235 400.43,215.57C393.97,212.839 388.084,208.914 383.08,204C372.809,193.825 367.063,179.927 367.15,165.47C367.089,158.196 368.536,150.987 371.4,144.3C376.96,131.276 387.361,120.904 400.4,115.38C413.94,109.703 429.21,109.703 442.75,115.38C455.789,120.904 466.19,131.276 471.75,144.3C474.617,150.986 476.068,158.195 476.01,165.47C476.081,172.776 474.651,180.019 471.81,186.75Z"
            style="fill:currentColor;fill-rule:nonzero;stroke:black;stroke-width:1px;" />
        </g>
        <g transform="matrix(0.284248,0,0,0.284248,184.739,110.299)">
          <path d="M421.67,37.17L383.83,65.36L421.74,0L459.4,65.5L421.67,37.17Z"
            style="fill:currentColor;fill-rule:nonzero;" />
        </g>
        <g transform="matrix(0.284248,0,0,0.284248,184.739,110.299)">
          <path d="M421.67,37.17L421.74,0L459.4,65.5L421.67,37.17Z" style="fill:currentColor;fill-rule:nonzero;" />
        </g>
        <g transform="matrix(0.284248,0,0,0.284248,184.739,110.299)">
          <path
            d="M514.59,153C513.548,144.736 511.356,136.658 508.08,129C503.36,117.871 496.543,107.753 488,99.2C481.693,92.873 474.509,87.484 466.67,83.2L448,118C452.431,120.448 456.5,123.501 460.09,127.07C465.043,132.026 469.007,137.881 471.77,144.32C474.637,151.006 476.088,158.215 476.03,165.49C476.113,179.934 470.379,193.821 460.13,204C455.126,208.914 449.24,212.839 442.78,215.57C429.238,221.235 413.972,221.235 400.43,215.57C399.13,215.01 397.88,214.38 396.64,213.74L378.06,248.37C380.39,249.6 382.78,250.76 385.25,251.82C393.171,255.211 401.541,257.437 410.1,258.43L421.87,276L433.64,258.4L435.24,258.17L436.37,258.01C437.67,257.81 438.96,257.59 440.25,257.34L441.47,257.08C442.38,256.88 443.29,256.68 444.19,256.46L445.78,256.06C446.63,255.84 447.47,255.59 448.31,255.35C449.31,255.04 450.38,254.7 451.41,254.35L452.66,253.92C454.53,253.26 456.39,252.57 458.22,251.78C480.667,242.296 498.56,224.432 508.08,202C511.356,194.342 513.547,186.264 514.59,178C514.59,177.76 514.66,177.53 514.69,177.29L532.29,165.52L514.69,153.75C514.66,153.45 514.62,153.21 514.59,153Z"
            style="fill:currentColor;fill-opacity:0;fill-rule:nonzero;" />
        </g>
        <g transform="matrix(0.284248,0,0,0.284248,184.739,110.299)">
          <path
            d="M91.43,75.93C121.18,75.93 141.22,85.45 161.78,109.66L137.07,127.66C125.52,115.43 110.07,108.49 94.01,108.49C80.335,108.355 67.153,113.664 57.39,123.24C46.89,133.65 41.33,148.24 41.33,165.37C41.33,200.24 67.19,221.07 92.19,221.07C120.19,221.07 136.99,209.89 140.7,188.73L141.52,184.04L92.11,184.04L108.21,155.62L175.35,155.62C175.8,161.25 175.8,163.28 175.8,165.12C175.8,192.53 167.72,215.12 152.45,230.55C137.68,245.44 116.58,253.31 91.45,253.31C64.98,253.31 42.54,243.88 26.56,226.05C12.13,210 4.13,188.44 4,165.39C4,120.94 34,75.93 91.43,75.93M91.43,71.93C32.09,71.93 0,118 0,165.39C0.25,211.74 32.09,257.33 91.43,257.33C143.89,257.33 179.8,224.22 179.8,165.14C179.775,160.63 179.518,156.124 179.03,151.64L105.87,151.64L85.25,188.06L136.76,188.06C132.43,212.76 109,217.06 92.19,217.06C62.19,217.06 45.33,189.81 45.33,165.36C45.33,131.08 68.79,112.47 94.02,112.48C109.08,112.48 124.79,119.12 136.5,133.02L167.57,110.36C143.89,81.1 122,71.93 91.43,71.93Z"
            style="fill:currentColor;fill-rule:nonzero;" />
        </g>
        <g transform="matrix(0.284248,0,0,0.284248,184.739,110.299)">
          <path
            d="M298.79,80L281.14,110.2L236.06,110.2L236.06,146.2L289.37,146.2L289.37,176.4L236.06,176.4L236.06,219.54L301.77,219.54L301.77,250.25L200.26,250.25L200.26,80L298.79,80M305.79,76L196.26,76L196.26,254.27L305.77,254.27L305.77,215.56L240.06,215.56L240.06,180.42L293.32,180.42L293.38,142.22L240.06,142.22L240.06,114.22L283.43,114.22L305.77,76L305.79,76Z"
            style="fill:currentColor;fill-rule:nonzero;" />
        </g>
        <g transform="matrix(0.284248,0,0,0.284248,184.739,110.299)">
          <path
            d="M638.3,80L638.3,111.22L596.79,111.22L596.79,250.27L559.2,250.27L559.2,111.27L518.2,111.27L518.2,80L638.3,80M642.3,76L514.2,76L514.2,115.22L555.2,115.22L555.2,254.27L600.79,254.27L600.79,115.27L642.3,115.27L642.3,76Z"
            style="fill:currentColor;fill-rule:nonzero;" />
        </g>
        <g transform="matrix(0.284248,0,0,0.284248,184.739,110.299)">
          <path
            d="M699.67,79.24L699.67,250.24L662.34,250.24L662.34,79.24L699.67,79.24M703.67,75.24L658.34,75.24L658.34,254.24L703.67,254.24L703.67,75.24Z"
            style="fill:currentColor;fill-rule:nonzero;" />
        </g>
        <g transform="matrix(0.284248,0,0,0.284248,184.739,110.299)">
          <path
            d="M820.06,76.7C846.36,76.7 865.92,86.03 884.83,107.77L863.2,128C847.2,112.52 831.96,109.16 821.78,109.16L819.96,109.16C790.07,109.91 769.2,133.16 769.2,165.62C769.2,180.43 773.85,194.15 782.29,204.25C791.62,215.42 804.68,221.32 820.06,221.32C828.41,221.32 849.06,219.09 866.18,199.32L888.77,218.12C867.61,242.8 846.28,253.85 820.06,253.85C793.33,253.85 770.77,244.54 754.84,226.93C740.35,210.93 732.38,189.17 732.38,165.66C732.38,142.15 740.38,120.18 754.85,103.99C770.85,86.14 793.38,76.71 820.06,76.71M820.06,72.71C760.46,72.71 728.38,118.03 728.38,165.71C728.38,213.39 760.46,257.9 820.06,257.9C849.06,257.9 872.26,244.65 894.42,217.66L865.64,193.72C851.64,211.8 833.3,217.41 820.06,217.41C790.06,217.41 773.2,192.96 773.2,165.71C773.2,138.46 789.75,114.01 820.06,113.25L821.78,113.25C834.15,113.25 848.78,118.57 863.1,133.66L890.35,108.19C868.44,81.61 846.29,72.7 820.06,72.7L820.06,72.71Z"
            style="fill:currentColor;fill-rule:nonzero;" />
        </g>
        <g transform="matrix(0.284248,0,0,0.284248,184.739,110.299)">
          <path
            d="M1011,78.22L1069.89,250.27L1029.75,250.27L1016.39,209.48L1015.48,206.72L952.86,206.72L951.99,209.54L939.36,250.27L899.49,250.27L957.66,78.27L1011,78.27M975.07,130.91L963.93,169.16L962.43,174.28L1005.88,174.28L1004.47,169.21L993.82,130.93L989.27,106.15L988.67,102.87L980.22,102.87L979.62,106.15L975.07,130.91M1013.87,74.27L954.79,74.27L893.92,254.27L942.31,254.27L955.81,210.72L1012.6,210.72L1026.86,254.27L1075.5,254.27L1013.87,74.27ZM967.77,170.27L979,131.78L983.58,106.78L985.37,106.78L989.95,131.78L1000.65,170.23L967.77,170.27Z"
            style="fill:currentColor;fill-rule:nonzero;" />
        </g>
        <g transform="matrix(0.284248,0,0,0.284248,184.739,110.299)">
          <path
            d="M421.86,62.09L430.31,74.72L431.31,76.25L433.12,76.47C436.756,76.907 440.359,77.575 443.91,78.47L444.21,78.47C446.79,79.13 449.35,79.93 451.83,80.83L453.31,81.38C453.83,81.58 454.31,81.78 454.86,82L455.61,82.29L456.61,82.7C478.133,91.797 495.277,108.945 504.37,130.47C507.49,137.78 509.584,145.486 510.59,153.37L510.65,153.82L510.65,154.11L511,156L512.51,157L525.15,165.45L512.51,173.9L510.99,174.9L510.77,176.73L510.77,177.01L510.71,177.4C509.711,185.297 507.621,193.017 504.5,200.34C495.395,221.857 478.249,238.999 456.73,248.1C455.16,248.78 453.47,249.43 451.42,250.15C451.16,250.25 450.89,250.34 450.63,250.42L450.23,250.56C449.23,250.89 448.23,251.2 447.23,251.5C446.43,251.74 445.63,251.97 444.83,252.18L443.3,252.57C442.44,252.77 441.57,252.97 440.71,253.15L440.22,253.26L439.53,253.41C438.38,253.64 437.17,253.85 435.84,254.05L435.08,254.16L434.74,254.16L434.3,254.22L433.21,254.38L431.39,254.6L430.39,256.12L421.95,268.76L413.5,256.13L412.5,254.6L410.67,254.38C402.494,253.426 394.498,251.297 386.93,248.06C376.273,243.536 366.581,237.012 358.38,228.84C350.194,220.614 343.626,210.922 339.02,200.27C335.755,192.755 333.599,184.805 332.62,176.67L332.39,174.86L330.87,173.86L318.24,165.41L330.77,157L332.29,156L332.52,154.18C333.499,146.045 335.655,138.095 338.92,130.58C343.526,119.925 350.094,110.23 358.28,102C366.488,93.842 376.179,87.325 386.83,82.8C394.17,79.666 401.911,77.569 409.83,76.57L410.25,76.51L410.56,76.51L412.39,76.29L413.39,74.76L421.83,62.13M421.68,223.86C429.46,223.892 437.165,222.334 444.32,219.28C451.239,216.352 457.545,212.149 462.91,206.89C473.944,195.964 480.123,181.039 480.04,165.51C480.09,157.689 478.527,149.941 475.45,142.75C469.469,128.789 458.306,117.673 444.32,111.75C429.777,105.646 413.373,105.646 398.83,111.75C384.844,117.673 373.681,128.789 367.7,142.75C364.626,149.941 363.067,157.689 363.12,165.51C363.028,181.038 369.204,195.966 380.24,206.89C385.605,212.149 391.911,216.352 398.83,219.28C406.055,222.348 413.831,223.906 421.68,223.86M421.83,54.93L410.09,72.5L409.33,72.61C401.038,73.643 392.933,75.834 385.25,79.12C374.127,83.845 364.013,90.662 355.46,99.2C346.908,107.77 340.054,117.882 335.26,129C331.831,136.865 329.57,145.19 328.55,153.71L311,165.47L328.6,177.24C329.598,185.774 331.842,194.116 335.26,202C340.054,213.118 346.908,223.23 355.46,231.8C364.011,240.338 374.125,247.152 385.25,251.87C393.171,255.261 401.541,257.487 410.1,258.48L421.87,276L433.64,258.4L435.24,258.17L436.37,258.01C437.67,257.81 438.96,257.59 440.25,257.34L441.47,257.08C442.38,256.88 443.29,256.68 444.19,256.46L445.78,256.06C446.63,255.84 447.47,255.59 448.31,255.35C449.31,255.04 450.38,254.7 451.41,254.35L452.66,253.92C454.53,253.26 456.39,252.57 458.22,251.78C480.667,242.296 498.56,224.432 508.08,202C511.356,194.342 513.547,186.264 514.59,178C514.59,177.76 514.66,177.53 514.69,177.29L532.29,165.52L514.69,153.75C514.69,153.5 514.62,153.26 514.59,153.01C513.548,144.746 511.356,136.668 508.08,129.01C498.571,106.55 480.678,88.653 458.22,79.14C457.61,78.88 456.99,78.66 456.38,78.41L454.79,77.77L453.2,77.18C450.58,76.227 447.913,75.407 445.2,74.72L444.91,74.64C441.192,73.693 437.418,72.985 433.61,72.52L421.86,54.89L421.83,54.93ZM421.68,219.86C414.371,219.909 407.129,218.463 400.4,215.61C393.948,212.864 388.072,208.925 383.08,204C372.809,193.825 367.063,179.927 367.15,165.47C367.089,158.196 368.536,150.987 371.4,144.3C376.96,131.276 387.361,120.904 400.4,115.38C413.94,109.703 429.21,109.703 442.75,115.38C455.789,120.904 466.19,131.276 471.75,144.3C474.617,150.986 476.068,158.195 476.01,165.47C476.103,179.918 470.377,193.813 460.13,204C455.126,208.914 449.24,212.839 442.78,215.57C436.12,218.409 428.95,219.855 421.71,219.82L421.68,219.86Z"
            style="fill:currentColor;fill-rule:nonzero;" />
        </g>
        <g transform="matrix(0.284248,0,0,0.284248,184.739,110.299)">
          <path
            d="M2.18,332.52L2.18,332.42C2.18,322.77 9.18,313.93 19.84,313.93C24.636,313.764 29.318,315.447 32.91,318.63L31.18,320.63C28.067,317.742 23.934,316.199 19.69,316.34C11.01,316.34 4.93,323.7 4.93,332.34L4.93,332.44C4.93,341.68 10.7,348.57 20.25,348.57C24.397,348.533 28.412,347.095 31.64,344.49L31.64,334.2L19.69,334.2L19.69,331.75L34.19,331.75L34.19,345.54C30.319,348.948 25.347,350.852 20.19,350.9C8.87,350.9 2.18,342.58 2.18,332.52Z"
            style="fill:currentColor;fill-rule:nonzero;stroke:rgb(177,176,178);stroke-width:1px;" />
        </g>
        <g transform="matrix(0.284248,0,0,0.284248,184.739,110.299)">
          <path
            d="M74.42,314.55L89.42,314.55C93.81,314.55 97.34,315.93 99.48,318.07C101.22,319.841 102.194,322.227 102.19,324.71L102.19,324.81C102.19,330.81 97.74,334.2 91.72,335.02L103.51,350.29L100.14,350.29L88.77,335.48L77.08,335.48L77.08,350.29L74.42,350.29L74.42,314.55ZM89.12,333.08C95.12,333.08 99.54,330.08 99.54,324.91L99.54,324.81C99.54,320.01 95.76,317 89.28,317L77.08,317L77.08,333.08L89.12,333.08Z"
            style="fill:currentColor;fill-rule:nonzero;stroke:rgb(177,176,178);stroke-width:1px;" />
        </g>
        <g transform="matrix(0.284248,0,0,0.284248,184.739,110.299)">
          <path
            d="M141.41,335.43L141.41,314.55L144.06,314.55L144.06,335.17C144.06,343.6 148.61,348.45 156.16,348.45C163.41,348.45 168.06,344.06 168.06,335.45L168.06,314.55L170.71,314.55L170.71,335.12C170.71,345.39 164.71,350.85 156.06,350.85C147.41,350.85 141.41,345.44 141.41,335.43Z"
            style="fill:currentColor;fill-rule:nonzero;stroke:rgb(177,176,178);stroke-width:1px;" />
        </g>
        <g transform="matrix(0.284248,0,0,0.284248,184.739,110.299)">
          <path
            d="M211.4,314.55L224.4,314.55C232.26,314.55 237.68,318.55 237.68,325.47L237.68,325.58C237.68,333.08 231.19,336.96 223.74,336.96L214.09,336.96L214.09,350.29L211.4,350.29L211.4,314.55ZM223.86,334.55C230.5,334.55 234.99,331.08 234.99,325.77L234.99,325.67C234.99,320 230.6,317.04 224.17,317.04L214.06,317.04L214.06,334.55L223.86,334.55Z"
            style="fill:currentColor;fill-rule:nonzero;stroke:rgb(177,176,178);stroke-width:1px;" />
        </g>
        <g transform="matrix(0.284248,0,0,0.284248,184.739,110.299)">
          <path
            d="M274.56,332.52L274.56,332.42C274.56,322.67 281.76,313.93 292.56,313.93C303.36,313.93 310.48,322.56 310.48,332.32L310.48,332.42C310.48,342.17 303.28,350.9 292.48,350.9C281.68,350.9 274.56,342.27 274.56,332.52ZM307.75,332.52L307.75,332.42C307.75,323.58 301.31,316.33 292.48,316.33C283.65,316.33 277.32,323.48 277.32,332.33L277.32,332.43C277.32,341.26 283.75,348.51 292.58,348.51C301.41,348.51 307.75,341.35 307.75,332.52Z"
            style="fill:currentColor;fill-rule:nonzero;stroke:rgb(177,176,178);stroke-width:1px;" />
        </g>
        <g transform="matrix(0.284248,0,0,0.284248,184.739,110.299)">
          <path
            d="M396.12,314.55L421.55,314.55L421.55,317L398.78,317L398.78,331L419.25,331L419.25,333.45L398.78,333.45L398.78,347.8L421.78,347.8L421.78,350.25L396.12,350.25L396.12,314.55Z"
            style="fill:currentColor;fill-rule:nonzero;stroke:rgb(177,176,178);stroke-width:1px;" />
        </g>
        <g transform="matrix(0.284248,0,0,0.284248,184.739,110.299)">
          <path
            d="M461,314.55L463.5,314.55L477.85,335.69L492.2,314.55L494.7,314.55L494.7,350.29L492,350.29L492,319.24L477.85,339.82L477.65,339.82L463.51,319.24L463.51,350.29L461,350.29L461,314.55Z"
            style="fill:currentColor;fill-rule:nonzero;stroke:rgb(177,176,178);stroke-width:1px;" />
        </g>
        <g transform="matrix(0.284248,0,0,0.284248,184.739,110.299)">
          <path
            d="M535.91,314.55L548.91,314.55C556.77,314.55 562.19,318.55 562.19,325.47L562.19,325.58C562.19,333.08 555.7,336.96 548.25,336.96L538.6,336.96L538.6,350.29L535.94,350.29L535.91,314.55ZM548.37,334.55C555.01,334.55 559.5,331.08 559.5,325.77L559.5,325.67C559.5,320 555.11,317.04 548.68,317.04L538.57,317.04L538.57,334.55L548.37,334.55Z"
            style="fill:currentColor;fill-rule:nonzero;stroke:rgb(177,176,178);stroke-width:1px;" />
        </g>
        <g transform="matrix(0.284248,0,0,0.284248,184.739,110.299)">
          <path
            d="M600.65,314.55L615.65,314.55C620.04,314.55 623.57,315.93 625.71,318.07C627.45,319.841 628.424,322.227 628.42,324.71L628.42,324.81C628.42,330.81 623.97,334.2 617.95,335.02L629.74,350.29L626.37,350.29L615,335.48L603.31,335.48L603.31,350.29L600.65,350.29L600.65,314.55ZM615.36,333.08C621.36,333.08 625.77,330.08 625.77,324.91L625.77,324.81C625.77,320.01 621.99,317 615.51,317L603.31,317L603.31,333.08L615.36,333.08Z"
            style="fill:currentColor;fill-rule:nonzero;stroke:rgb(177,176,178);stroke-width:1px;" />
        </g>
        <g transform="matrix(0.284248,0,0,0.284248,184.739,110.299)">
          <path
            d="M668.2,314.55L693.63,314.55L693.63,317L670.85,317L670.85,331L691.33,331L691.33,333.45L670.85,333.45L670.85,347.8L693.85,347.8L693.85,350.25L668.2,350.25L668.2,314.55Z"
            style="fill:currentColor;fill-rule:nonzero;stroke:rgb(177,176,178);stroke-width:1px;" />
        </g>
        <g transform="matrix(0.284248,0,0,0.284248,184.739,110.299)">
          <path
            d="M730.74,345.08L732.48,343.08C736.41,346.7 740.03,348.39 745.29,348.39C750.55,348.39 754.29,345.39 754.29,341.29L754.29,341.19C754.29,337.41 752.29,335.19 744.18,333.58C735.6,331.85 732.13,328.94 732.13,323.52L732.13,323.42C732.13,318.11 736.98,314.03 743.62,314.03C748.103,313.881 752.481,315.432 755.87,318.37L754.19,320.46C751.278,317.811 747.456,316.378 743.52,316.46C738.26,316.46 734.78,319.46 734.78,323.2L734.78,323.3C734.78,327.08 736.73,329.37 745.2,331.11C753.47,332.8 756.94,335.76 756.94,340.96L756.94,341.07C756.94,346.84 751.94,350.82 745.1,350.82C739.746,350.872 734.583,348.808 730.74,345.08Z"
            style="fill:currentColor;fill-rule:nonzero;stroke:rgb(177,176,178);stroke-width:1px;" />
        </g>
        <g transform="matrix(0.284248,0,0,0.284248,184.739,110.299)">
          <path
            d="M809.16,314.29L811.71,314.29L828.36,350.29L825.45,350.29L820.91,340.29L799.82,340.29L795.28,350.29L792.52,350.29L809.16,314.29ZM819.78,337.88L810.39,317.2L800.94,337.88L819.78,337.88Z"
            style="fill:currentColor;fill-rule:nonzero;stroke:rgb(177,176,178);stroke-width:1px;" />
        </g>
        <g transform="matrix(0.284248,0,0,0.284248,184.739,110.299)">
          <path
            d="M866.55,314.55L881.55,314.55C885.94,314.55 889.46,315.93 891.61,318.07C893.347,319.842 894.318,322.229 894.31,324.71L894.31,324.81C894.31,330.81 889.87,334.2 883.85,335.02L895.64,350.29L892.27,350.29L880.9,335.48L869.2,335.48L869.2,350.29L866.55,350.29L866.55,314.55ZM881.25,333.08C887.25,333.08 891.67,330.08 891.67,324.91L891.67,324.81C891.67,320.01 887.89,317 881.41,317L869.2,317L869.2,333.08L881.25,333.08Z"
            style="fill:currentColor;fill-rule:nonzero;stroke:rgb(177,176,178);stroke-width:1px;" />
        </g>
        <g transform="matrix(0.284248,0,0,0.284248,184.739,110.299)">
          <rect x="934.45" y="314.55" width="2.66" height="35.74"
            style="fill:currentColor;stroke:rgb(177,176,178);stroke-width:1px;" />
        </g>
        <g transform="matrix(0.284248,0,0,0.284248,184.739,110.299)">
          <path
            d="M992.3,314.29L994.85,314.29L1011.5,350.29L1008.58,350.29L1004.04,340.29L983,340.29L978.45,350.29L975.69,350.29L992.3,314.29ZM1002.92,337.88L993.52,317.2L984.08,337.88L1002.92,337.88Z"
            style="fill:currentColor;fill-rule:nonzero;stroke:rgb(177,176,178);stroke-width:1px;" />
        </g>
        <g transform="matrix(0.284248,0,0,0.284248,184.739,110.299)">
          <path
            d="M1049.68,314.55L1052.34,314.55L1052.34,347.84L1073.34,347.84L1073.34,350.29L1049.7,350.29L1049.68,314.55Z"
            style="fill:currentColor;fill-rule:nonzero;stroke:rgb(177,176,178);stroke-width:1px;" />
        </g>
      </g>
    </g>
  </g>
</svg>
