<?xml version="1.0" encoding="UTF-8" standalone="no"?>
<!DOCTYPE svg PUBLIC "-//W3C//DTD SVG 1.1//EN" "http://www.w3.org/Graphics/SVG/1.1/DTD/svg11.dtd">
<svg width="100%" height="100%" viewBox="0 0 584 292" version="1.1" xmlns="http://www.w3.org/2000/svg"
  xmlns:xlink="http://www.w3.org/1999/xlink" xml:space="preserve" xmlns:serif="http://www.serif.com/"
  style="fill-rule:evenodd;clip-rule:evenodd;stroke-linejoin:round;stroke-miterlimit:2;">
  <g id="Capa-1" serif:id="Capa 1" transform="matrix(3.07021,0,0,3.07021,113.83,61.8522)">
    <g id="Capa10">
      <g id="Capa-11" serif:id="Capa 1">
        <g transform="matrix(1,0,0,1,10.0186,16.9696)">
          <path
            d="M0,-8.76L0,-9.286L0.551,-9.836L0.175,-10.212L-3.029,-7.108L-2.678,-6.733L-1.827,-7.534L-1.827,0.951L-2.853,0.951L-2.853,1.452L1.176,1.452L1.176,0.951C0.3,0.901 0,0.501 0,-0.675L0,-7.984C0.676,-8.66 1.051,-8.885 1.552,-8.885C2.027,-8.885 2.403,-8.585 2.553,-8.084C2.653,-7.784 2.653,-7.458 2.653,-6.307L2.653,0.951L1.902,0.951L1.902,1.452L5.757,1.452L5.757,0.951C5.657,0.951 5.557,0.926 5.507,0.926C4.706,0.876 4.53,0.601 4.53,-0.675L4.53,-7.584C4.956,-8.435 5.456,-8.835 6.132,-8.835C6.508,-8.835 6.933,-8.585 7.083,-8.234C7.234,-7.959 7.284,-7.759 7.284,-6.933L7.284,0.951L6.408,0.951L6.408,1.452L10.562,1.452L10.562,0.951L10.237,0.951C9.286,0.951 9.111,0.701 9.111,-0.525L9.111,-6.382C9.111,-7.408 9.036,-8.009 8.911,-8.46C8.66,-9.211 7.884,-9.736 7.008,-9.736C6.082,-9.736 5.231,-9.361 4.255,-8.51C3.804,-9.361 3.229,-9.736 2.378,-9.736C1.577,-9.736 0.901,-9.461 0,-8.76"
            style="fill:currentColor;fill-rule:nonzero;" />
        </g>
        <g transform="matrix(1,0,0,1,27.4391,18.6725)">
          <path
            d="M0,-11.439C-3.379,-11.439 -5.882,-8.986 -5.882,-5.657C-5.882,-2.478 -3.254,0 0.05,0C3.454,0 5.982,-2.403 5.982,-5.632C5.982,-8.986 3.454,-11.439 0,-11.439M-0.826,-10.688C1.877,-10.688 4.505,-7.559 4.505,-4.356C4.505,-2.353 2.928,-0.751 0.976,-0.751C-1.802,-0.751 -4.43,-3.78 -4.43,-6.984C-4.43,-9.136 -2.928,-10.688 -0.826,-10.688"
            style="fill:currentColor;fill-rule:nonzero;" />
        </g>
        <g transform="matrix(1,0,0,1,37.7012,18.6723)">
          <path
            d="M0,-16.645L-1.902,-14.843L-1.902,-11.189L-2.878,-11.189L-2.778,-10.688L-1.902,-10.688L-1.902,-4.03C-1.902,-2.679 -1.752,-1.928 -1.352,-1.377C-0.701,-0.476 0.275,0 1.452,0C2.928,0 3.83,-0.676 4.405,-2.253L3.905,-2.528C3.579,-1.928 3.454,-1.752 3.254,-1.502C2.828,-0.977 2.253,-0.651 1.677,-0.651C0.976,-0.651 0.35,-1.127 0.15,-1.777C0.05,-2.128 0,-2.553 0,-3.354L0,-10.688L2.253,-10.688L2.253,-11.189L0,-11.189L0,-16.645Z"
            style="fill:currentColor;fill-rule:nonzero;" />
        </g>
        <g transform="matrix(1,0,0,1,44.284,15.2935)">
          <path
            d="M0,-4.681L9.937,-4.681C9.136,-6.809 7.209,-8.06 4.706,-8.06C1.126,-8.06 -1.677,-5.432 -1.677,-2.103C-1.677,1.001 0.826,3.379 4.105,3.379C6.783,3.379 8.961,2.027 9.987,-0.251L9.486,-0.501C8.485,1.401 6.883,2.427 4.931,2.427C2.102,2.427 -0.4,-0.076 -0.4,-2.879C-0.4,-3.58 -0.3,-4.005 0,-4.681M0.275,-5.232C1.151,-6.508 2.453,-7.209 3.98,-7.209C5.532,-7.209 6.833,-6.508 7.609,-5.232L0.275,-5.232Z"
            style="fill:currentColor;fill-rule:nonzero;" />
        </g>
        <g transform="matrix(1,0,0,1,59.8774,-0.0003)">
          <path
            d="M0,18.422L0,17.921L-0.2,17.921C-1.076,17.921 -1.427,17.471 -1.427,16.42L-1.427,0.926L-0.876,0.376L-1.251,0L-4.505,3.104L-4.13,3.479L-3.279,2.678L-3.279,17.921L-4.305,17.921L-4.305,18.422L0,18.422Z"
            style="fill:currentColor;fill-rule:nonzero;" />
        </g>
        <g transform="matrix(1,0,0,1,5.136,33.072)">
          <path
            d="M0,10.656L-0.576,9.792C-3.744,11.328 -5.136,13.104 -5.136,15.552C-5.136,19.104 -1.776,21.744 2.736,21.744C7.536,21.744 11.04,18.816 11.52,14.4C11.616,13.536 11.616,13.104 11.616,10.656L11.616,-9.648L14.736,-9.648L14.736,-11.088L2.592,-11.088L2.592,-9.648L4.656,-9.648C5.664,-9.648 6.288,-9.456 6.72,-8.928C7.2,-8.352 7.296,-7.968 7.296,-5.904L7.296,12.768C7.248,15.744 7.2,16.512 6.816,17.616C6.288,19.2 4.656,20.352 2.928,20.352C0.288,20.352 -1.776,18 -1.776,15.024C-1.776,13.248 -1.344,12.192 0,10.656"
            style="fill:currentColor;fill-rule:nonzero;" />
        </g>
        <g transform="matrix(1,0,0,1,24.96,54.48)">
          <path
            d="M0,-23.088L-1.008,-23.088L-1.008,-13.344L0,-13.344C0.096,-15.264 0.384,-16.464 0.96,-17.568C1.92,-19.44 3.6,-20.592 5.424,-20.592C6.816,-20.592 8.208,-19.872 8.784,-18.768C9.264,-17.856 9.36,-17.28 9.36,-15.12L9.36,-12.96C7.776,-13.92 6.72,-14.256 5.232,-14.256C1.2,-14.256 -2.4,-10.704 -2.4,-6.72C-2.4,-2.928 0.576,0 4.416,0C6.288,0 7.776,-0.624 9.36,-2.016L9.36,-0.48L16.032,-0.48L16.032,-1.44L15.216,-1.44C13.392,-1.44 12.912,-1.92 12.864,-3.792L12.864,-14.208C12.864,-16.416 12.576,-17.76 11.856,-18.864C10.656,-20.736 8.304,-21.936 5.808,-21.936C3.696,-21.936 2.208,-21.264 0,-19.296L0,-23.088ZM9.36,-10.224L9.36,-4.56C9.168,-3.12 7.248,-1.728 5.472,-1.728C2.736,-1.728 0.336,-4.752 0.336,-8.256C0.336,-10.992 2.112,-12.912 4.56,-12.912C6.24,-12.912 8.112,-11.856 9.36,-10.224"
            style="fill:currentColor;fill-rule:nonzero;" />
        </g>
        <g transform="matrix(1,0,0,1,57.12,54)">
          <path
            d="M0,-22.752L-1.056,-22.752L-1.056,-20.832C-1.776,-21.264 -2.448,-21.456 -3.168,-21.456C-4.176,-21.456 -5.472,-20.928 -6.384,-20.208C-6.864,-19.824 -7.152,-19.536 -7.968,-18.672L-7.968,-20.592L-6.912,-21.648L-7.632,-22.368L-13.776,-16.416L-13.104,-15.696L-11.472,-17.232L-11.472,-0.96L-13.44,-0.96L-13.44,0L-4.896,0L-4.896,-0.96L-5.616,-0.96C-7.296,-0.96 -7.968,-1.824 -7.968,-3.84L-7.968,-17.088C-6.96,-18.624 -5.616,-19.584 -4.224,-19.584C-2.208,-19.584 -1.008,-18.096 -1.008,-15.744L-1.008,-13.632L0,-13.632L0,-22.752Z"
            style="fill:currentColor;fill-rule:nonzero;" />
        </g>
        <g transform="matrix(1,0,0,1,77.04,38.4)">
          <path
            d="M0,-3.648C-2.592,-5.28 -4.32,-5.856 -6.72,-5.856C-13.2,-5.856 -18,-1.008 -18,5.472C-18,8.736 -16.848,11.376 -14.592,13.344C-12.624,15.024 -9.744,16.08 -7.104,16.08C-4.752,16.08 -2.496,15.408 0,13.92L0,15.6L6.24,15.6L6.24,14.64L5.856,14.64C4.224,14.64 3.504,13.776 3.504,11.76L3.504,-17.952L4.56,-19.008L3.84,-19.728L-2.304,-13.776L-1.584,-13.056L0,-14.592L0,-3.648ZM0,-0.72L0,12.048C-1.824,13.584 -3.648,14.304 -5.712,14.304C-10.8,14.304 -14.688,9.696 -14.688,3.696C-14.688,-1.152 -11.568,-4.56 -7.104,-4.56C-4.32,-4.56 -1.968,-3.312 0,-0.72"
            style="fill:currentColor;fill-rule:nonzero;" />
        </g>
        <g transform="matrix(1,0,0,1,94.8,24.096)">
          <path
            d="M0,28.944L-0.384,28.944C-2.064,28.944 -2.736,28.08 -2.736,26.064L-2.736,9.312L-1.632,8.256L-2.352,7.536L-8.592,13.488L-7.872,14.208L-6.24,12.672L-6.24,28.944L-8.208,28.944L-8.208,29.904L0,29.904L0,28.944ZM-6.576,5.088L-5.184,5.088L1.2,-0.96L-4.32,-0.96L-6.576,5.088Z"
            style="fill:currentColor;fill-rule:nonzero;" />
        </g>
        <g transform="matrix(1,0,0,1,103.248,50.4)">
          <path
            d="M0,-15.168L0,-16.992L1.056,-18.048L0.288,-18.768L-5.952,-12.816L-5.232,-12.096L-3.6,-13.632L-3.6,2.64L-5.568,2.64L-5.568,3.6L2.688,3.6L2.688,2.64L2.304,2.64C0.672,2.64 -0.048,1.776 0,-0.24L0,-12.624C0.72,-14.976 1.872,-16.032 3.648,-16.032C4.608,-16.032 5.424,-15.6 5.952,-14.928C6.384,-14.352 6.48,-13.584 6.48,-11.28L6.48,2.64L4.56,2.64L4.56,3.6L12.816,3.6L12.816,2.64L12.144,2.64C10.464,2.64 10.032,2.064 10.032,-0.192L10.032,-12.144C10.032,-14.112 9.936,-14.784 9.408,-15.648C8.544,-17.04 7.056,-17.856 5.28,-17.856C3.264,-17.856 1.776,-17.088 0,-15.168"
            style="fill:currentColor;fill-rule:nonzero;" />
        </g>
      </g>
    </g>
  </g>
  <g id="Capa11">
  </g>
</svg>
