<?xml version="1.0" encoding="UTF-8" standalone="no"?>
<!DOCTYPE svg PUBLIC "-//W3C//DTD SVG 1.1//EN" "http://www.w3.org/Graphics/SVG/1.1/DTD/svg11.dtd">
<svg width="100%" height="100%" viewBox="0 0 584 292" version="1.1" xmlns="http://www.w3.org/2000/svg"
  xmlns:xlink="http://www.w3.org/1999/xlink" xml:space="preserve" xmlns:serif="http://www.serif.com/"
  style="fill-rule:evenodd;clip-rule:evenodd;stroke-linejoin:round;stroke-miterlimit:2;">
  <g transform="matrix(1,0,0,1,292,146)">
    <g id="Capa6">
      <g transform="matrix(1,0,0,1,-173.05,-85.695)">
        <g id="Capa_2">
          <g id="Capa_1-2">
            <path
              d="M344.8,160.61C343.074,162.334 340.236,162.334 338.51,160.61C337.665,159.779 337.198,158.635 337.22,157.45C337.231,155.022 339.232,153.031 341.66,153.031C344.096,153.031 346.1,155.035 346.1,157.471C346.1,158.648 345.632,159.778 344.8,160.61M339,154.76C338.268,155.465 337.862,156.444 337.88,157.46C337.864,158.481 338.261,159.466 338.98,160.19C340.468,161.673 342.912,161.673 344.4,160.19C345.126,159.469 345.527,158.483 345.51,157.46C345.51,157.457 345.51,157.453 345.51,157.45C345.51,155.354 343.786,153.63 341.69,153.63C341.69,153.63 341.69,153.63 341.69,153.63C340.676,153.616 339.7,154.026 339,154.76M341.61,155C342.061,154.977 342.512,155.038 342.94,155.18C343.438,155.38 343.748,155.886 343.7,156.42C343.739,156.816 343.553,157.202 343.22,157.42C343.003,157.547 342.761,157.626 342.51,157.65C342.844,157.689 343.147,157.862 343.35,158.13C343.515,158.35 343.61,158.615 343.62,158.89L343.62,159.61C343.607,159.693 343.607,159.777 343.62,159.86L343.62,159.92L342.82,159.92C342.825,159.9 342.825,159.88 342.82,159.86L342.82,159.32C342.884,158.891 342.707,158.46 342.36,158.2C342.045,158.066 341.701,158.011 341.36,158.04L340.68,158.04L340.68,159.96L339.82,159.96L339.82,155L341.61,155ZM342.54,155.77C342.224,155.636 341.883,155.574 341.54,155.59L340.8,155.59L340.8,157.36L341.58,157.36C341.858,157.37 342.135,157.333 342.4,157.25C342.72,157.141 342.927,156.827 342.9,156.49C342.933,156.21 342.81,155.933 342.58,155.77"
              style="fill:currentColor;fill-rule:nonzero;" />
            <path
              d="M65.53,0.52L65.25,11L66.72,11L67.18,8C67.299,7.322 67.466,6.654 67.68,6C67.852,5.456 68.158,4.965 68.57,4.57C69.066,4.108 69.661,3.766 70.31,3.57C71.309,3.295 72.344,3.17 73.38,3.2L75.63,3.2L75.63,35.62L81,35.62L81,3.26L82.91,3.26C83.949,3.237 84.987,3.345 86,3.58C86.694,3.751 87.35,4.053 87.93,4.47C88.405,4.838 88.774,5.324 89,5.88C89.258,6.535 89.413,7.227 89.46,7.93L89.8,10.93L91.28,10.93L91,0.52L65.53,0.52Z"
              style="fill:currentColor;fill-rule:nonzero;" />
            <path
              d="M118.54,28.08L118.48,28.37C118.306,29.723 117.657,30.971 116.65,31.89C115.406,32.658 113.948,33.009 112.49,32.89L107.49,32.89C106.995,32.9 106.5,32.87 106.01,32.8C105.759,32.766 105.536,32.623 105.4,32.41C105.213,32.059 105.11,31.668 105.1,31.27C105.1,30.7 105.02,29.91 105.02,28.93L105.02,18.64L110,18.64C111.71,18.64 112.82,19 113.4,19.64C114.086,20.482 114.42,21.558 114.33,22.64L114.33,23L116.15,23L116.15,11.56L114.33,11.56L114.33,11.93C114.351,12.631 114.271,13.332 114.09,14.01C113.97,14.45 113.732,14.848 113.4,15.16C113.03,15.455 112.588,15.648 112.12,15.72C111.421,15.851 110.711,15.912 110,15.9L105.1,15.9L105.1,7.23C105.1,6.31 105.1,5.57 105.18,5.03C105.198,4.621 105.297,4.221 105.47,3.85C105.601,3.619 105.829,3.458 106.09,3.41C106.575,3.295 107.072,3.244 107.57,3.26L112.11,3.26C113.485,3.161 114.858,3.478 116.05,4.17C116.977,4.966 117.568,6.085 117.7,7.3L118.37,10.95L120,10.95L119.33,0.52L95.25,0.52L95.25,2.28L95.62,2.28C96.229,2.279 96.837,2.323 97.44,2.41C97.891,2.465 98.323,2.626 98.7,2.88C99.059,3.167 99.322,3.558 99.45,4C99.666,4.702 99.761,5.436 99.73,6.17L99.73,35.62L120.11,35.62L120.51,28.08L118.51,28.08L118.54,28.08Z"
              style="fill:currentColor;fill-rule:nonzero;" />
            <path
              d="M150.3,30C151.15,28.284 151.724,26.445 152,24.55C152.341,22.407 152.508,20.24 152.5,18.07C152.515,15.691 152.294,13.316 151.84,10.98C151.47,8.939 150.72,6.985 149.63,5.22C148.588,3.592 147.131,2.27 145.41,1.39C141.211,-0.462 136.419,-0.462 132.22,1.39C130.5,2.268 129.046,3.59 128.01,5.22C126.927,6.993 126.187,8.954 125.83,11C125.38,13.336 125.162,15.711 125.18,18.09C125.167,20.244 125.341,22.396 125.7,24.52C126.002,26.388 126.589,28.2 127.44,29.89C128.222,31.448 129.338,32.814 130.71,33.89C132.157,34.976 133.845,35.697 135.63,35.99C136.038,36.756 136.534,37.471 137.11,38.12C137.794,38.878 138.602,39.513 139.5,40C140.581,40.571 141.735,40.992 142.93,41.25C144.475,41.572 146.052,41.723 147.63,41.7C149.233,41.695 150.822,41.386 152.31,40.79L152.54,40.7L152.54,38.7L152,39C151.82,39.071 151.637,39.131 151.45,39.18C151.188,39.25 150.92,39.297 150.65,39.32L149.48,39.32C148.395,39.351 147.31,39.226 146.26,38.95C145.525,38.752 144.824,38.445 144.18,38.04C143.686,37.722 143.255,37.315 142.91,36.84C142.682,36.518 142.472,36.184 142.28,35.84C143.977,35.608 145.594,34.978 147,34C148.395,32.94 149.525,31.571 150.3,30ZM146.69,18C146.69,20 146.62,21.93 146.46,23.82C146.357,25.53 146,27.215 145.4,28.82C144.91,30.149 144.083,31.327 143,32.24C140.471,33.903 137.179,33.903 134.65,32.24C133.582,31.332 132.766,30.164 132.28,28.85C131.68,27.245 131.323,25.56 131.22,23.85C131.06,21.96 130.99,20.01 130.99,18.03C130.99,16.03 131.06,14.12 131.22,12.25C131.332,10.574 131.689,8.923 132.28,7.35C132.777,6.045 133.604,4.89 134.68,4C137.198,2.337 140.482,2.337 143,4C144.069,4.902 144.886,6.067 145.37,7.38C145.961,8.953 146.318,10.604 146.43,12.28C146.62,14.16 146.69,16.08 146.69,18.07L146.69,18Z"
              style="fill:currentColor;fill-rule:nonzero;" />
            <path
              d="M180.55,0.52L180.55,23.33C180.56,24.729 180.459,26.127 180.25,27.51C180.088,28.623 179.692,29.69 179.09,30.64C178.475,31.525 177.622,32.219 176.63,32.64C175.254,33.184 173.779,33.436 172.3,33.38C170.951,33.44 169.608,33.154 168.4,32.55C167.458,32.031 166.676,31.263 166.14,30.33C165.566,29.339 165.179,28.251 165,27.12C164.799,25.867 164.698,24.599 164.7,23.33L164.7,0.52L154.9,0.52L154.9,2.28L155.27,2.28C155.889,2.272 156.508,2.315 157.12,2.41C157.561,2.469 157.982,2.629 158.35,2.88C158.709,3.167 158.972,3.558 159.1,4C159.321,4.701 159.419,5.435 159.39,6.17L159.39,23.33C159.378,25.029 159.519,26.726 159.81,28.4C160.059,29.892 160.678,31.298 161.61,32.49C162.64,33.725 163.989,34.656 165.51,35.18C167.625,35.906 169.854,36.245 172.09,36.18C174.304,36.262 176.513,35.923 178.6,35.18C180.069,34.642 181.353,33.695 182.3,32.45C183.15,31.23 183.695,29.824 183.89,28.35C184.117,26.693 184.227,25.022 184.22,23.35L184.22,0.52L180.55,0.52Z"
              style="fill:currentColor;fill-rule:nonzero;" />
            <path
              d="M190.1,0.52L190.1,2.28L190.46,2.28C191.082,2.277 191.704,2.32 192.32,2.41C192.761,2.469 193.182,2.629 193.55,2.88C193.906,3.17 194.167,3.56 194.3,4C194.516,4.702 194.614,5.436 194.59,6.17L194.59,35.62L199.92,35.62L199.92,0.52L190.1,0.52Z"
              style="fill:currentColor;fill-rule:nonzero;" />
            <path
              d="M229.17,25.29L228.7,27.75C228.534,28.569 228.306,29.375 228.02,30.16C227.812,30.747 227.47,31.278 227.02,31.71C226.572,32.124 226.029,32.422 225.44,32.58C224.587,32.796 223.709,32.893 222.83,32.87L219.38,32.87C218.772,32.88 218.164,32.849 217.56,32.78C217.245,32.752 216.945,32.63 216.7,32.43C216.493,32.222 216.363,31.951 216.33,31.66C216.257,31.106 216.223,30.548 216.23,29.99L216.23,0.52L206.42,0.52L206.42,2.28L206.79,2.28C207.402,2.279 208.014,2.323 208.62,2.41C209.071,2.465 209.503,2.626 209.88,2.88C210.23,3.166 210.487,3.548 210.62,3.98C210.841,4.681 210.939,5.415 210.91,6.15L210.91,35.62L230.05,35.62L230.49,25.29L229.14,25.29L229.17,25.29Z"
              style="fill:currentColor;fill-rule:nonzero;" />
            <path
              d="M265.53,35.08C265.22,34.18 264.53,32.33 263.46,29.55C263.01,28.35 262.46,26.89 261.8,25.19C261.14,23.49 260.38,21.45 259.49,19.07C258.6,16.69 257.57,13.96 256.42,10.84C255.27,7.72 253.94,4.19 252.42,0.24L252.33,0L244.49,0L244.49,1.77L244.85,1.77C245.738,1.698 246.632,1.831 247.46,2.16C247.691,2.261 247.844,2.488 247.85,2.74C247.863,2.823 247.863,2.907 247.85,2.99C247.813,3.065 247.789,3.147 247.78,3.23C245.927,8.063 244.333,12.21 243,15.67C241.667,19.13 240.56,22.043 239.68,24.41C238.76,26.77 238.037,28.653 237.51,30.06L236.29,33.29C236.02,34.03 235.78,34.64 235.58,35.11L235.35,35.62L239.43,35.62L239.43,35.3C239.55,34.9 240.88,31.15 243.43,24.22L255.87,24.22C256.243,25.253 256.577,26.153 256.87,26.92C257.18,27.74 257.52,28.65 257.87,29.65C258.22,30.65 258.57,31.56 258.87,32.39L260,35.33L260.09,35.56L265.71,35.56L265.53,35.08ZM254.85,21.47L244.4,21.47L249.65,7.16L254.85,21.47Z"
              style="fill:currentColor;fill-rule:nonzero;" />
            <path
              d="M326.17,151.51L293.78,72.72L289.36,72.72L256.44,150.32C256.44,150.32 252.63,160.58 235.74,160.58L214,160.58L214,129.58C214,126.16 216.53,122.9 219.82,122.82L249.82,122.82L249.82,113.82L220.22,113.82C216.57,113.74 214.07,110.55 214.04,107.01L214.04,85.58C214.073,81.812 217.182,78.73 220.95,78.73L220.95,78.61L237.45,78.61C249.23,78.61 255.85,83.77 255.85,95.55L258.8,95.55L258.8,84.55C258.8,78.66 256.59,72.77 246.28,72.77L187.45,72.77L187.45,78.63L190.39,78.63C199.22,78.63 200.7,84.52 200.7,93.36L200.7,159C200.7,162.69 198,166.29 193.83,165.16C188.83,162.98 184.83,158.57 179.75,150.03L164.29,124.25C174.6,122.04 187.85,116.15 187.85,99.25C187.85,75.69 163.56,72.74 151.04,72.74L112.75,72.74L112.75,78.6L115.69,78.6C124.53,78.6 126,84.49 126,93.33L126,162.6C123.75,160.21 121.83,156.67 119.7,151.51L87.3,72.72L82.88,72.72L51.51,146.72L51.51,146.79C50.85,148.28 50.1,150.42 48.45,151.12C46.8,151.82 44.5,151.12 43.91,149.49L43.91,71.25C43.91,65.25 45.91,62.58 50.55,62.58L71.78,62.58L71.78,50L12.52,50C2.21,50 0,57.06 0,63L0,79.52L3,79.52C3,67.74 9.62,62.58 21.4,62.58L28.8,62.58L28.8,157.63C28.8,164.08 33.45,169.92 41.54,169.92C45.84,169.92 48.43,169.38 50.2,165.47L60.11,141.94L95.71,141.94C98.153,142.055 100.356,143.468 101.48,145.64L103.74,151.51C111.3,168.43 123.43,170.66 130.06,170.66C133.31,170.66 139.3,169.92 139.3,169.92L139.3,135.53C139.41,131.982 142.358,129.124 145.907,129.124C146.001,129.124 146.096,129.126 146.19,129.13L152.88,129.13L164.29,150C173.86,166.19 180.49,171.35 190.8,171.35C194.455,171.238 198.088,170.745 201.64,169.88L248.17,169.88C253.66,169.68 257,166.8 258.56,162.55L266.56,141.93L302.4,141.93C304.896,142.047 307.14,143.512 308.25,145.75L311.45,151.5C319.91,168.62 329.86,170.65 336.45,170.65C338.441,170.668 340.425,170.419 342.35,169.91L342.35,167C334.25,166.26 330.71,162.59 326.14,151.54M89.67,136L62.27,136L80.68,93.34L95.07,128.11C95.276,128.725 95.381,129.369 95.381,130.017C95.381,133.2 92.849,135.857 89.67,136.01M150.3,119.85C148.879,119.842 147.46,119.752 146.05,119.58L145.17,119.58C142.223,119.202 139.833,116.966 139.26,114.05L139.26,78.05L150.31,78.05C158.41,78.05 173.14,83.94 173.14,99.4C173.14,114.12 158.41,120.02 150.31,120.02M296.12,136L268.74,136L287.15,93.29L301.5,128C301.729,128.644 301.845,129.323 301.845,130.006C301.845,133.194 299.305,135.854 296.12,136"
              style="fill:currentColor;fill-rule:nonzero;" />
          </g>
        </g>
      </g>
    </g>
  </g>
</svg>
