<?xml version="1.0" encoding="UTF-8" standalone="no"?>
<!DOCTYPE svg PUBLIC "-//W3C//DTD SVG 1.1//EN" "http://www.w3.org/Graphics/SVG/1.1/DTD/svg11.dtd">
<svg width="100%" height="100%" viewBox="0 0 584 292" version="1.1" xmlns="http://www.w3.org/2000/svg"
  xmlns:xlink="http://www.w3.org/1999/xlink" xml:space="preserve" xmlns:serif="http://www.serif.com/"
  style="fill-rule:evenodd;clip-rule:evenodd;stroke-miterlimit:10;">
  <g transform="matrix(1.19788,0,0,1.19788,73.5892,28.5318)">
    <g id="Capa8">
      <g>
        <g transform="matrix(3.49135,0,0,3.35024,-2.98962,-24.0195)">
          <path
            d="M1.92,36.31C8.12,32.6 16.54,25.95 20.73,18.58L23.47,21.04C28.81,18.88 33.15,15.04 36.9,10.22C38.04,12.35 39.24,14.35 41.28,14.6C41.42,14.24 41.55,13.87 41.69,13.51C45.69,17.78 49.69,22.09 56.22,24.74C58.22,24.69 59.49,22.62 60.6,20.09L62.79,21.04C65.65,20.35 67.46,18.29 68.55,15.29C71.68,18.96 74.83,22.57 78.69,23.37L81.2,20.95C87.04,27.05 97.28,34.08 104.8,38.08C96.8,35.25 86.93,29.88 81.8,23.82L79.2,26.15C75.2,25.15 72.27,22.32 69.88,18.48C69.6,21.26 67.52,23.15 64.4,24.48L61.2,22.41C60.61,25.69 59.2,26.83 57.77,27.62C51.91,24.81 46.84,21.28 43.11,16.52C42.88,17.25 42.65,17.98 42.43,18.71C40.42,17.52 38.77,15.82 37.63,13.78C33.72,19.17 28.66,22.56 23.2,25.29C22.61,24.1 22.02,22.92 21.42,21.73C17.03,28.03 8.59,33.8 1.92,36.31Z"
            style="fill:currentColor;stroke:currentColor;stroke-width:1.17px;" />
        </g>
        <g transform="matrix(3.49135,0,0,3.35024,-2.98962,-24.0195)">
          <path
            d="M1.2,50.2L3.12,48.71C3.61,48.8 4.11,48.87 4.61,48.91C5.45,48.61 6.12,47.98 6.47,47.16C6.89,45.95 7.07,44.66 7.01,43.38L7.01,41.61C6.92,39.55 7.8,37.56 9.39,36.25C10.53,35.24 11.98,34.67 13.5,34.64C14.16,34.65 14.81,34.8 15.41,35.07L13.71,36.74C13.1,36.32 12.39,36.08 11.65,36.06C9.95,36.06 9.1,37.46 9.1,40.24L9.1,41.82C9.18,43.43 8.97,45.04 8.48,46.57C8,47.65 7.16,48.53 6.11,49.06L8.48,49.25L9.48,49.33L10.75,49.41L11.89,49.41C13.53,49.5 15.13,48.91 16.31,47.76C16.4,47.86 16.47,47.97 16.5,48.1C16.5,48.35 16.13,48.78 15.4,49.39C14.29,50.36 12.87,50.91 11.4,50.94C10.82,50.94 10.09,50.94 9.24,50.85L5.84,50.59C4.03,50.49 2.5,50.35 1.2,50.2Z"
            style="fill:currentColor;fill-rule:nonzero;" />
        </g>
        <g transform="matrix(3.49135,0,0,3.35024,-2.98962,-24.0195)">
          <path
            d="M24.68,45.95C23.91,47.25 22.95,48.43 21.83,49.44C21.12,50.2 20.17,50.68 19.14,50.8C18.09,50.8 17.57,49.95 17.57,48.27C17.54,46.05 18.36,43.91 19.86,42.27C21.19,40.66 23.18,39.73 25.27,39.73C25.95,39.71 26.62,39.81 27.27,40.02L27.2,40.27L27.06,40.88C26.97,41.3 26.92,41.54 26.91,41.61L26.2,46.64L26.1,47.37C26.02,47.85 25.97,48.34 25.95,48.83C25.95,49.15 26.04,49.32 26.23,49.32C26.87,49.32 27.52,48.6 28.23,47.18C28.44,47.3 28.54,47.42 28.54,47.54C28.34,48.15 28,48.71 27.54,49.16C26.99,50.05 26.08,50.65 25.05,50.81C24.49,50.81 24.21,50.43 24.21,49.69C24.21,49.36 24.24,49.02 24.29,48.69L24.41,47.78L24.56,46.78L24.68,45.95ZM25.33,41.41C24.68,41.04 23.95,40.85 23.2,40.84C21.99,40.93 20.94,41.71 20.51,42.84C19.74,44.34 19.36,46.01 19.42,47.69C19.42,48.69 19.71,49.18 20.3,49.18C21.29,49 22.18,48.44 22.77,47.62C24.07,46.26 24.92,44.53 25.2,42.66L25.33,41.41Z"
            style="fill:currentColor;fill-rule:nonzero;" />
        </g>
        <g transform="matrix(3.49135,0,0,3.35024,-2.98962,-24.0195)">
          <path
            d="M46.07,49.72L46.28,49.93C50.11,53.49 53.35,55.27 56,55.28C56.54,55.3 57.07,55.11 57.48,54.75C57.86,54.42 58.08,53.93 58.07,53.42C58.07,53.15 57.99,52.89 57.87,52.65L59.87,51.55C59.92,51.72 59.94,51.9 59.95,52.08C59.92,53.18 59.37,54.21 58.48,54.85C57.53,55.64 56.33,56.06 55.1,56.05C53.24,55.95 51.43,55.44 49.79,54.55C47.68,53.51 45.73,52.18 43.99,50.61C43.2,50.84 42.39,50.96 41.57,50.97C40.15,50.99 38.81,50.32 37.96,49.19C36.98,47.88 36.48,46.28 36.54,44.65C36.51,42.05 37.49,39.54 39.28,37.65C40.88,35.75 43.24,34.66 45.72,34.65C47.17,34.61 48.56,35.25 49.46,36.39C50.45,37.7 50.96,39.31 50.89,40.95C50.99,44.53 49.14,47.88 46.07,49.72ZM45.6,49.23C47.67,47.79 48.71,45.41 48.71,42.07C48.77,40.43 48.33,38.81 47.46,37.42C46.82,36.29 45.63,35.59 44.33,35.56C42.7,35.58 41.19,36.44 40.33,37.83C39.21,39.5 38.65,41.49 38.73,43.5C38.64,45.15 39.06,46.78 39.94,48.18C40.72,49.3 41.99,49.99 43.36,50.03L44.93,48.42L45.12,48.63L45.44,49.05C45.5,49.1 45.55,49.16 45.6,49.23Z"
            style="fill:currentColor;fill-rule:nonzero;" />
        </g>
        <g transform="matrix(3.49135,0,0,3.35024,-2.98962,-24.0195)">
          <path
            d="M60.67,46.01C59.85,47.28 58.86,48.42 57.72,49.41C57.01,50.15 56.07,50.65 55.05,50.81C54.29,50.81 53.91,50.3 53.91,49.3C53.93,48.68 53.98,48.07 54.06,47.46L54.47,43.7C54.47,43.7 54.47,43.43 54.53,43.04L54.6,42.29L54.6,41.7C54.6,41.26 54.47,41.04 54.22,41.04C53.64,41.04 53.02,41.68 52.35,42.98C52.22,42.9 52.14,42.77 52.13,42.62C52.13,42.14 52.55,41.51 53.39,40.73C53.9,40.12 54.61,39.71 55.39,39.55C56.02,39.55 56.34,39.98 56.34,40.85C56.35,41.09 56.35,41.33 56.34,41.57L56.24,42.46L56.14,43.46L55.78,46.73C55.72,47.29 55.69,47.86 55.69,48.43C55.69,48.96 55.88,49.22 56.27,49.22C57.13,49.22 58.1,48.51 59.19,47.09C60.18,45.87 60.85,44.42 61.11,42.87L61.51,40.16L63.37,39.53C63.17,40.31 63.01,41.1 62.89,41.9L62.2,46.64C62.2,46.93 62.14,47.17 62.11,47.37L62.03,48C62.03,48.39 61.96,48.67 61.96,48.83C61.96,49.15 62.05,49.32 62.24,49.32C62.89,49.32 63.55,48.6 64.24,47.18C64.45,47.3 64.55,47.42 64.55,47.54C64.36,48.16 64.01,48.71 63.55,49.16C63,50.05 62.09,50.65 61.06,50.81C60.51,50.81 60.23,50.43 60.23,49.69C60.23,49.36 60.26,49.02 60.31,48.69L60.44,47.78C60.51,47.28 60.55,46.95 60.58,46.78L60.67,46.01Z"
            style="fill:currentColor;fill-rule:nonzero;" />
        </g>
        <g transform="matrix(3.49135,0,0,3.35024,-2.98962,-24.0195)">
          <path
            d="M71.07,47.18C71.28,47.3 71.38,47.42 71.38,47.53C71.19,48.15 70.85,48.71 70.38,49.16C69.83,50.05 68.93,50.65 67.9,50.81C67.34,50.81 67.06,50.44 67.06,49.7C67.06,49.39 67.18,48.42 67.41,46.81L67.85,43.7L67.97,42.91L68.06,42.28C68.1,42.06 68.12,41.83 68.12,41.61C68.12,41.23 68.01,41.04 67.8,41.04C67.2,41.04 66.57,41.69 65.88,42.99C65.76,42.9 65.68,42.76 65.66,42.61C65.66,42.14 66.09,41.51 66.95,40.73C67.48,40.12 68.21,39.7 69.01,39.55C69.58,39.55 69.87,39.94 69.87,40.74C69.87,40.89 69.84,41.2 69.78,41.67L69.67,42.44C69.67,42.5 69.67,42.81 69.55,43.37L69.08,46.64L68.96,47.37C68.88,47.85 68.84,48.34 68.82,48.83C68.82,49.15 68.91,49.32 69.1,49.32C69.74,49.32 70.4,48.6 71.07,47.18Z"
            style="fill:currentColor;fill-rule:nonzero;" />
        </g>
        <g transform="matrix(3.49135,0,0,3.35024,-2.98962,-24.0195)">
          <path
            d="M75.56,50.11L73.85,50.81L73.85,50.49L73.94,49.64L74.03,48.84L74.63,43.52L74.7,42.91C74.74,42.53 74.77,42.15 74.77,41.77C74.77,41.28 74.65,41.04 74.4,41.04C73.83,41.04 73.21,41.68 72.55,42.98C72.38,42.84 72.29,42.71 72.29,42.61C72.29,42.15 72.71,41.52 73.55,40.73C74.06,40.12 74.77,39.7 75.55,39.55C76.22,39.55 76.55,39.97 76.55,40.81C76.55,41.1 76.52,41.38 76.49,41.67L76.4,42.59L76.31,43.37L76.21,44.19C77.04,42.94 78.05,41.81 79.21,40.86C79.95,40.13 80.92,39.67 81.95,39.55C82.69,39.55 83.06,40.06 83.06,41.09C83.05,41.56 83.01,42.03 82.94,42.5L82.32,46.77C82.21,47.43 82.15,48.1 82.13,48.77C82.13,49.17 82.23,49.37 82.45,49.37C82.98,49.37 83.65,48.67 84.45,47.27C84.63,47.39 84.73,47.5 84.73,47.63C84.73,48.12 84.3,48.77 83.45,49.58C82.92,50.21 82.18,50.64 81.37,50.79C80.77,50.79 80.47,50.36 80.47,49.5C80.49,48.63 80.57,47.76 80.71,46.9L81.12,44.13C81.19,43.43 81.22,42.72 81.2,42.01C81.2,41.41 80.99,41.1 80.57,41.1C79.57,41.1 78.57,41.77 77.57,43.1C76.61,44.34 76,45.81 75.81,47.37L75.56,50.11Z"
            style="fill:currentColor;fill-rule:nonzero;" />
        </g>
        <g transform="matrix(3.49135,0,0,3.35024,-2.98962,-24.0195)">
          <path
            d="M89.29,41.17L88.74,46.24C88.64,47.15 88.59,47.82 88.59,48.24C88.59,49.11 88.88,49.54 89.47,49.54C90.06,49.54 90.75,49.02 91.47,47.98C91.57,48.09 91.63,48.22 91.64,48.37C91.64,48.8 91.26,49.31 90.51,49.9C89.98,50.4 89.3,50.72 88.57,50.8C87.49,50.8 86.94,50.1 86.94,48.71C86.94,48.2 87.01,47.37 87.14,46.23L87.69,41.16L85.2,41.16L86.54,39.83L87.8,39.83L88.04,37.75L89.73,37.19L89.45,39.83L94.3,39.83L92.96,41.16L89.29,41.16L89.29,41.17Z"
            style="fill:currentColor;fill-rule:nonzero;" />
        </g>
        <g transform="matrix(3.49135,0,0,3.35024,-2.98962,-24.0195)">
          <path
            d="M100.95,45.95C100.19,47.25 99.23,48.43 98.11,49.44C97.4,50.2 96.44,50.68 95.41,50.8C94.41,50.8 93.85,49.95 93.85,48.27C93.82,46.05 94.64,43.91 96.13,42.27C97.47,40.65 99.45,39.72 101.55,39.73C102.23,39.71 102.9,39.81 103.55,40.02C103.53,40.1 103.51,40.19 103.48,40.27L103.35,40.88C103.26,41.3 103.21,41.54 103.2,41.61L102.47,46.67L102.36,47.4C102.28,47.88 102.23,48.37 102.21,48.86C102.21,49.18 102.31,49.35 102.5,49.35C103.14,49.35 103.79,48.63 104.5,47.21C104.71,47.33 104.81,47.45 104.81,47.57C104.62,48.18 104.27,48.74 103.81,49.19C103.26,50.08 102.36,50.68 101.33,50.84C100.77,50.84 100.49,50.46 100.49,49.72C100.49,49.39 100.52,49.05 100.57,48.72L100.69,47.81L100.84,46.81L100.95,45.95ZM101.61,41.41C100.97,41.04 100.24,40.84 99.5,40.83C98.29,40.92 97.24,41.7 96.8,42.83C96.03,44.33 95.66,46 95.71,47.68C95.71,48.68 96.01,49.17 96.6,49.17C97.59,48.99 98.47,48.43 99.06,47.61C100.34,46.25 101.16,44.53 101.42,42.69L101.61,41.41Z"
            style="fill:currentColor;fill-rule:nonzero;" />
        </g>
        <g transform="matrix(3.49135,0,0,3.35024,-2.98962,-24.0195)">
          <path
            d="M36.09,58.86C36.09,59.08 36.06,59.3 35.98,59.5C35.92,59.67 35.82,59.83 35.69,59.96C35.58,60.08 35.44,60.18 35.28,60.24C35.12,60.3 34.95,60.33 34.78,60.33L34.09,60.33L34.09,62.51L33.45,62.51L33.45,57.43L34.74,57.43C34.9,57.43 35.06,57.45 35.21,57.5C35.37,57.54 35.52,57.62 35.64,57.73C35.78,57.85 35.89,58 35.96,58.17C36.06,58.39 36.1,58.62 36.09,58.86ZM35.44,58.86C35.46,58.62 35.38,58.38 35.23,58.19C35.08,58.05 34.88,57.97 34.67,57.98L34.09,57.98L34.09,59.8L34.67,59.8C34.88,59.8 35.09,59.72 35.23,59.56C35.39,59.36 35.46,59.11 35.44,58.86Z"
            style="fill:currentColor;fill-rule:nonzero;" />
        </g>
        <g transform="matrix(3.49135,0,0,3.35024,-2.98962,-24.0195)">
          <path d="M36.86,62.51L36.86,57.43L37.5,57.43L37.5,61.91L38.94,61.91L38.94,62.51L36.86,62.51Z"
            style="fill:currentColor;fill-rule:nonzero;" />
        </g>
        <g transform="matrix(3.49135,0,0,3.35024,-2.98962,-24.0195)">
          <path
            d="M42.23,61.49C42.18,61.7 42.1,61.9 41.98,62.08C41.86,62.25 41.7,62.39 41.51,62.48C41.29,62.59 41.04,62.64 40.79,62.63C40.54,62.63 40.3,62.59 40.08,62.48C39.9,62.39 39.74,62.25 39.62,62.08C39.5,61.9 39.41,61.7 39.37,61.49C39.32,61.25 39.29,61.01 39.29,60.77L39.29,57.43L39.94,57.43L39.94,60.7C39.92,60.87 39.92,61.03 39.94,61.2C39.96,61.35 40,61.49 40.07,61.63C40.14,61.75 40.23,61.85 40.34,61.92C40.47,62.01 40.62,62.05 40.77,62.04C40.92,62.04 41.07,62 41.19,61.92C41.3,61.85 41.39,61.75 41.45,61.63C41.52,61.49 41.57,61.35 41.59,61.2C41.6,61.03 41.6,60.87 41.59,60.7L41.59,57.43L42.32,57.43L42.32,60.77C42.32,61.01 42.29,61.25 42.23,61.49Z"
            style="fill:currentColor;fill-rule:nonzero;" />
        </g>
        <g transform="matrix(3.49135,0,0,3.35024,-2.98962,-24.0195)">
          <path
            d="M46.83,62.51L46.83,58.3L45.7,62.51L45.12,62.51L44,58.3L44,62.51L43.32,62.51L43.32,57.43L44.32,57.43L45.41,61.43L46.48,57.43L47.48,57.43L47.48,62.51L46.83,62.51Z"
            style="fill:currentColor;fill-rule:nonzero;" />
        </g>
        <g transform="matrix(3.49135,0,0,3.35024,-2.98962,-24.0195)">
          <path
            d="M50.47,59.84C50.57,59.87 50.67,59.9 50.76,59.95C50.87,60.01 50.97,60.09 51.05,60.19C51.14,60.3 51.21,60.43 51.26,60.57C51.32,60.74 51.35,60.93 51.35,61.11C51.35,61.34 51.31,61.56 51.22,61.77C51.14,61.93 51.03,62.08 50.89,62.2C50.76,62.31 50.6,62.39 50.44,62.44C50.29,62.49 50.13,62.51 49.97,62.51L48.59,62.51L48.59,57.43L49.81,57.43C49.96,57.42 50.12,57.42 50.27,57.43C50.43,57.47 50.58,57.53 50.71,57.63C50.85,57.73 50.96,57.87 51.04,58.02C51.13,58.21 51.18,58.42 51.17,58.63C51.17,58.78 51.15,58.93 51.11,59.07C51.07,59.19 51.02,59.3 50.96,59.4C50.9,59.49 50.82,59.57 50.73,59.63C50.65,59.69 50.56,59.74 50.47,59.77L50.47,59.84ZM50.57,58.78C50.57,58.65 50.54,58.51 50.49,58.39C50.45,58.31 50.39,58.25 50.32,58.19C50.24,58.13 50.15,58.08 50.06,58.06C49.96,58.04 49.85,58.04 49.75,58.06L49.21,58.06L49.21,59.7L49.77,59.7C49.87,59.7 49.97,59.68 50.06,59.65C50.15,59.62 50.24,59.57 50.32,59.51C50.4,59.44 50.46,59.35 50.5,59.25C50.57,59.1 50.59,58.94 50.57,58.78ZM50.7,61.07C50.7,60.92 50.68,60.77 50.62,60.63C50.57,60.52 50.5,60.41 50.41,60.33C50.32,60.26 50.22,60.22 50.12,60.19C50.01,60.18 49.91,60.18 49.8,60.19L49.2,60.19L49.2,62.04L49.83,62.04C49.95,62.04 50.06,62.02 50.17,61.99C50.28,61.96 50.37,61.9 50.45,61.82C50.53,61.75 50.59,61.65 50.63,61.55C50.69,61.4 50.72,61.23 50.7,61.07Z"
            style="fill:currentColor;fill-rule:nonzero;" />
        </g>
        <g transform="matrix(3.49135,0,0,3.35024,-2.98962,-24.0195)">
          <rect x="52.18" y="57.43" width="0.65" height="5.08" style="fill:currentColor;fill-rule:nonzero;" />
        </g>
        <g transform="matrix(3.49135,0,0,3.35024,-2.98962,-24.0195)">
          <path
            d="M56.19,62.51L54.56,58.57L54.56,62.51L53.97,62.51L53.97,57.43L54.74,57.43L56.32,61.37L56.32,57.43L56.92,57.43L56.92,62.51L56.19,62.51Z"
            style="fill:currentColor;fill-rule:nonzero;" />
        </g>
        <g transform="matrix(3.49135,0,0,3.35024,-2.98962,-24.0195)">
          <path
            d="M59.63,57.31C59.88,57.31 60.13,57.36 60.36,57.46C60.57,57.56 60.75,57.72 60.88,57.92L60.48,58.35C60.38,58.21 60.26,58.1 60.11,58.01C59.97,57.93 59.82,57.89 59.66,57.89C59.48,57.89 59.3,57.95 59.15,58.06C59,58.18 58.88,58.33 58.8,58.51C58.69,58.72 58.62,58.94 58.59,59.17C58.54,59.43 58.52,59.69 58.52,59.96C58.52,60.23 58.54,60.51 58.59,60.78C58.63,61.01 58.71,61.23 58.82,61.43C58.9,61.6 59.03,61.75 59.19,61.86C59.34,61.97 59.52,62.03 59.71,62.02C59.93,62.03 60.14,61.97 60.32,61.85L60.32,60.28L59.65,60.28L59.65,59.72L60.94,59.72L60.94,62.19C60.79,62.32 60.61,62.43 60.42,62.49C60.19,62.57 59.94,62.61 59.7,62.6C59.42,62.6 59.15,62.54 58.91,62.41C58.68,62.28 58.48,62.1 58.33,61.88C58.16,61.63 58.04,61.35 57.96,61.05C57.88,60.69 57.84,60.33 57.84,59.96C57.84,59.6 57.88,59.25 57.96,58.9C58.03,58.6 58.15,58.32 58.31,58.06C58.45,57.84 58.64,57.65 58.87,57.51C59.1,57.37 59.36,57.3 59.63,57.31Z"
            style="fill:currentColor;fill-rule:nonzero;" />
        </g>
        <g transform="matrix(3.49135,0,0,3.35024,-2.98962,-24.0195)">
          <path
            d="M65.6,61.19C65.6,61.4 65.57,61.61 65.5,61.81C65.43,61.98 65.33,62.14 65.2,62.27C65.08,62.4 64.93,62.5 64.77,62.56C64.6,62.63 64.41,62.66 64.23,62.66C63.98,62.66 63.73,62.61 63.5,62.5C63.28,62.4 63.09,62.26 62.94,62.07L63.32,61.61C63.43,61.75 63.57,61.86 63.73,61.94C63.88,62.02 64.06,62.06 64.23,62.07C64.43,62.07 64.62,61.99 64.76,61.85C64.91,61.68 64.99,61.46 64.97,61.23C64.97,61.11 64.95,60.99 64.91,60.88C64.86,60.79 64.8,60.7 64.73,60.62C64.65,60.54 64.56,60.47 64.47,60.4L64.15,60.19C64.01,60.12 63.88,60.05 63.75,59.96C63.63,59.88 63.52,59.78 63.43,59.67C63.33,59.55 63.25,59.42 63.2,59.28C63.15,59.11 63.12,58.93 63.12,58.75C63.12,58.53 63.15,58.31 63.23,58.11C63.3,57.94 63.41,57.79 63.54,57.66C63.66,57.54 63.81,57.45 63.97,57.39C64.13,57.33 64.3,57.31 64.47,57.31C64.7,57.31 64.92,57.35 65.13,57.43C65.32,57.51 65.48,57.63 65.61,57.79L65.22,58.25C64.99,57.94 64.59,57.81 64.22,57.94C64.13,57.97 64.05,58.02 63.98,58.09C63.91,58.16 63.85,58.25 63.81,58.35C63.76,58.47 63.74,58.6 63.74,58.73C63.74,58.85 63.76,58.96 63.8,59.07C63.85,59.16 63.9,59.24 63.97,59.32C64.04,59.39 64.12,59.46 64.21,59.52L64.5,59.69L64.9,59.91C65.03,60 65.15,60.1 65.25,60.21C65.36,60.33 65.45,60.47 65.51,60.62C65.58,60.8 65.61,61 65.6,61.19Z"
            style="fill:currentColor;fill-rule:nonzero;" />
        </g>
        <g transform="matrix(3.49135,0,0,3.35024,-2.98962,-24.0195)">
          <path
            d="M69.72,59.96C69.72,60.33 69.68,60.69 69.6,61.05C69.54,61.35 69.42,61.63 69.26,61.89C69.12,62.12 68.94,62.3 68.71,62.44C68.49,62.57 68.24,62.64 67.99,62.63C67.73,62.63 67.47,62.57 67.25,62.44C67.03,62.3 66.84,62.11 66.7,61.89C66.54,61.63 66.42,61.35 66.36,61.05C66.2,60.33 66.2,59.59 66.36,58.87C66.43,58.57 66.54,58.29 66.69,58.03C66.83,57.81 67.02,57.63 67.24,57.5C67.47,57.37 67.73,57.3 67.99,57.31C68.24,57.31 68.49,57.37 68.71,57.5C68.93,57.63 69.12,57.81 69.26,58.03C69.42,58.29 69.53,58.57 69.6,58.87C69.68,59.23 69.72,59.59 69.72,59.96ZM69.04,59.96C69.04,59.69 69.02,59.42 68.97,59.15C68.93,58.92 68.87,58.7 68.77,58.49C68.69,58.32 68.58,58.17 68.44,58.05C68.31,57.94 68.15,57.89 67.99,57.89C67.82,57.89 67.65,57.94 67.52,58.05C67.37,58.17 67.26,58.32 67.19,58.49C67.09,58.7 67.03,58.92 66.99,59.15C66.9,59.69 66.9,60.23 66.99,60.77C67.02,61 67.09,61.22 67.19,61.43C67.26,61.6 67.37,61.76 67.52,61.87C67.65,61.98 67.82,62.04 67.99,62.04C68.16,62.04 68.32,61.98 68.44,61.87C68.58,61.75 68.7,61.6 68.77,61.43C68.87,61.22 68.94,61 68.97,60.77C69.02,60.5 69.04,60.23 69.04,59.96Z"
            style="fill:currentColor;fill-rule:nonzero;" />
        </g>
        <g transform="matrix(3.49135,0,0,3.35024,-2.98962,-24.0195)">
          <path d="M70.62,62.51L70.62,57.43L71.32,57.43L71.32,61.91L72.75,61.91L72.75,62.51L70.62,62.51Z"
            style="fill:currentColor;fill-rule:nonzero;" />
        </g>
        <g transform="matrix(3.49135,0,0,3.35024,-2.98962,-24.0195)">
          <path
            d="M75.99,61.49C75.95,61.7 75.86,61.9 75.74,62.08C75.62,62.25 75.46,62.39 75.27,62.48C75.05,62.59 74.8,62.64 74.55,62.63C74.31,62.63 74.07,62.59 73.85,62.48C73.66,62.39 73.5,62.25 73.38,62.08C73.26,61.9 73.17,61.7 73.13,61.49C73.08,61.25 73.05,61.01 73.05,60.77L73.05,57.43L73.7,57.43L73.7,60.7C73.68,60.87 73.68,61.03 73.7,61.2C73.72,61.35 73.76,61.49 73.83,61.63C73.9,61.75 73.99,61.85 74.1,61.92C74.23,62.01 74.38,62.05 74.53,62.04C74.68,62.04 74.83,62 74.95,61.92C75.06,61.85 75.15,61.75 75.21,61.63C75.28,61.49 75.33,61.35 75.35,61.2C75.36,61.03 75.36,60.87 75.35,60.7L75.35,57.43L75.99,57.43L75.99,60.77C76.02,61.01 76.02,61.25 75.99,61.49Z"
            style="fill:currentColor;fill-rule:nonzero;" />
        </g>
        <g transform="matrix(3.49135,0,0,3.35024,-2.98962,-24.0195)">
          <path
            d="M78.18,57.98L78.18,62.51L77.53,62.51L77.53,57.98L76.53,57.98L76.53,57.43L79.12,57.43L79.12,57.98L78.18,57.98Z"
            style="fill:currentColor;fill-rule:nonzero;" />
        </g>
        <g transform="matrix(3.49135,0,0,3.35024,-2.98962,-24.0195)">
          <rect x="79.7" y="57.43" width="0.62" height="5.08" style="fill:currentColor;fill-rule:nonzero;" />
        </g>
        <g transform="matrix(3.49135,0,0,3.35024,-2.98962,-24.0195)">
          <path
            d="M84.72,59.96C84.72,60.33 84.68,60.69 84.6,61.05C84.54,61.35 84.42,61.63 84.26,61.89C84.12,62.12 83.94,62.3 83.71,62.44C83.49,62.57 83.24,62.64 82.99,62.63C82.73,62.63 82.47,62.57 82.25,62.44C82.03,62.3 81.84,62.11 81.7,61.89C81.54,61.63 81.42,61.35 81.36,61.05C81.2,60.33 81.2,59.59 81.36,58.87C81.43,58.57 81.54,58.29 81.69,58.03C81.83,57.81 82.02,57.63 82.24,57.5C82.47,57.37 82.73,57.3 82.99,57.31C83.24,57.31 83.49,57.37 83.71,57.5C83.93,57.63 84.12,57.81 84.26,58.03C84.42,58.29 84.53,58.57 84.6,58.87C84.68,59.23 84.72,59.59 84.72,59.96ZM84.04,59.96C84.04,59.69 84.02,59.42 83.97,59.15C83.93,58.92 83.87,58.7 83.77,58.49C83.69,58.32 83.58,58.17 83.44,58.05C83.31,57.94 83.15,57.89 82.99,57.89C82.82,57.89 82.65,57.94 82.52,58.05C82.37,58.17 82.26,58.32 82.18,58.49C82.09,58.7 82.03,58.92 81.99,59.15C81.9,59.69 81.9,60.23 81.99,60.77C82.02,61 82.09,61.22 82.18,61.43C82.25,61.6 82.37,61.75 82.52,61.87C82.65,61.98 82.82,62.04 82.99,62.04C83.16,62.04 83.32,61.98 83.44,61.87C83.58,61.75 83.7,61.6 83.77,61.43C83.87,61.22 83.94,61 83.97,60.77C84.02,60.5 84.04,60.23 84.04,59.96Z"
            style="fill:currentColor;fill-rule:nonzero;" />
        </g>
        <g transform="matrix(3.49135,0,0,3.35024,-2.98962,-24.0195)">
          <path
            d="M87.86,62.51L86.24,58.57L86.24,62.51L85.62,62.51L85.62,57.43L86.39,57.43L87.99,61.37L87.99,57.43L88.58,57.43L88.58,62.51L87.86,62.51Z"
            style="fill:currentColor;fill-rule:nonzero;" />
        </g>
        <g transform="matrix(3.49135,0,0,3.35024,-2.98962,-24.0195)">
          <path
            d="M92.03,61.19C92.03,61.4 91.99,61.61 91.92,61.81C91.8,62.15 91.53,62.42 91.2,62.56C91.03,62.63 90.84,62.66 90.66,62.66C90.4,62.66 90.15,62.61 89.92,62.5C89.7,62.41 89.51,62.26 89.37,62.07L89.75,61.61C89.86,61.75 90,61.86 90.16,61.94C90.31,62.02 90.49,62.07 90.66,62.07C90.86,62.07 91.05,61.99 91.19,61.85C91.34,61.68 91.42,61.46 91.4,61.23C91.4,61.11 91.38,60.99 91.33,60.88C91.29,60.78 91.23,60.69 91.15,60.62C91.07,60.54 90.99,60.46 90.89,60.4L90.57,60.22C90.43,60.16 90.3,60.08 90.18,59.99C90.06,59.91 89.95,59.81 89.85,59.7C89.75,59.58 89.68,59.45 89.63,59.31C89.57,59.14 89.54,58.96 89.55,58.78C89.55,58.56 89.58,58.34 89.66,58.14C89.73,57.97 89.84,57.82 89.97,57.69C90.09,57.57 90.24,57.48 90.4,57.42C90.56,57.36 90.72,57.34 90.89,57.34C91.12,57.34 91.34,57.38 91.55,57.46C91.74,57.54 91.91,57.66 92.04,57.82L91.65,58.28C91.48,58.05 91.21,57.91 90.92,57.92C90.83,57.9 90.74,57.9 90.65,57.92C90.56,57.95 90.48,58 90.41,58.07C90.33,58.14 90.27,58.23 90.23,58.33C90.19,58.45 90.17,58.58 90.17,58.71C90.17,58.83 90.19,58.94 90.23,59.05C90.27,59.14 90.33,59.23 90.4,59.3C90.47,59.37 90.55,59.44 90.64,59.5C90.73,59.56 90.83,59.62 90.93,59.67L91.33,59.89C91.45,59.98 91.57,60.08 91.68,60.19C91.79,60.31 91.87,60.45 91.93,60.6C92.01,60.79 92.04,60.99 92.03,61.19Z"
            style="fill:currentColor;fill-rule:nonzero;" />
        </g>
        <g transform="matrix(3.49135,0,0,3.35024,-2.98962,-24.0195)">
          <path
            d="M67.25,33.64C67.25,33.64 64.96,37.28 67.67,38.64C67.67,38.64 70.11,39.56 71.16,37.64C71.65,36.56 71.6,35.31 71.03,34.27C70.3,33.02 69.63,31.72 69.03,30.4C69.03,30.4 67.67,33.09 67.25,33.64Z"
            style="fill:rgb(80,182,223);fill-rule:nonzero;" />
        </g>
        <g transform="matrix(3.49135,0,0,3.35024,-2.98962,-24.0195)">
          <rect x="95.51" y="57.42" width="0.62" height="5.2" style="fill:currentColor;fill-rule:nonzero;" />
        </g>
        <g transform="matrix(3.49135,0,0,3.35024,-2.98962,-24.0195)">
          <path
            d="M99.75,62.62L98.13,58.59L98.13,62.62L97.51,62.62L97.51,57.42L98.28,57.42L99.88,61.45L99.88,57.42L100.47,57.42L100.47,62.62L99.75,62.62Z"
            style="fill:currentColor;fill-rule:nonzero;" />
        </g>
        <g transform="matrix(3.49135,0,0,3.35024,-2.98962,-24.0195)">
          <path
            d="M104.77,57.68L104.56,58.27C104.36,58.11 104.03,58.03 103.6,58.03C103.19,58.03 102.86,58.22 102.61,58.6C102.36,58.98 102.24,59.47 102.24,60.08C102.24,60.69 102.37,61.12 102.62,61.48C102.87,61.84 103.2,62.02 103.6,62.02C104.04,62.02 104.37,61.85 104.61,61.52L104.96,62.05C104.59,62.45 104.11,62.65 103.53,62.65C102.95,62.65 102.44,62.41 102.09,61.93C101.74,61.45 101.56,60.83 101.56,60.05C101.56,59.27 101.75,58.67 102.12,58.17C102.49,57.67 102.98,57.42 103.57,57.42C104.08,57.42 104.48,57.51 104.76,57.69L104.77,57.68Z"
            style="fill-rule:nonzero;" />
        </g>
        <g transform="matrix(3.49135,0,0,3.35024,-2.98962,-24.0195)">
          <rect x="74.53" y="34.65" width="0.91" height="0.91" style="fill:none;" />
        </g>
      </g>
    </g>
  </g>
</svg>
