<?xml version="1.0" encoding="UTF-8" standalone="no"?>
<!DOCTYPE svg PUBLIC "-//W3C//DTD SVG 1.1//EN" "http://www.w3.org/Graphics/SVG/1.1/DTD/svg11.dtd">
<svg width="100%" height="100%" viewBox="0 0 584 292" version="1.1" xmlns="http://www.w3.org/2000/svg"
  xmlns:xlink="http://www.w3.org/1999/xlink" xml:space="preserve" xmlns:serif="http://www.serif.com/"
  style="fill-rule:evenodd;clip-rule:evenodd;stroke-linejoin:round;stroke-miterlimit:2;">
  <g id="Capa12">
  </g>
  <g id="Capa_1-2" transform="matrix(2.24354,0,0,2.24354,104.182,85.4365)">
    <g id="Capa13">
      <g id="Capa_1-21" serif:id="Capa_1-2">
        <path
          d="M44.7,10C43.69,-0.42 50.12,-0.68 55.85,0.6C59.26,1.35 62.41,2.06 64.07,0L65.48,0C62.33,4 59.91,3.83 56.55,3.05L53.11,19.58L49.52,19.58L53.14,2.47C50.77,2.21 49.08,2.24 48.04,3.28C47.15,4.09 47.38,6.22 48.24,8.28L44.7,10Z"
          style="fill:currentColor;fill-rule:nonzero;" />
        <path
          d="M68.81,15.1C66.81,18.85 64.65,19.81 61.68,19.74C56.76,19.58 56.68,13.36 59.1,9.5C61.08,6.43 64.46,5.78 66,7C67.33,8.07 67.35,10.05 66.57,11.58C65.437,13.558 63.239,14.693 60.97,14.47C60.895,15.765 61.512,17.007 62.59,17.73C64.59,18.66 66.7,17.1 67.93,15.07L68.81,15.1ZM61,13.28C65.12,13.41 65.58,8.46 64.93,7.94C64.28,7.42 63.27,8.04 62.33,9.53C61.665,10.589 61.213,11.768 61,13L61,13.28Z"
          style="fill:currentColor;fill-rule:nonzero;" />
        <path
          d="M80.4,6.56L76.4,26.09L72.85,26.09L74.28,19.16C71.96,20.26 68.81,19.74 68.08,16.92C67.71,15.306 67.793,13.62 68.32,12.05C69.46,8.41 73.08,4.58 76.67,7.42L76.86,6.56L80.4,6.56ZM76.4,8.62C73.4,6.12 71.92,11.12 71.64,13.67C71.435,14.715 71.532,15.798 71.92,16.79C72.152,17.53 72.843,18.037 73.618,18.037C73.992,18.037 74.357,17.919 74.66,17.7L76.4,8.62Z"
          style="fill:currentColor;fill-rule:nonzero;" />
        <path
          d="M94.9,15.07C93.24,19.81 87.71,21.56 87.09,17.42C84.33,20.83 79.54,20.91 80.63,14.92L82.3,6.56L85.84,6.56C85.03,10.8 84.38,13.9 83.84,16.79C83.3,19.68 85.84,17.94 87.02,15.79C87.02,15.53 87.12,15.24 88.76,6.57L92.25,6.57C91.47,10.81 90.9,13.78 90.35,16.8C89.8,19.82 93.06,17.56 93.86,15.08L94.9,15.07Z"
          style="fill:currentColor;fill-rule:nonzero;" />
        <path
          d="M101.78,15C99.72,20.62 91.85,22.14 93.31,14.84L95,6.56L98.59,6.56C97.76,10.96 97.16,13.64 96.59,16.71C96.02,19.78 99.87,17.52 100.76,14.97L101.78,15ZM95.86,4.53C95.49,4.136 95.295,3.609 95.32,3.07C95.329,2.525 95.543,2.003 95.92,1.61C96.307,1.21 96.844,0.988 97.4,1C97.939,0.984 98.46,1.199 98.83,1.59C99.233,1.969 99.461,2.497 99.46,3.05C99.463,3.607 99.226,4.14 98.81,4.51C98.407,4.888 97.872,5.092 97.32,5.08C96.779,5.102 96.252,4.903 95.86,4.53Z"
          style="fill:currentColor;fill-rule:nonzero;" />
        <path
          d="M108.28,15.21C106.28,20.54 98.99,21.97 100.37,15.02L103.1,1.35L106.62,1.35C105.73,5.78 104.04,13.88 103.44,16.87C102.84,19.86 106.44,17.63 107.29,15.21L108.28,15.21Z"
          style="fill:currentColor;fill-rule:nonzero;" />
        <path
          d="M122.84,15.13C121.04,19.92 114.84,21.61 114.45,17.13C111.69,21.24 105.76,20.49 106.23,15.13C106.59,10.94 108.65,6.75 113.31,6.59L119.9,6.59L119.69,7.59C118.88,11.59 118.33,13.89 117.69,16.88C117.05,19.87 120.92,17.61 121.78,15.17L122.84,15.13ZM115.78,9C114.19,6.11 111.12,8.92 110.21,13.14C109.21,17.85 110.94,20.3 114.53,15.45L115.78,9Z"
          style="fill:currentColor;fill-rule:nonzero;" />
        <path
          d="M36,21.12L29.45,53.7L23.45,53.65L27.93,33.7L16.57,53.65L11.15,53.65L13.27,33.79L4.12,53.65L0,53.65L13.36,24.77C10.58,25.2 7.85,25.72 6.42,27.46C5.29,28.76 5.59,32.23 7.11,34.92L1.21,37.61C0.65,32 1.82,27.72 4.34,25.33C6.584,23.379 9.333,22.1 12.27,21.64C15.107,21.161 17.985,20.973 20.86,21.08L18.22,42.38L30.45,21.17L36,21.12Z"
          style="fill:currentColor;fill-rule:nonzero;" />
        <path
          d="M61.58,46.28C58.58,54.28 48.18,57.08 47.58,49.62C42.98,56.47 33.09,55.21 33.87,46.23C34.48,39.23 37.87,32.23 45.67,32.01L56.67,32.01L56.32,33.66C55,40.29 54.08,44.15 53.08,49.14C52.08,54.13 58.46,50.35 59.89,46.28L61.58,46.28ZM49.83,36C47.18,31.19 42.06,35.87 40.55,42.89C38.9,50.74 41.76,54.82 47.75,46.76L49.83,36Z"
          style="fill:currentColor;fill-rule:nonzero;" />
        <path
          d="M85.56,46.11C81.75,56.11 69.99,57.11 71.9,45.84C72.51,42.84 73.07,39.77 73.64,36.74C74.64,31.74 68.73,35.31 67.13,39.29L64.4,53.7L58.24,53.7L62.62,32L68.56,32L67.91,35.25C72.59,30 80.83,30.14 79,39.9C78,45.28 78.22,43.72 77.27,49.01C76.32,54.3 82.47,50.31 83.86,46.11L85.56,46.11Z"
          style="fill:currentColor;fill-rule:nonzero;" />
        <path
          d="M109,46.06C106,54.26 95.6,57.12 95,49.44C90.35,56.38 80.51,55.17 81.29,46.06C82.42,32.92 93.39,29.84 97.12,32.92C97.321,33.127 97.511,33.344 97.69,33.57L99.77,23.33L105.67,23.33C104.11,31.27 101.67,43.89 100.59,48.97C99.51,54.05 105.84,50.27 107.27,46.06L109,46.06ZM97.27,35.78C94.62,31 89.46,35.65 88,42.72C86.27,50.62 89.17,54.72 95.2,46.58C95.206,46.331 95.236,46.083 95.29,45.84L97.27,35.78Z"
          style="fill:currentColor;fill-rule:nonzero;" />
        <path
          d="M132.66,46.28C129.66,54.28 119.26,57.08 118.66,49.62C114.06,56.47 104.18,55.21 104.96,46.23C105.57,39.23 108.96,32.23 116.75,32.01L127.75,32.01L127.4,33.66C126.06,40.29 125.14,44.15 124.15,49.14C123.16,54.13 129.52,50.35 130.96,46.28L132.66,46.28ZM120.9,36C118.26,31.19 113.14,35.87 111.62,42.89C109.97,50.74 112.84,54.82 118.82,46.76L120.9,36Z"
          style="fill:currentColor;fill-rule:nonzero;" />
        <path
          d="M143.19,46.41C139.94,55.3 127.71,57.68 130.01,46.11L134.56,23.33L140.42,23.33C138.95,30.71 136.12,44.2 135.13,49.19C134.14,54.18 140.2,50.44 141.54,46.41L143.19,46.41Z"
          style="fill:currentColor;fill-rule:nonzero;" />
        <path
          d="M167.43,46.28C164.43,54.28 154.03,57.08 153.43,49.62C148.83,56.47 138.95,55.21 139.73,46.23C140.33,39.23 143.73,32.23 151.52,32.01L162.52,32.01L162.18,33.66C160.83,40.29 159.92,44.15 158.92,49.14C157.92,54.13 164.3,50.35 165.73,46.28L167.43,46.28ZM155.68,36C153.04,31.19 147.92,35.87 146.4,42.89C144.75,50.74 147.62,54.82 153.6,46.76L155.68,36Z"
          style="fill:currentColor;fill-rule:nonzero;" />
      </g>
    </g>
  </g>
  <g id="Capa11">
  </g>
</svg>
