<svg xmlns="http://www.w3.org/2000/svg" viewBox="0 0 167.43 53.99">
  <defs>
    <style>
      .cls-1 {
        fill: #currentColor;
      }
    </style>
  </defs>
  <g id="Capa_2" data-name="Capa 2">
    <g id="Capa_1-2" data-name="Capa 1">
      <path class="cls-1"
        d="M44.7,10C43.69-.42,50.12-.68,55.85.6c3.41.75,6.56,1.46,8.22-.6h1.41c-3.15,4-5.57,3.83-8.93,3.05L53.11,19.58H49.52L53.14,2.47c-2.37-.26-4.06-.23-5.1.81-.89.81-.66,2.94.2,5Z">
      </path>
      <path class="cls-1"
        d="M68.81,15.1c-2,3.75-4.16,4.71-7.13,4.64-4.92-.16-5-6.38-2.58-10.24C61.08,6.43,64.46,5.78,66,7c1.33,1.07,1.35,3.05.57,4.58a5.8,5.8,0,0,1-5.6,2.89,3.67,3.67,0,0,0,1.62,3.26c2,.93,4.11-.63,5.34-2.66ZM61,13.28c4.12.13,4.58-4.82,3.93-5.34s-1.66.1-2.6,1.59A9.59,9.59,0,0,0,61,13C61,13.1,61,13.2,61,13.28Z">
      </path>
      <path class="cls-1"
        d="M80.4,6.56l-4,19.53H72.85l1.43-6.93c-2.32,1.1-5.47.58-6.2-2.24a9,9,0,0,1,.24-4.87c1.14-3.64,4.76-7.47,8.35-4.63l.19-.86Zm-4,2.06c-3-2.5-4.48,2.5-4.76,5.05a5.61,5.61,0,0,0,.28,3.12,1.78,1.78,0,0,0,2.74.91Z">
      </path>
      <path class="cls-1"
        d="M94.9,15.07c-1.66,4.74-7.19,6.49-7.81,2.35-2.76,3.41-7.55,3.49-6.46-2.5L82.3,6.56h3.54c-.81,4.24-1.46,7.34-2,10.23s2,1.15,3.18-1c0-.26.1-.55,1.74-9.22h3.49c-.78,4.24-1.35,7.21-1.9,10.23s2.71.76,3.51-1.72Z">
      </path>
      <path class="cls-1"
        d="M101.78,15c-2.06,5.62-9.93,7.14-8.47-.16L95,6.56h3.59c-.83,4.4-1.43,7.08-2,10.15s3.28.81,4.17-1.74ZM95.86,4.53a2,2,0,0,1-.54-1.46,2.16,2.16,0,0,1,.6-1.46A2,2,0,0,1,97.4,1a1.89,1.89,0,0,1,1.43.59,2,2,0,0,1,.63,1.46,1.94,1.94,0,0,1-.65,1.46,2.11,2.11,0,0,1-1.49.57A2,2,0,0,1,95.86,4.53Z">
      </path>
      <path class="cls-1"
        d="M108.28,15.21c-2,5.33-9.29,6.76-7.91-.19L103.1,1.35h3.52c-.89,4.43-2.58,12.53-3.18,15.52s3,.76,3.85-1.66Z">
      </path>
      <path class="cls-1"
        d="M122.84,15.13c-1.8,4.79-8,6.48-8.39,2-2.76,4.11-8.69,3.36-8.22-2,.36-4.19,2.42-8.38,7.08-8.54h6.59l-.21,1c-.81,4-1.36,6.3-2,9.29s3.23.73,4.09-1.71ZM115.78,9c-1.59-2.89-4.66-.08-5.57,4.14-1,4.71.73,7.16,4.32,2.31Z">
      </path>
      <path class="cls-1"
        d="M36,21.12,29.45,53.7l-6-.05L27.93,33.7,16.57,53.65H11.15l2.12-19.86L4.12,53.65H0L13.36,24.77c-2.78.43-5.51.95-6.94,2.69-1.13,1.3-.83,4.77.69,7.46l-5.9,2.69C.65,32,1.82,27.72,4.34,25.33a15.81,15.81,0,0,1,7.93-3.69,42.16,42.16,0,0,1,8.59-.56l-2.64,21.3L30.45,21.17Z">
      </path>
      <path class="cls-1"
        d="M61.58,46.28c-3,8-13.4,10.8-14,3.34-4.6,6.85-14.49,5.59-13.71-3.39.61-7,4-14,11.8-14.22h11l-.35,1.65C55,40.29,54.08,44.15,53.08,49.14s5.38,1.21,6.81-2.86ZM49.83,36c-2.65-4.81-7.77-.13-9.28,6.89-1.65,7.85,1.21,11.93,7.2,3.87Z">
      </path>
      <path class="cls-1"
        d="M85.56,46.11c-3.81,10-15.57,11-13.66-.27.61-3,1.17-6.07,1.74-9.1,1-5-4.91-1.43-6.51,2.55L64.4,53.7H58.24L62.62,32h5.94l-.65,3.25C72.59,30,80.83,30.14,79,39.9c-1,5.38-.78,3.82-1.73,9.11s5.2,1.3,6.59-2.9Z">
      </path>
      <path class="cls-1"
        d="M109,46.06c-3,8.2-13.4,11.06-14,3.38-4.65,6.94-14.49,5.73-13.71-3.38,1.13-13.14,12.1-16.22,15.83-13.14a8.46,8.46,0,0,1,.57.65l2.08-10.24h5.9c-1.56,7.94-4,20.56-5.08,25.64s5.25,1.3,6.68-2.91ZM97.27,35.78C94.62,31,89.46,35.65,88,42.72c-1.73,7.9,1.17,12,7.2,3.86a3.83,3.83,0,0,1,.09-.74Z">
      </path>
      <path class="cls-1"
        d="M132.66,46.28c-3,8-13.4,10.8-14,3.34-4.6,6.85-14.48,5.59-13.7-3.39.61-7,4-14,11.79-14.22h11l-.35,1.65c-1.34,6.63-2.26,10.49-3.25,15.48s5.37,1.21,6.81-2.86ZM120.9,36c-2.64-4.81-7.76-.13-9.28,6.89-1.65,7.85,1.22,11.93,7.2,3.87Z">
      </path>
      <path class="cls-1"
        d="M143.19,46.41c-3.25,8.89-15.48,11.27-13.18-.3l4.55-22.78h5.86c-1.47,7.38-4.3,20.87-5.29,25.86s5.07,1.25,6.41-2.78Z">
      </path>
      <path class="cls-1"
        d="M167.43,46.28c-3,8-13.4,10.8-14,3.34-4.6,6.85-14.48,5.59-13.7-3.39.6-7,4-14,11.79-14.22h11l-.34,1.65c-1.35,6.63-2.26,10.49-3.26,15.48s5.38,1.21,6.81-2.86ZM155.68,36c-2.64-4.81-7.76-.13-9.28,6.89-1.65,7.85,1.22,11.93,7.2,3.87Z">
      </path>
    </g>
  </g>
</svg>
