<?xml version="1.0" encoding="UTF-8" standalone="no"?>
<!DOCTYPE svg PUBLIC "-//W3C//DTD SVG 1.1//EN" "http://www.w3.org/Graphics/SVG/1.1/DTD/svg11.dtd">
<svg width="100%" height="100%" viewBox="0 0 584 292" version="1.1" xmlns="http://www.w3.org/2000/svg"
  xmlns:xlink="http://www.w3.org/1999/xlink" xml:space="preserve" xmlns:serif="http://www.serif.com/"
  style="fill-rule:evenodd;clip-rule:evenodd;stroke-linejoin:round;stroke-miterlimit:2;">
  <g transform="matrix(0.233103,0,0,0.233103,190.123,5.23294)">
    <g id="Capa2">
      <g>
        <path
          d="M227.02,719.03L227.02,984.45L210.08,984.45L31.62,781.16L31.62,984.45L0,984.45L0,719.03L16.94,719.03L195.4,921.98L195.4,719.03L227.02,719.03Z"
          style="fill:currentColor;fill-rule:nonzero;" />
        <path
          d="M291.41,879.43L291.41,719.03L323.03,719.03L323.03,872.65C323.03,931.37 344.87,958.88 400.6,958.88C456.33,958.88 478.15,931.37 478.15,872.65L478.15,719.03L509.77,719.03L509.77,879.43C509.77,952.1 475.88,988.97 400.59,988.97C325.3,988.97 291.4,952.1 291.4,879.43L291.41,879.43Z"
          style="fill:currentColor;fill-rule:nonzero;" />
        <path
          d="M806.1,719.03L686.36,987.47L670.17,987.47L550.45,719.03L584.73,719.03L677.73,935.15L770.7,719.03L806.12,719.03L806.1,719.03Z"
          style="fill:currentColor;fill-rule:nonzero;" />
        <rect x="852.38" y="719.03" width="32.76" height="265.42" style="fill:currentColor;fill-rule:nonzero;" />
        <path
          d="M162.18,1145.19L162.18,1185.77C150.27,1196.48 133.78,1200 116.69,1200C80.36,1200 58.68,1178.92 58.68,1144.43C58.68,1109.94 80.36,1088.7 115.61,1088.7C133.32,1088.7 147.98,1094.64 158.2,1104.11L149.95,1113.11C141.57,1105.51 129.65,1100.77 115.61,1100.77C88.59,1100.77 71.96,1117.4 71.96,1144.42C71.96,1171.44 88.59,1187.91 116.69,1187.91C129.06,1187.91 140.65,1185.76 149.5,1179.35L149.5,1156.34L113.01,1156.34L113.01,1145.19L162.18,1145.19Z"
          style="fill:currentColor;fill-rule:nonzero;" />
        <path d="M211.01,1090.53L223.84,1090.53L223.84,1187L286.86,1187L286.86,1198.16L211.01,1198.16L211.01,1090.53Z"
          style="fill:currentColor;fill-rule:nonzero;" />
        <path
          d="M324.11,1144.43C324.11,1112.04 345.66,1088.7 380.91,1088.7C413.87,1088.7 437.84,1109.94 437.84,1144.43C437.84,1176.61 416.16,1200 380.91,1200C347.94,1200 324.11,1178.92 324.11,1144.43ZM424.41,1144.43C424.41,1119.09 407.92,1100.78 380.9,1100.78C355.71,1100.78 337.54,1117.41 337.54,1144.43C337.54,1169.61 354.03,1187.92 380.9,1187.92C406.08,1187.92 424.41,1171.42 424.41,1144.43Z"
          style="fill:currentColor;fill-rule:nonzero;" />
        <path
          d="M575.5,1166.86C575.5,1187.46 561.93,1198.16 535.66,1198.16L487.91,1198.16L487.91,1090.53L536.3,1090.53C555.98,1090.53 566.21,1099.24 566.21,1116.03C566.21,1128.09 561.64,1135.58 552.93,1138.6C567.89,1141.82 575.5,1151.44 575.5,1166.85L575.5,1166.86ZM500.57,1135.27L532.78,1135.27C545.75,1135.27 552.78,1129.75 552.78,1117.25C552.78,1107.03 546.06,1101.68 533.25,1101.68L500.57,1101.68L500.57,1135.27ZM561.93,1167.17C561.93,1153.43 552.62,1146.26 534.46,1146.26L500.74,1146.26L500.74,1187L535.37,1187C552.93,1187 561.93,1180.31 561.93,1167.18L561.93,1167.17Z"
          style="fill:currentColor;fill-rule:nonzero;" />
        <path
          d="M692.75,1172.22L636.42,1172.22L624.98,1198.16L611.23,1198.16L660.98,1090.53L668.18,1090.53L718.08,1198.16L704.34,1198.16L692.75,1172.22ZM641.29,1161.21L687.87,1161.21L664.5,1108.38L641.29,1161.21Z"
          style="fill:currentColor;fill-rule:nonzero;" />
        <path
          d="M762.49,1090.53L775.32,1090.53L775.32,1187L838.36,1187L838.36,1198.16L762.5,1198.16L762.5,1090.53L762.49,1090.53Z"
          style="fill:currentColor;fill-rule:nonzero;" />
        <path id="SVGID-3"
          d="M433.89,341.02C458.48,376.4 501.48,440.56 502.1,522.43C502.43,567.73 492.14,618.1 487.13,634.75C482.73,649.51 481.82,659.18 491.49,637.55C499.86,618.69 518.34,557.65 518.31,498.64C518.24,420.29 485.43,354.63 462.35,321.81C447.25,332.83 433.88,341.03 433.88,341.03"
          style="fill:currentColor;fill-rule:nonzero;" />
        <g>
          <clipPath id="_clip1">
            <path
              d="M433.89,341.02C458.48,376.4 501.48,440.56 502.1,522.43C502.43,567.73 492.14,618.1 487.13,634.75C482.73,649.51 481.82,659.18 491.49,637.55C499.86,618.69 518.34,557.65 518.31,498.64C518.24,420.29 485.43,354.63 462.35,321.81C447.25,332.83 433.88,341.03 433.88,341.03L433.89,341.02Z" />
          </clipPath>
          <g clip-path="url(#_clip1)">
            <rect x="433.89" y="321.8" width="84.46" height="337.38" style="fill:currentColor;" />
          </g>
        </g>
        <path id="SVGID-5"
          d="M433.74,288.47C388.72,312.54 342.73,336.76 316.59,369.08C277.59,417.32 278.47,477.02 288.99,523.08C295.08,549.72 297.13,546.71 297.42,525.36C297.48,520.8 297.88,511.95 298.4,505.94C299.47,494.14 300.82,486.33 317.98,495.22C345.31,509.31 401.75,539.55 444.9,559.51C457.11,565.14 456.39,563.09 445.41,555.6C407.15,529.75 361.17,503.58 328.32,482.26C311.91,471.6 306.61,468.78 309.91,455.96C311.95,447.89 314.61,440.89 317.98,436.77C325.06,428.03 329.91,431.81 342.05,437.89C383.16,458.49 410.99,471.16 448.64,489.76C459.38,495.08 459.95,493.1 449.8,487.04C419.23,468.65 388.42,450.68 357.16,429.38C341.19,418.39 336.02,415.99 333.72,409.9C331.41,404.01 333.43,400.66 341.19,390.52C342.84,388.36 344.77,386.4 346.68,384.39C350.26,381.1 354,377.39 358.32,377.34C363.97,377.34 370.66,381.26 376.32,384.49C393.52,394.29 412.76,405.81 431.87,416.07C440.09,420.43 440.5,419.2 432.49,412.72C426.99,408.23 411.01,394.07 397.79,383.49C386.66,374.6 380.67,368.92 380.28,363.11C379.89,356.76 384.23,351.9 390.57,347.52C415.67,330.27 467.46,308.07 503.36,267.2C526.28,241.05 530.41,212.71 530.41,212.71C508.23,247.59 470.6,268.85 433.77,288.49"
          style="fill:currentColor;fill-rule:nonzero;" />
        <g>
          <clipPath id="_clip2">
            <path
              d="M433.74,288.47C388.72,312.54 342.73,336.76 316.59,369.08C277.59,417.32 278.47,477.02 288.99,523.08C295.08,549.72 297.13,546.71 297.42,525.36C297.48,520.8 297.88,511.95 298.4,505.94C299.47,494.14 300.82,486.33 317.98,495.22C345.31,509.31 401.75,539.55 444.9,559.51C457.11,565.14 456.39,563.09 445.41,555.6C407.15,529.75 361.17,503.58 328.32,482.26C311.91,471.6 306.61,468.78 309.91,455.96C311.95,447.89 314.61,440.89 317.98,436.77C325.06,428.03 329.91,431.81 342.05,437.89C383.16,458.49 410.99,471.16 448.64,489.76C459.38,495.08 459.95,493.1 449.8,487.04C419.23,468.65 388.42,450.68 357.16,429.38C341.19,418.39 336.02,415.99 333.72,409.9C331.41,404.01 333.43,400.66 341.19,390.52C342.84,388.36 344.77,386.4 346.68,384.39C350.26,381.1 354,377.39 358.32,377.34C363.97,377.34 370.66,381.26 376.32,384.49C393.52,394.29 412.76,405.81 431.87,416.07C440.09,420.43 440.5,419.2 432.49,412.72C426.99,408.23 411.01,394.07 397.79,383.49C386.66,374.6 380.67,368.92 380.28,363.11C379.89,356.76 384.23,351.9 390.57,347.52C415.67,330.27 467.46,308.07 503.36,267.2C526.28,241.05 530.41,212.71 530.41,212.71C508.23,247.59 470.6,268.85 433.77,288.49L433.74,288.47Z" />
          </clipPath>
          <g clip-path="url(#_clip2)">
            <path d="M164.31,523.93L307.15,131.46L643.66,253.92L500.8,646.39L164.31,523.93Z"
              style="fill:currentColor;fill-rule:nonzero;" />
          </g>
        </g>
        <path id="SVGID-7"
          d="M662.25,59.23C548.17,77.1 534.21,139.05 534.21,139.05C575.42,134.07 583.38,147.68 583.38,147.68C598.29,149.62 599.95,160.23 599.95,160.23C589.76,157.12 582.13,162.46 582.13,162.46C531.27,167.23 487.83,199.67 487.83,199.67C487.83,199.67 460.94,144.43 433.52,116.97C406.06,89.56 348.71,52.97 264.3,47.1C135.83,38.17 67.37,20.39 35.34,0.57C35.34,0.57 68.56,74.09 168.05,112.61C244.06,142.1 329.47,159.22 387.77,173.38C440.94,186.22 453.95,202.24 456,222.32C456,222.32 431.13,240.04 416.5,250.79C382.5,275.63 357.3,304.47 349.92,324.88C399.9,281.1 445.98,272.42 491,234.32C505.06,222.44 518.31,210 528.73,197.08C528.73,197.08 536.96,188.01 553.18,181.83C566.59,176.77 586.41,171.4 609.33,166.63C689.21,150.01 744.13,125.96 789.89,81.36C830.96,41.29 838.74,0 838.74,0C813.9,27.72 765.05,43.16 662.25,59.23"
          style="fill:currentColor;fill-rule:nonzero;" />
        <g>
          <clipPath id="_clip3">
            <path
              d="M662.25,59.23C548.17,77.1 534.21,139.05 534.21,139.05C575.42,134.07 583.38,147.68 583.38,147.68C598.29,149.62 599.95,160.23 599.95,160.23C589.76,157.12 582.13,162.46 582.13,162.46C531.27,167.23 487.83,199.67 487.83,199.67C487.83,199.67 460.94,144.43 433.52,116.97C406.06,89.56 348.71,52.97 264.3,47.1C135.83,38.17 67.37,20.39 35.34,0.57C35.34,0.57 68.56,74.09 168.05,112.61C244.06,142.1 329.47,159.22 387.77,173.38C440.94,186.22 453.95,202.24 456,222.32C456,222.32 431.13,240.04 416.5,250.79C382.5,275.63 357.3,304.47 349.92,324.88C399.9,281.1 445.98,272.42 491,234.32C505.06,222.44 518.31,210 528.73,197.08C528.73,197.08 536.96,188.01 553.18,181.83C566.59,176.77 586.41,171.4 609.33,166.63C689.21,150.01 744.13,125.96 789.89,81.36C830.96,41.29 838.74,0 838.74,0C813.9,27.72 765.05,43.16 662.25,59.23Z" />
          </clipPath>
          <g clip-path="url(#_clip3)">
            <path d="M-69.08,286.86L129.32,-258.21L943.17,38L744.75,583.09L-69.08,286.86Z"
              style="fill:currentColor;fill-rule:nonzero;" />
          </g>
        </g>
        <path
          d="M868.52,1105.21C868.52,1113.53 861.99,1120.07 853.48,1120.07C844.97,1120.07 838.35,1113.54 838.35,1105.21C838.35,1096.88 845.06,1090.53 853.48,1090.53C861.9,1090.53 868.52,1097.06 868.52,1105.21ZM842.11,1105.21C842.11,1111.74 846.94,1116.93 853.57,1116.93C860.2,1116.93 864.76,1111.74 864.76,1105.29C864.76,1098.84 860.02,1093.48 853.48,1093.48C846.94,1093.48 842.11,1098.76 842.11,1105.21ZM851.15,1112.9L847.75,1112.9L847.75,1098.22C849.09,1097.95 850.97,1097.77 853.39,1097.77C856.16,1097.77 857.42,1098.22 858.49,1098.84C859.3,1099.47 859.92,1100.63 859.92,1102.06C859.92,1103.67 858.67,1104.92 856.88,1105.46L856.88,1105.64C858.31,1106.18 859.12,1107.25 859.57,1109.22C860.02,1111.46 860.29,1112.35 860.64,1112.89L856.97,1112.89C856.52,1112.35 856.25,1111.01 855.81,1109.31C855.54,1107.7 854.65,1106.98 852.77,1106.98L851.16,1106.98L851.16,1112.89L851.15,1112.89L851.15,1112.9ZM851.24,1104.58L852.85,1104.58C854.73,1104.58 856.25,1103.95 856.25,1102.43C856.25,1101.09 855.27,1100.19 853.12,1100.19C852.22,1100.19 851.6,1100.28 851.24,1100.37L851.24,1104.58Z"
          style="fill:currentColor;fill-rule:nonzero;" />
      </g>
    </g>
  </g>
</svg>
