<svg xmlns="http://www.w3.org/2000/svg" xmlns:xlink="http://www.w3.org/1999/xlink" id="Capa_1" viewBox="0 0 1200 1200">
  <defs>
    <style>
      .cls-1,
      .cls-2 {
        fill: #76b72a;
      }

      .cls-3 {
        clip-path: url(#clippath-2);
      }

      .cls-2,
      .cls-4 {
        stroke-width: 0px;
      }

      .cls-5 {
        clip-path: url(#clippath-1);
      }

      .cls-6,
      .cls-4 {
        fill: #1487c9;
      }

      .cls-7 {
        clip-path: url(#clippath);
      }

      .cls-8 {
        clip-path: url(#clippath-3);
      }
    </style>
    <clipPath id="clippath">
      <path id="SVGID-2" class="cls-4"
        d="M-283.62,201.99c-170.39,26.69-191.25,119.22-191.25,119.22,61.55-7.44,73.44,12.89,73.44,12.89,22.27,2.89,24.75,18.74,24.75,18.74-15.22-4.64-26.62,3.33-26.62,3.33-75.97,7.12-140.85,55.57-140.85,55.57,0,0-40.16-82.51-81.12-123.52-41.01-40.94-126.68-95.59-252.75-104.36-191.88-13.32-294.13-39.87-341.97-69.48,0,0,49.62,109.81,198.23,167.35,113.53,44.05,241.11,69.62,328.19,90.77,79.42,19.18,98.85,43.1,101.91,73.1,0,0-37.15,26.47-59,42.52-50.79,37.1-88.42,80.17-99.45,110.66,74.66-65.4,143.48-78.35,210.72-135.26,21.01-17.75,40.79-36.32,56.35-55.62,0,0,12.3-13.54,36.51-22.78,20.03-7.56,49.64-15.58,83.87-22.71,119.32-24.82,201.34-60.75,269.7-127.36C-31.62,175.2-20,113.53-20,113.53c-37.1,41.4-110.07,64.47-263.62,88.46" />
    </clipPath>
    <clipPath id="clippath-1">
      <path id="SVGID-4" class="cls-4"
        d="M591.32,341.02c24.59,35.38,67.59,99.54,68.21,181.41.33,45.3-9.96,95.67-14.97,112.32-4.4,14.76-5.31,24.43,4.36,2.8,8.37-18.86,26.85-79.9,26.82-138.91-.07-78.35-32.88-144.01-55.96-176.83-15.1,11.02-28.47,19.22-28.47,19.22" />
    </clipPath>
    <clipPath id="clippath-2">
      <path id="SVGID-6" class="cls-2"
        d="M591.17,288.47c-45.02,24.07-91.01,48.29-117.15,80.61-39,48.24-38.12,107.94-27.6,154,6.09,26.64,8.14,23.63,8.43,2.28.06-4.56.46-13.41.98-19.42,1.07-11.8,2.42-19.61,19.58-10.72,27.33,14.09,83.77,44.33,126.92,64.29,12.21,5.63,11.49,3.58.51-3.91-38.26-25.85-84.24-52.02-117.09-73.34-16.41-10.66-21.71-13.48-18.41-26.3,2.04-8.07,4.7-15.07,8.07-19.19,7.08-8.74,11.93-4.96,24.07,1.12,41.11,20.6,68.94,33.27,106.59,51.87,10.74,5.32,11.31,3.34,1.16-2.72-30.57-18.39-61.38-36.36-92.64-57.66-15.97-10.99-21.14-13.39-23.44-19.48-2.31-5.89-.29-9.24,7.47-19.38,1.65-2.16,3.58-4.12,5.49-6.13,3.58-3.29,7.32-7,11.64-7.05,5.65,0,12.34,3.92,18,7.15,17.2,9.8,36.44,21.32,55.55,31.58,8.22,4.36,8.63,3.13.62-3.35-5.5-4.49-21.48-18.65-34.7-29.23-11.13-8.89-17.12-14.57-17.51-20.38-.39-6.35,3.95-11.21,10.29-15.59,25.1-17.25,76.89-39.45,112.79-80.32,22.92-26.15,27.05-54.49,27.05-54.49-22.18,34.88-59.81,56.14-96.64,75.78" />
    </clipPath>
    <clipPath id="clippath-3">
      <path id="SVGID-8" class="cls-4"
        d="M819.68,59.23c-114.08,17.87-128.04,79.82-128.04,79.82,41.21-4.98,49.17,8.63,49.17,8.63,14.91,1.94,16.57,12.55,16.57,12.55-10.19-3.11-17.82,2.23-17.82,2.23-50.86,4.77-94.3,37.21-94.3,37.21,0,0-26.89-55.24-54.31-82.7-27.46-27.41-84.81-64-169.22-69.87C293.26,38.17,224.8,20.39,192.77.57c0,0,33.22,73.52,132.71,112.04,76.01,29.49,161.42,46.61,219.72,60.77,53.17,12.84,66.18,28.86,68.23,48.94,0,0-24.87,17.72-39.5,28.47-34,24.84-59.2,53.68-66.58,74.09,49.98-43.78,96.06-52.46,141.08-90.56,14.06-11.88,27.31-24.32,37.73-37.24,0,0,8.23-9.07,24.45-15.25,13.41-5.06,33.23-10.43,56.15-15.2,79.88-16.62,134.8-40.67,180.56-85.27C988.39,41.29,996.17,0,996.17,0c-24.84,27.72-73.69,43.16-176.49,59.23" />
    </clipPath>
  </defs>
  <path id="SVGID" class="cls-6"
    d="M-283.62,201.99c-170.39,26.69-191.25,119.22-191.25,119.22,61.55-7.44,73.44,12.89,73.44,12.89,22.27,2.89,24.75,18.74,24.75,18.74-15.22-4.64-26.62,3.33-26.62,3.33-75.97,7.12-140.85,55.57-140.85,55.57,0,0-40.16-82.51-81.12-123.52-41.01-40.94-126.68-95.59-252.75-104.36-191.88-13.32-294.13-39.87-341.97-69.48,0,0,49.62,109.81,198.23,167.35,113.53,44.05,241.11,69.62,328.19,90.77,79.42,19.18,98.85,43.1,101.91,73.1,0,0-37.15,26.47-59,42.52-50.79,37.1-88.42,80.17-99.45,110.66,74.66-65.4,143.48-78.35,210.72-135.26,21.01-17.75,40.79-36.32,56.35-55.62,0,0,12.3-13.54,36.51-22.78,20.03-7.56,49.64-15.58,83.87-22.71,119.32-24.82,201.34-60.75,269.7-127.36C-31.62,175.2-20,113.53-20,113.53c-37.1,41.4-110.07,64.47-263.62,88.46" />
  <g class="cls-7">
    <polygon class="cls-4" points="-1375.98 542 -1079.63 -272.14 135.98 170.29 -160.39 984.47 -1375.98 542" />
  </g>
  <path class="cls-4"
    d="M384.45,719.03v265.42h-16.94l-178.46-203.29v203.29h-31.62v-265.42h16.94l178.46,202.95v-202.95h31.62Z" />
  <path class="cls-4"
    d="M448.84,879.43v-160.4h31.62v153.62c0,58.72,21.84,86.23,77.57,86.23s77.55-27.51,77.55-86.23v-153.62h31.62v160.4c0,72.67-33.89,109.54-109.18,109.54s-109.19-36.87-109.19-109.54Z" />
  <path class="cls-4" d="M963.53,719.03l-119.74,268.44h-16.19l-119.72-268.44h34.28l93,216.12,92.97-216.12h35.42Z" />
  <path class="cls-4" d="M1009.81,719.03h32.76v265.42h-32.76v-265.42Z" />
  <path class="cls-4"
    d="M319.61,1145.2v40.57c-11.91,10.71-28.4,14.23-45.49,14.23-36.33,0-58.01-21.08-58.01-55.57s21.68-55.73,56.93-55.73c17.71,0,32.37,5.94,42.59,15.41l-8.25,9c-8.38-7.6-20.3-12.34-34.34-12.34-27.02,0-43.65,16.63-43.65,43.65s16.63,43.49,44.73,43.49c12.37,0,23.96-2.15,32.81-8.56v-23.01h-36.49v-11.15h49.17Z" />
  <path class="cls-4" d="M368.45,1090.53h12.82v96.47h63.02v11.16h-75.85v-107.63Z" />
  <path class="cls-4"
    d="M481.54,1144.43c0-32.39,21.55-55.73,56.8-55.73,32.96,0,56.93,21.24,56.93,55.73,0,32.18-21.68,55.57-56.93,55.57-32.97,0-56.8-21.08-56.8-55.57ZM581.84,1144.43c0-25.34-16.49-43.65-43.51-43.65-25.19,0-43.36,16.63-43.36,43.65,0,25.18,16.49,43.49,43.36,43.49,25.18,0,43.51-16.5,43.51-43.49Z" />
  <path class="cls-4"
    d="M732.93,1166.86c0,20.6-13.57,31.3-39.84,31.3h-47.75v-107.63h48.39c19.68,0,29.91,8.71,29.91,25.5,0,12.06-4.57,19.55-13.28,22.57,14.96,3.22,22.57,12.84,22.57,28.25ZM658,1135.27h32.21c12.97,0,20-5.52,20-18.02,0-10.22-6.72-15.57-19.53-15.57h-32.68v33.59ZM719.36,1167.17c0-13.74-9.31-20.91-27.47-20.91h-33.72v40.74h34.63c17.56,0,26.56-6.69,26.56-19.82Z" />
  <path class="cls-4"
    d="M850.18,1172.22h-56.33l-11.44,25.94h-13.75l49.75-107.63h7.2l49.9,107.63h-13.74l-11.59-25.94ZM798.72,1161.21h46.58l-23.37-52.83-23.21,52.83Z" />
  <path class="cls-4" d="M919.92,1090.53h12.83v96.47h63.04v11.16h-75.86v-107.63Z" />
  <path id="SVGID-3" class="cls-6"
    d="M591.32,341.02c24.59,35.38,67.59,99.54,68.21,181.41.33,45.3-9.96,95.67-14.97,112.32-4.4,14.76-5.31,24.43,4.36,2.8,8.37-18.86,26.85-79.9,26.82-138.91-.07-78.35-32.88-144.01-55.96-176.83-15.1,11.02-28.47,19.22-28.47,19.22" />
  <g class="cls-5">
    <rect class="cls-4" x="591.32" y="321.8" width="84.46" height="337.38" />
  </g>
  <path id="SVGID-5" class="cls-1"
    d="M591.17,288.47c-45.02,24.07-91.01,48.29-117.15,80.61-39,48.24-38.12,107.94-27.6,154,6.09,26.64,8.14,23.63,8.43,2.28.06-4.56.46-13.41.98-19.42,1.07-11.8,2.42-19.61,19.58-10.72,27.33,14.09,83.77,44.33,126.92,64.29,12.21,5.63,11.49,3.58.51-3.91-38.26-25.85-84.24-52.02-117.09-73.34-16.41-10.66-21.71-13.48-18.41-26.3,2.04-8.07,4.7-15.07,8.07-19.19,7.08-8.74,11.93-4.96,24.07,1.12,41.11,20.6,68.94,33.27,106.59,51.87,10.74,5.32,11.31,3.34,1.16-2.72-30.57-18.39-61.38-36.36-92.64-57.66-15.97-10.99-21.14-13.39-23.44-19.48-2.31-5.89-.29-9.24,7.47-19.38,1.65-2.16,3.58-4.12,5.49-6.13,3.58-3.29,7.32-7,11.64-7.05,5.65,0,12.34,3.92,18,7.15,17.2,9.8,36.44,21.32,55.55,31.58,8.22,4.36,8.63,3.13.62-3.35-5.5-4.49-21.48-18.65-34.7-29.23-11.13-8.89-17.12-14.57-17.51-20.38-.39-6.35,3.95-11.21,10.29-15.59,25.1-17.25,76.89-39.45,112.79-80.32,22.92-26.15,27.05-54.49,27.05-54.49-22.18,34.88-59.81,56.14-96.64,75.78" />
  <g class="cls-3">
    <polygon class="cls-2" points="321.74 523.93 464.58 131.46 801.09 253.92 658.23 646.39 321.74 523.93" />
  </g>
  <path id="SVGID-7" class="cls-6"
    d="M819.68,59.23c-114.08,17.87-128.04,79.82-128.04,79.82,41.21-4.98,49.17,8.63,49.17,8.63,14.91,1.94,16.57,12.55,16.57,12.55-10.19-3.11-17.82,2.23-17.82,2.23-50.86,4.77-94.3,37.21-94.3,37.21,0,0-26.89-55.24-54.31-82.7-27.46-27.41-84.81-64-169.22-69.87C293.26,38.17,224.8,20.39,192.77.57c0,0,33.22,73.52,132.71,112.04,76.01,29.49,161.42,46.61,219.72,60.77,53.17,12.84,66.18,28.86,68.23,48.94,0,0-24.87,17.72-39.5,28.47-34,24.84-59.2,53.68-66.58,74.09,49.98-43.78,96.06-52.46,141.08-90.56,14.06-11.88,27.31-24.32,37.73-37.24,0,0,8.23-9.07,24.45-15.25,13.41-5.06,33.23-10.43,56.15-15.2,79.88-16.62,134.8-40.67,180.56-85.27C988.39,41.29,996.17,0,996.17,0c-24.84,27.72-73.69,43.16-176.49,59.23" />
  <g class="cls-8">
    <polygon class="cls-4" points="88.35 286.86 286.75 -258.21 1100.6 38 902.18 583.09 88.35 286.86" />
  </g>
  <path class="cls-4"
    d="M1025.95,1105.21c0,8.32-6.53,14.86-15.04,14.86s-15.13-6.53-15.13-14.86,6.71-14.68,15.13-14.68,15.04,6.53,15.04,14.68ZM999.54,1105.21c0,6.53,4.83,11.72,11.46,11.72s11.19-5.19,11.19-11.64-4.74-11.81-11.28-11.81-11.37,5.28-11.37,11.73ZM1008.58,1112.9h-3.4v-14.68c1.34-.27,3.22-.45,5.64-.45,2.77,0,4.03.45,5.1,1.07.81.63,1.43,1.79,1.43,3.22,0,1.61-1.25,2.86-3.04,3.4v.18c1.43.54,2.24,1.61,2.69,3.58.45,2.24.72,3.13,1.07,3.67h-3.67c-.45-.54-.72-1.88-1.16-3.58-.27-1.61-1.16-2.33-3.04-2.33h-1.61v5.91ZM1008.67,1104.58h1.61c1.88,0,3.4-.63,3.4-2.15,0-1.34-.98-2.24-3.13-2.24-.9,0-1.52.09-1.88.18v4.21Z" />
</svg>
