<?xml version="1.0" encoding="UTF-8" standalone="no"?>
<!DOCTYPE svg PUBLIC "-//W3C//DTD SVG 1.1//EN" "http://www.w3.org/Graphics/SVG/1.1/DTD/svg11.dtd">
<svg width="100%" height="100%" viewBox="0 0 584 292" version="1.1" xmlns="http://www.w3.org/2000/svg"
  xmlns:xlink="http://www.w3.org/1999/xlink" xml:space="preserve" xmlns:serif="http://www.serif.com/"
  style="fill-rule:evenodd;clip-rule:evenodd;stroke-linejoin:round;stroke-miterlimit:2;">
  <g transform="matrix(1.13561,0,0,1.13561,46.6856,64.2757)">
    <g id="Capa4">
      <g>
        <path
          d="M71.99,0C62.11,0 52.51,1.97 43.47,5.87C34.1,9.9 25.83,15.79 18.9,23.36C5.92,37.54 -0.77,55.92 0.07,75.12C0.91,94.32 9.19,112.05 23.36,125.03C36.66,137.21 53.92,143.93 71.95,143.93C81.83,143.93 91.43,141.96 100.47,138.06C109.84,134.03 118.1,128.14 125.04,120.57C138.02,106.39 144.71,88.01 143.87,68.81C143.03,49.61 134.75,31.88 120.58,18.9C107.28,6.72 90.02,0 71.99,0Z"
          style="fill:rgb(209,209,209);fill-rule:nonzero;" />
        <path
          d="M156.49,21.38C156.49,19.57 157.93,18.13 159.74,18.13L168.56,18.13C175.61,18.13 179.87,22.31 179.87,28.35L179.87,28.43C179.87,35.27 174.55,38.81 167.92,38.81L162.98,38.81L162.98,44.68C162.98,46.49 161.54,47.93 159.73,47.93C157.92,47.93 156.48,46.49 156.48,44.68L156.48,21.38L156.49,21.38ZM168.14,33.03C171.39,33.03 173.29,31.09 173.29,28.56L173.29,28.48C173.29,25.57 171.26,24.01 168.01,24.01L162.99,24.01L162.99,33.04L168.14,33.04L168.14,33.03Z"
          style="fill:currentColor;fill-rule:nonzero;" />
        <path
          d="M184.69,21.13C184.69,19.32 186.13,17.88 187.94,17.88C189.75,17.88 191.19,19.31 191.19,21.13L191.19,41.77L203.22,41.77C204.87,41.77 206.18,43.08 206.18,44.73C206.18,46.38 204.87,47.68 203.22,47.68L187.94,47.68C186.12,47.68 184.69,46.25 184.69,44.43L184.69,21.13Z"
          style="fill:currentColor;fill-rule:nonzero;" />
        <path
          d="M209.16,43.5L219.46,20.24C220.18,18.64 221.49,17.67 223.26,17.67L223.64,17.67C225.41,17.67 226.68,18.64 227.4,20.24L237.7,43.5C237.91,43.97 238.04,44.39 238.04,44.81C238.04,46.54 236.69,47.93 234.96,47.93C233.44,47.93 232.43,47.04 231.84,45.69L229.86,41.05L216.86,41.05L214.79,45.9C214.24,47.17 213.14,47.93 211.79,47.93C210.1,47.93 208.79,46.58 208.79,44.89C208.79,44.43 208.96,43.96 209.17,43.5L209.16,43.5ZM227.44,35.31L223.35,25.56L219.26,35.31L227.45,35.31L227.44,35.31ZM221.61,14.54C221.61,14.16 221.82,13.74 222.03,13.4L224.35,9.77C224.9,8.88 225.7,8.33 226.76,8.33C228.32,8.33 230.35,9.3 230.35,10.27C230.35,10.86 230.01,11.33 229.51,11.79L226.89,14.24C225.67,15.38 224.65,15.63 223.22,15.63C222.29,15.63 221.62,15.21 221.62,14.53L221.61,14.53L221.61,14.54Z"
          style="fill:currentColor;fill-rule:nonzero;" />
        <path
          d="M242.33,44.55C241.61,44.04 241.11,43.12 241.11,42.1C241.11,40.41 242.46,39.1 244.15,39.1C244.99,39.1 245.59,39.4 246.01,39.69C248.25,41.34 250.7,42.35 253.57,42.35C256.23,42.35 257.83,41.29 257.83,39.56L257.83,39.48C257.83,37.83 256.82,36.99 251.88,35.72C245.93,34.2 242.09,32.55 242.09,26.69L242.09,26.61C242.09,21.25 246.4,17.7 252.43,17.7C256.02,17.7 259.14,18.63 261.8,20.32C262.52,20.74 263.24,21.63 263.24,22.89C263.24,24.58 261.89,25.89 260.2,25.89C259.57,25.89 259.06,25.72 258.55,25.43C256.4,24.16 254.37,23.45 252.35,23.45C249.86,23.45 248.55,24.59 248.55,26.02L248.55,26.1C248.55,28.04 249.82,28.67 254.92,29.98C260.91,31.54 264.29,33.69 264.29,38.84L264.29,38.92C264.29,44.79 259.82,48.08 253.44,48.08C249.56,48.08 245.63,46.9 242.34,44.53L242.34,44.55L242.33,44.55Z"
          style="fill:currentColor;fill-rule:nonzero;" />
        <path
          d="M276.18,24.12L269.93,24.12C268.28,24.12 266.93,22.77 266.93,21.12C266.93,19.47 268.28,18.12 269.93,18.12L288.93,18.12C290.58,18.12 291.93,19.47 291.93,21.12C291.93,22.77 290.58,24.12 288.93,24.12L282.68,24.12L282.68,44.68C282.68,46.49 281.24,47.93 279.43,47.93C277.62,47.93 276.18,46.49 276.18,44.68L276.18,24.12Z"
          style="fill:currentColor;fill-rule:nonzero;" />
        <path
          d="M296.94,21.13C296.94,19.32 298.38,17.88 300.19,17.88C302,17.88 303.44,19.31 303.44,21.13L303.44,44.68C303.44,46.49 302,47.93 300.19,47.93C298.38,47.93 296.94,46.49 296.94,44.68L296.94,21.13Z"
          style="fill:currentColor;fill-rule:nonzero;" />
        <path
          d="M309.52,32.99L309.52,32.91C309.52,24.51 315.85,17.63 324.93,17.63C329.36,17.63 332.36,18.81 334.81,20.63C335.49,21.14 336.08,22.07 336.08,23.2C336.08,24.97 334.64,26.37 332.87,26.37C331.98,26.37 331.39,26.03 330.93,25.74C329.12,24.39 327.22,23.63 324.89,23.63C319.91,23.63 316.32,27.77 316.32,32.83L316.32,32.91C316.32,37.98 319.82,42.2 324.89,42.2C327.63,42.2 329.45,41.36 331.31,39.88C331.82,39.46 332.49,39.16 333.25,39.16C334.9,39.16 336.29,40.51 336.29,42.16C336.29,43.17 335.78,43.98 335.19,44.48C332.53,46.8 329.41,48.19 324.68,48.19C315.98,48.19 309.53,41.48 309.53,32.99L309.52,32.99Z"
          style="fill:currentColor;fill-rule:nonzero;" />
        <path
          d="M339.82,32.99L339.82,32.91C339.82,24.51 346.45,17.63 355.57,17.63C364.69,17.63 371.23,24.43 371.23,32.83L371.23,32.91C371.23,41.31 364.6,48.19 355.49,48.19C346.38,48.19 339.83,41.39 339.83,32.99L339.82,32.99ZM364.43,32.99L364.43,32.91C364.43,27.84 360.72,23.62 355.48,23.62C350.24,23.62 346.61,27.76 346.61,32.82L346.61,32.9C346.61,37.97 350.32,42.19 355.56,42.19C360.8,42.19 364.42,38.05 364.42,32.99L364.43,32.99Z"
          style="fill:currentColor;fill-rule:nonzero;" />
        <path
          d="M376.2,44.55C375.48,44.04 374.98,43.12 374.98,42.1C374.98,40.41 376.33,39.1 378.02,39.1C378.86,39.1 379.46,39.4 379.88,39.69C382.12,41.34 384.57,42.35 387.44,42.35C390.1,42.35 391.7,41.29 391.7,39.56L391.7,39.48C391.7,37.83 390.69,36.99 385.75,35.72C379.8,34.2 375.96,32.55 375.96,26.69L375.96,26.61C375.96,21.25 380.26,17.7 386.3,17.7C389.89,17.7 393.01,18.63 395.67,20.32C396.39,20.74 397.11,21.63 397.11,22.89C397.11,24.58 395.76,25.89 394.07,25.89C393.44,25.89 392.93,25.72 392.42,25.43C390.27,24.16 388.24,23.45 386.22,23.45C383.73,23.45 382.42,24.59 382.42,26.02L382.42,26.1C382.42,28.04 383.69,28.67 388.79,29.98C394.78,31.54 398.16,33.69 398.16,38.84L398.16,38.92C398.16,44.79 393.69,48.08 387.31,48.08C383.43,48.08 379.5,46.9 376.21,44.53L376.21,44.55L376.2,44.55Z"
          style="fill:currentColor;fill-rule:nonzero;" />
        <path
          d="M156.49,57.44C156.49,55.63 157.93,54.19 159.74,54.19L160.42,54.19C161.98,54.19 162.91,54.95 163.8,56.09L176.34,72.55L176.34,57.31C176.34,55.54 177.78,54.1 179.55,54.1C181.32,54.1 182.76,55.54 182.76,57.31L182.76,80.82C182.76,82.64 181.32,84.07 179.51,84.07L179.3,84.07C177.74,84.07 176.81,83.31 175.92,82.17L162.92,65.12L162.92,80.95C162.92,82.72 161.48,84.16 159.71,84.16C157.94,84.16 156.5,82.72 156.5,80.95L156.5,57.44L156.49,57.44Z"
          style="fill:currentColor;fill-rule:nonzero;" />
        <path
          d="M189.83,80.66L189.83,57.61C189.83,55.79 191.27,54.36 193.08,54.36L209.46,54.36C211.06,54.36 212.37,55.67 212.37,57.27C212.37,58.87 211.06,60.14 209.46,60.14L196.29,60.14L196.29,66.14L207.56,66.14C209.16,66.14 210.47,67.45 210.47,69.05C210.47,70.65 209.16,71.92 207.56,71.92L196.29,71.92L196.29,78.12L209.67,78.12C211.27,78.12 212.58,79.43 212.58,81.03C212.58,82.63 211.27,83.9 209.67,83.9L193.08,83.9C191.26,83.9 189.83,82.46 189.83,80.65L189.83,80.66Z"
          style="fill:currentColor;fill-rule:nonzero;" />
        <path
          d="M216.8,69.22L216.8,69.14C216.8,60.74 223.34,53.86 232.29,53.86C236.76,53.86 239.72,54.87 242.38,56.73C243.01,57.19 243.73,58.08 243.73,59.35C243.73,61.12 242.29,62.56 240.52,62.56C239.59,62.56 239,62.22 238.54,61.89C236.77,60.62 234.87,59.86 232.08,59.86C227.35,59.86 223.6,64.04 223.6,69.06L223.6,69.14C223.6,74.54 227.31,78.51 232.55,78.51C234.91,78.51 237.02,77.92 238.67,76.74L238.67,72.52L234.28,72.52C232.72,72.52 231.45,71.3 231.45,69.73C231.45,68.16 232.72,66.9 234.28,66.9L241.71,66.9C243.52,66.9 244.96,68.33 244.96,70.15L244.96,77.33C244.96,79.23 244.24,80.54 242.68,81.47C240.27,82.95 236.77,84.42 232.34,84.42C223.14,84.42 216.81,77.96 216.81,69.22L216.8,69.22Z"
          style="fill:currentColor;fill-rule:nonzero;" />
        <path
          d="M251.19,57.61C251.19,55.79 252.63,54.36 254.44,54.36L264.7,54.36C268.46,54.36 271.37,55.42 273.31,57.36C274.96,59.01 275.84,61.33 275.84,64.11L275.84,64.19C275.84,68.83 273.52,71.7 269.93,73.18L274.45,78.67C275.08,79.47 275.51,80.15 275.51,81.16C275.51,82.97 273.99,84.16 272.43,84.16C270.87,84.16 269.98,83.44 269.22,82.47L262.89,74.45L257.7,74.45L257.7,80.91C257.7,82.72 256.26,84.16 254.45,84.16C252.64,84.16 251.2,82.72 251.2,80.91L251.2,57.61L251.19,57.61ZM264.28,68.71C267.45,68.71 269.26,67.02 269.26,64.53L269.26,64.45C269.26,61.66 267.32,60.23 264.15,60.23L257.69,60.23L257.69,68.72L264.28,68.72L264.28,68.71Z"
          style="fill:currentColor;fill-rule:nonzero;" />
        <path
          d="M280.4,69.22L280.4,69.14C280.4,60.74 287.03,53.86 296.15,53.86C305.27,53.86 311.81,60.66 311.81,69.06L311.81,69.14C311.81,77.54 305.18,84.42 296.06,84.42C286.94,84.42 280.4,77.62 280.4,69.22ZM305.01,69.22L305.01,69.14C305.01,64.07 301.3,59.85 296.06,59.85C290.82,59.85 287.2,63.99 287.2,69.05L287.2,69.13C287.2,74.19 290.91,78.42 296.15,78.42C301.39,78.42 305.01,74.28 305.01,69.22Z"
          style="fill:currentColor;fill-rule:nonzero;" />
        <path
          d="M316.78,80.78C316.06,80.27 315.56,79.35 315.56,78.33C315.56,76.64 316.91,75.33 318.6,75.33C319.44,75.33 320.04,75.63 320.46,75.92C322.7,77.57 325.15,78.58 328.02,78.58C330.68,78.58 332.28,77.52 332.28,75.79L332.28,75.71C332.28,74.06 331.27,73.22 326.33,71.95C320.38,70.43 316.54,68.78 316.54,62.92L316.54,62.84C316.54,57.48 320.85,53.93 326.88,53.93C330.47,53.93 333.59,54.86 336.25,56.55C336.97,56.97 337.69,57.86 337.69,59.12C337.69,60.81 336.34,62.12 334.65,62.12C334.02,62.12 333.51,61.95 333,61.66C330.85,60.39 328.82,59.68 326.8,59.68C324.31,59.68 323,60.82 323,62.25L323,62.33C323,64.27 324.27,64.9 329.37,66.21C335.36,67.77 338.74,69.92 338.74,75.07L338.74,75.15C338.74,81.02 334.27,84.31 327.89,84.31C324.01,84.31 320.08,83.13 316.79,80.76L316.79,80.78L316.78,80.78Z"
          style="fill:currentColor;fill-rule:nonzero;" />
        <path
          d="M156.49,93.58C156.49,91.77 157.93,90.33 159.74,90.33C161.55,90.33 162.99,91.77 162.99,93.58L162.99,114.22L175.02,114.22C176.67,114.22 177.98,115.53 177.98,117.17C177.98,118.81 176.67,120.13 175.02,120.13L159.74,120.13C157.92,120.13 156.49,118.69 156.49,116.88L156.49,93.58Z"
          style="fill:currentColor;fill-rule:nonzero;" />
        <path
          d="M180.97,115.95L191.27,92.69C191.99,91.09 193.3,90.12 195.07,90.12L195.45,90.12C197.22,90.12 198.49,91.09 199.21,92.69L209.51,115.95C209.72,116.41 209.85,116.84 209.85,117.26C209.85,118.99 208.5,120.38 206.77,120.38C205.25,120.38 204.24,119.49 203.65,118.14L201.67,113.5L188.67,113.5L186.6,118.35C186.05,119.62 184.95,120.38 183.6,120.38C181.91,120.38 180.6,119.03 180.6,117.34C180.6,116.88 180.77,116.41 180.98,115.95L180.97,115.95ZM199.25,107.76L195.16,98.01L191.07,107.76L199.26,107.76L199.25,107.76Z"
          style="fill:currentColor;fill-rule:nonzero;" />
        <path
          d="M226.3,105.44L226.3,105.36C226.3,96.96 232.63,90.08 241.71,90.08C246.14,90.08 249.14,91.26 251.59,93.08C252.27,93.59 252.86,94.51 252.86,95.65C252.86,97.42 251.42,98.82 249.65,98.82C248.76,98.82 248.17,98.48 247.71,98.19C245.9,96.84 244,96.08 241.67,96.08C236.69,96.08 233.1,100.22 233.1,105.28L233.1,105.36C233.1,110.42 236.6,114.65 241.67,114.65C244.41,114.65 246.23,113.81 248.09,112.33C248.6,111.91 249.27,111.61 250.03,111.61C251.68,111.61 253.07,112.96 253.07,114.61C253.07,115.62 252.56,116.42 251.97,116.93C249.31,119.25 246.19,120.64 241.46,120.64C232.76,120.64 226.31,113.93 226.31,105.44L226.3,105.44Z"
          style="fill:currentColor;fill-rule:nonzero;" />
        <path
          d="M258.75,116.88L258.75,93.83C258.75,92.02 260.19,90.58 262,90.58L278.38,90.58C279.98,90.58 281.29,91.89 281.29,93.49C281.29,95.09 279.98,96.36 278.38,96.36L265.21,96.36L265.21,102.35L276.48,102.35C278.08,102.35 279.39,103.66 279.39,105.26C279.39,106.86 278.08,108.13 276.48,108.13L265.21,108.13L265.21,114.33L278.59,114.33C280.19,114.33 281.5,115.64 281.5,117.24C281.5,118.84 280.19,120.11 278.59,120.11L262,120.11C260.18,120.11 258.75,118.67 258.75,116.86L258.75,116.88Z"
          style="fill:currentColor;fill-rule:nonzero;" />
        <path
          d="M287.02,93.67C287.02,91.86 288.46,90.42 290.27,90.42L290.95,90.42C292.51,90.42 293.44,91.18 294.33,92.32L306.87,108.78L306.87,93.54C306.87,91.77 308.31,90.33 310.08,90.33C311.85,90.33 313.29,91.77 313.29,93.54L313.29,117.05C313.29,118.87 311.85,120.3 310.04,120.3L309.83,120.3C308.27,120.3 307.34,119.54 306.45,118.4L293.45,101.35L293.45,117.18C293.45,118.95 292.01,120.39 290.24,120.39C288.47,120.39 287.03,118.95 287.03,117.18L287.03,93.67L287.02,93.67Z"
          style="fill:currentColor;fill-rule:nonzero;" />
        <path
          d="M327.24,96.58L320.99,96.58C319.34,96.58 317.99,95.23 317.99,93.58C317.99,91.93 319.34,90.58 320.99,90.58L339.99,90.58C341.64,90.58 342.99,91.93 342.99,93.58C342.99,95.23 341.64,96.58 339.99,96.58L333.74,96.58L333.74,117.14C333.74,118.95 332.3,120.39 330.49,120.39C328.68,120.39 327.24,118.95 327.24,117.14L327.24,96.58Z"
          style="fill:currentColor;fill-rule:nonzero;" />
        <path
          d="M347.71,93.83C347.71,92.02 349.15,90.58 350.96,90.58L361.22,90.58C364.98,90.58 367.89,91.64 369.83,93.58C371.48,95.23 372.36,97.55 372.36,100.33L372.36,100.41C372.36,105.05 370.04,107.92 366.45,109.4L370.97,114.89C371.6,115.69 372.03,116.37 372.03,117.38C372.03,119.19 370.51,120.38 368.95,120.38C367.39,120.38 366.5,119.66 365.74,118.69L359.41,110.67L354.22,110.67L354.22,117.13C354.22,118.94 352.78,120.38 350.97,120.38C349.16,120.38 347.72,118.94 347.72,117.13L347.72,93.83L347.71,93.83ZM360.79,104.94C363.96,104.94 365.77,103.25 365.77,100.76L365.77,100.68C365.77,97.89 363.83,96.46 360.66,96.46L354.2,96.46L354.2,104.95L360.79,104.95L360.79,104.94Z"
          style="fill:currentColor;fill-rule:nonzero;" />
        <path
          d="M376.57,115.95L386.87,92.69C387.59,91.09 388.9,90.12 390.67,90.12L391.05,90.12C392.82,90.12 394.09,91.09 394.81,92.69L405.11,115.95C405.32,116.41 405.45,116.84 405.45,117.26C405.45,118.99 404.1,120.38 402.37,120.38C400.85,120.38 399.84,119.49 399.25,118.14L397.27,113.5L384.27,113.5L382.2,118.35C381.65,119.62 380.55,120.38 379.2,120.38C377.51,120.38 376.2,119.03 376.2,117.34C376.2,116.88 376.37,116.41 376.58,115.95L376.57,115.95ZM394.85,107.76L390.75,98.01L386.66,107.76L394.85,107.76Z"
          style="fill:currentColor;fill-rule:nonzero;" />
        <path
          d="M410.55,93.58C410.55,91.77 411.99,90.33 413.8,90.33C415.61,90.33 417.05,91.77 417.05,93.58L417.05,114.22L429.08,114.22C430.73,114.22 432.04,115.53 432.04,117.17C432.04,118.81 430.73,120.13 429.08,120.13L413.8,120.13C411.99,120.13 410.55,118.69 410.55,116.88L410.55,93.58Z"
          style="fill:currentColor;fill-rule:nonzero;" />
        <path
          d="M84.58,30.68L55.39,30.74C43.01,31.86 33.68,42.41 33.99,54.29C34.28,65.36 42.87,74.95 54.31,76.49C59.59,71.06 64.87,65.63 70.16,60.2L57.54,60.02C53.65,60.25 50.39,57.2 50.29,53.57C50.19,49.79 53.57,46.47 57.63,46.77C63.53,46.69 78.82,46.6 84.72,46.52C89.05,46.46 92.53,42.93 92.53,38.6C92.53,34.22 88.97,30.66 84.58,30.68Z"
          style="fill:currentColor;fill-rule:nonzero;" />
        <path
          d="M54.5,77.02L54.25,76.99C42.72,75.43 33.79,65.68 33.49,54.3C33.17,41.95 42.76,31.38 55.34,30.24L84.58,30.17L84.61,30.17C86.85,30.17 88.96,31.04 90.55,32.63C92.15,34.22 93.03,36.34 93.03,38.59C93.03,43.17 89.31,46.95 84.73,47.01C81.79,47.05 76.52,47.09 71.23,47.13C65.92,47.17 60.59,47.21 57.63,47.25C55.8,47.12 54.01,47.76 52.7,49.02C51.43,50.23 50.73,51.88 50.78,53.54C50.82,55.13 51.55,56.69 52.78,57.82C54.08,59.01 55.76,59.6 57.5,59.5L71.32,59.69L54.49,77L54.49,77.02L54.5,77.02ZM84.59,31.18L55.4,31.24C43.39,32.33 34.19,42.44 34.5,54.27C34.78,65.08 43.21,74.36 54.14,75.96L69,60.68L57.54,60.52C55.55,60.63 53.62,59.95 52.12,58.58C50.69,57.27 49.84,55.45 49.79,53.59C49.74,51.64 50.55,49.72 52.02,48.32C53.53,46.87 55.59,46.13 57.67,46.28C60.59,46.24 65.91,46.2 71.23,46.15C76.51,46.11 81.78,46.07 84.72,46.03C88.75,45.97 92.04,42.64 92.04,38.61C92.04,36.62 91.26,34.76 89.86,33.35C88.46,31.95 86.6,31.18 84.62,31.18L84.59,31.18Z"
          style="fill:white;fill-rule:nonzero;" />
        <path
          d="M71.18,76.68L86.76,60.48C100.38,60.78 110.76,72.37 109.93,84.82C109.19,95.99 99.59,105.47 87.47,106.03C80.12,106.09 72.76,106.14 65.41,106.2L57.34,114.01C53.94,116.69 49.12,116.39 46.26,113.51C43.73,110.95 43.22,106.83 45.13,103.53C48.81,99.96 52.91,95.91 56.72,92.19C58.04,90.9 59.8,90.19 61.65,90.19L86.77,90.22C90.74,90.42 94.06,87.3 94.17,83.57C94.28,79.67 90.84,76.27 86.69,76.53C82.19,76.58 75.7,76.63 71.2,76.69L71.18,76.69L71.18,76.68Z"
          style="fill:currentColor;fill-rule:nonzero;" />
        <path
          d="M51.99,116.34C49.73,116.34 47.51,115.5 45.89,113.86C43.17,111.1 42.67,106.75 44.68,103.27L44.76,103.16C46.94,101.05 49.26,98.77 51.59,96.49C53.19,94.92 54.8,93.35 56.35,91.83C57.77,90.45 59.64,89.69 61.62,89.69L86.74,89.72C88.55,89.81 90.26,89.19 91.58,87.97C92.84,86.81 93.59,85.2 93.64,83.55C93.69,81.83 92.97,80.13 91.68,78.87C90.35,77.58 88.54,76.91 86.69,77.01C84.42,77.04 81.67,77.06 78.92,77.09C76.17,77.12 73.42,77.14 71.17,77.17L69.98,77.17L86.54,59.96L86.76,59.96C93.5,60.11 99.73,62.94 104.28,67.92C108.58,72.62 110.82,78.79 110.41,84.84C109.64,96.44 99.56,105.96 87.47,106.52L65.59,106.69L57.66,114.36C55.99,115.68 53.97,116.33 51.98,116.33L51.99,116.34ZM45.51,103.85C43.77,106.93 44.21,110.75 46.6,113.17C49.3,115.9 53.87,116.11 57.01,113.63L65.19,105.71L87.45,105.54C99.02,105 108.68,95.89 109.42,84.79C109.8,79.01 107.66,73.11 103.55,68.61C99.23,63.89 93.34,61.18 86.96,60.98L72.36,76.16C74.36,76.14 76.63,76.12 78.91,76.1C81.66,76.07 84.41,76.05 86.66,76.02C88.75,75.89 90.85,76.67 92.38,78.16C93.87,79.61 94.7,81.58 94.64,83.58C94.59,85.49 93.72,87.36 92.26,88.7C90.74,90.1 88.77,90.82 86.71,90.71L61.62,90.68C59.9,90.68 58.28,91.34 57.05,92.54C55.5,94.06 53.89,95.63 52.29,97.2C49.98,99.46 47.67,101.73 45.51,103.83L45.51,103.85Z"
          style="fill:white;fill-rule:nonzero;" />
      </g>
    </g>
  </g>
</svg>
