<?xml version="1.0" encoding="UTF-8" standalone="no"?>
<!DOCTYPE svg PUBLIC "-//W3C//DTD SVG 1.1//EN" "http://www.w3.org/Graphics/SVG/1.1/DTD/svg11.dtd">
<svg width="100%" height="100%" viewBox="0 0 584 292" version="1.1" xmlns="http://www.w3.org/2000/svg"
  xmlns:xlink="http://www.w3.org/1999/xlink" xml:space="preserve" xmlns:serif="http://www.serif.com/"
  style="fill-rule:evenodd;clip-rule:evenodd;stroke-linejoin:round;stroke-miterlimit:2;">
  <g transform="matrix(0.830838,0,0,0.830838,84.235,79.3026)">
    <g id="Capa14">
      <g>
        <path
          d="M226.68,70.91C226.68,67.45 224.61,65.71 220.46,65.71C217.628,65.785 214.879,66.693 212.56,68.32C211.915,68.73 211.309,69.199 210.75,69.72C210.439,70.09 209.992,70.321 209.51,70.36C209.11,70.358 208.718,70.243 208.38,70.03C208,69.819 207.661,69.541 207.38,69.21C206.93,68.758 206.676,68.146 206.676,67.508C206.676,66.72 207.063,65.98 207.71,65.53C209.597,63.737 212.733,62.58 217.12,62.06C218.236,61.945 219.358,61.891 220.48,61.9C221.946,61.921 223.397,62.195 224.77,62.71C226.164,63.186 227.451,63.93 228.56,64.9C230.588,66.694 231.727,69.293 231.67,72C231.6,75.575 230.057,78.967 227.41,81.37C224.98,83.822 221.986,85.642 218.69,86.67C219.753,87.708 220.623,88.927 221.26,90.27L223.16,94C224.81,97.39 226.29,99.24 227.6,99.53C228.068,99.634 228.552,99.634 229.02,99.53C229.345,99.434 229.681,99.377 230.02,99.36C230.17,99.36 230.27,99.52 230.32,99.79C230.354,100.136 230.284,100.484 230.12,100.79C229.906,101.245 229.591,101.645 229.2,101.96C228.327,102.79 227.141,103.212 225.94,103.12C224.933,103.081 223.949,102.803 223.07,102.31C222.314,101.866 221.638,101.298 221.07,100.63C220.483,99.928 219.97,99.167 219.54,98.36C219.09,97.53 218.67,96.67 218.29,95.8L217.23,93.24C216.9,92.41 216.59,91.69 216.31,91.09C216.03,90.49 215.78,89.94 215.57,89.45C215.384,88.981 215.156,88.529 214.89,88.1C214.454,87.28 213.714,86.663 212.83,86.38C209.497,95.78 206.133,101.14 202.74,102.46C202.465,102.577 202.169,102.638 201.87,102.64C201.346,102.645 200.844,102.426 200.49,102.04C200.181,101.757 200,101.359 199.99,100.94C199.954,100.605 200.09,100.274 200.35,100.06C202.71,98.16 205.333,92.627 208.22,83.46L209.64,79.05C211.26,73.97 212.64,70.83 213.75,69.65C214.088,69.343 214.524,69.166 214.98,69.15C215.366,69.143 215.748,69.221 216.1,69.38C216.405,69.516 216.683,69.705 216.92,69.94C217.398,70.335 217.692,70.911 217.73,71.53C217.737,72.039 217.624,72.543 217.4,73C217.12,73.58 216.88,74.178 216.68,74.79C215.9,77.01 215.31,78.79 214.88,80.14L213.67,83.9C217.025,83.414 220.145,81.889 222.59,79.54C225.134,77.39 226.627,74.241 226.68,70.91Z"
          style="fill:currentColor;fill-rule:nonzero;" />
        <path
          d="M255.29,83.3C253.35,83.11 251.46,83.02 249.61,83.02C247.684,83.024 245.759,83.155 243.85,83.41C241.343,91.137 238.653,96.667 235.78,100C234.913,101.097 233.785,101.96 232.5,102.51C232.225,102.627 231.929,102.688 231.63,102.69C231.361,102.693 231.094,102.635 230.85,102.52C230.639,102.416 230.452,102.27 230.3,102.09C229.995,101.8 229.815,101.401 229.8,100.98C229.767,100.648 229.903,100.322 230.16,100.11C232.66,98.11 235.327,92.95 238.16,84.63L237.81,84.73L237.41,84.86C237.207,84.906 236.994,84.85 236.84,84.71C236.607,84.538 236.407,84.324 236.25,84.08C235.84,83.46 235.78,82.99 236.08,82.7C237.016,81.968 238.096,81.443 239.25,81.16C241.357,73.94 242.453,68.823 242.54,65.81C241.9,65.845 241.28,66.045 240.74,66.39L238.94,67.51C238.46,67.8 237.81,67.57 237.01,66.8C236.351,66.317 235.975,65.536 236.01,64.72C236.12,63.72 237.38,62.91 239.79,62.26C240.441,62.069 241.112,61.955 241.79,61.92L243.24,61.92C243.686,61.941 244.128,62.008 244.56,62.12C245.85,62.309 246.951,63.16 247.46,64.36C247.631,64.931 247.712,65.524 247.7,66.12C247.692,66.933 247.629,67.745 247.51,68.55C247.38,69.48 247.21,70.55 246.97,71.72C246.457,74.3 245.79,77.05 244.97,79.97C248.505,79.512 252.066,79.285 255.63,79.29L256.63,79.29L257.93,75.01C259.084,71.436 259.976,67.783 260.6,64.08C260.81,62.61 261.47,61.88 262.6,61.88C263.252,61.857 263.892,62.071 264.4,62.48C265.172,62.998 265.646,63.86 265.67,64.79C265.627,65.727 265.493,66.658 265.27,67.57C265.03,68.57 264.73,69.75 264.35,71.02C263.97,72.29 263.54,73.65 263.05,75.12L261.56,79.53L262.13,79.53L262.8,79.62C262.989,79.64 263.174,79.687 263.35,79.76C263.659,79.859 263.865,80.156 263.85,80.48C263.843,80.853 263.75,81.219 263.58,81.55C263.386,81.945 263.126,82.304 262.81,82.61C262.09,83.41 261.076,83.886 260,83.93C258.08,89.517 256.96,92.94 256.64,94.2C256.4,95.039 256.243,95.9 256.17,96.77C256.17,97.71 256.503,98.18 257.17,98.18C257.701,98.204 258.229,98.087 258.7,97.84L259.56,97.37C259.712,97.291 259.879,97.247 260.05,97.24C260.38,97.24 260.55,97.42 260.55,97.79C260.499,99.43 259.564,100.92 258.11,101.68C257.123,102.335 255.964,102.683 254.78,102.68C253.258,102.74 251.874,101.764 251.42,100.31C251.211,99.823 251.099,99.3 251.09,98.77C251.095,97.611 251.253,96.458 251.56,95.34C251.88,94.18 252.23,93 252.56,91.8L255.29,83.3Z"
          style="fill:currentColor;fill-rule:nonzero;" />
        <path
          d="M301.47,101.6C301.47,102.37 301.18,102.75 300.6,102.75C300.202,102.737 299.816,102.608 299.49,102.38C298.27,101.17 296.3,100.56 293.55,100.56C290.94,100.541 288.342,100.908 285.84,101.65L284.02,102.17C283.05,102.495 282.041,102.69 281.02,102.75C280.517,102.797 280.013,102.662 279.6,102.37C279.307,102.078 279.064,101.741 278.88,101.37C278.48,100.706 278.246,99.954 278.2,99.18C278.195,98.599 278.287,98.021 278.47,97.47C278.836,96.563 279.281,95.689 279.8,94.86C280.507,93.653 281.363,92.32 282.37,90.86C283.37,89.41 284.49,87.86 285.71,86.26L289.52,81.38L297.18,72.01L302.81,65.3L299.64,66.63C295.54,68.35 292.717,69.21 291.17,69.21C289.95,69.262 288.731,69.096 287.57,68.72C286.721,68.397 286.012,67.784 285.57,66.99C285.01,65.778 284.779,64.44 284.9,63.11C284.9,62.31 285.11,61.89 285.52,61.87C285.904,61.838 286.29,61.918 286.63,62.1C286.96,62.28 287.36,62.49 287.81,62.71C289.119,63.339 290.558,63.654 292.01,63.63C293.395,63.645 294.779,63.551 296.15,63.35C297.34,63.17 298.42,62.97 299.38,62.74L301.88,62.14C302.466,61.97 303.07,61.873 303.68,61.85C304.196,61.864 304.693,62.043 305.1,62.36C305.573,62.703 306.003,63.103 306.38,63.55C307.084,64.242 307.553,65.137 307.72,66.11C307.638,66.977 307.338,67.809 306.85,68.53C306.14,69.715 305.352,70.851 304.49,71.93C303.49,73.197 302.347,74.57 301.06,76.05C294.067,84.017 289.933,88.777 288.66,90.33C286.4,92.925 284.419,95.751 282.75,98.76C286.091,97.183 289.657,96.134 293.32,95.65C294.19,95.513 295.069,95.436 295.95,95.42C296.489,95.409 297.028,95.446 297.56,95.53C297.991,95.608 298.405,95.764 298.78,95.99C299.69,96.616 300.41,97.481 300.86,98.49C301.296,99.467 301.505,100.531 301.47,101.6Z"
          style="fill:currentColor;fill-rule:nonzero;" />
        <path
          d="M307,100.71C306.298,99.947 305.767,99.044 305.44,98.06C305.043,96.836 304.844,95.557 304.85,94.27C304.842,92.776 305.006,91.286 305.34,89.83C305.676,88.343 306.159,86.892 306.78,85.5C307.384,84.121 308.128,82.807 309,81.58C309.831,80.407 310.801,79.339 311.89,78.4C313.845,76.587 316.395,75.545 319.06,75.47C322.082,75.321 324.83,77.291 325.66,80.2C326.489,82.888 326.537,85.756 325.8,88.47C325.149,91.42 323.911,94.209 322.16,96.67C320.638,98.981 318.505,100.826 316,102C314.886,102.501 313.681,102.767 312.46,102.78C311.409,102.795 310.363,102.626 309.37,102.28C308.467,101.951 307.655,101.413 307,100.71ZM311.52,88.06C311.042,89.362 310.668,90.699 310.4,92.06C310.129,93.325 309.998,94.616 310.01,95.91C309.975,96.885 310.149,97.857 310.52,98.76C310.782,99.387 311.411,99.788 312.09,99.76C312.875,99.734 313.629,99.445 314.23,98.94C314.991,98.306 315.664,97.573 316.23,96.76C316.947,95.772 317.573,94.721 318.1,93.62C318.692,92.421 319.206,91.185 319.64,89.92C320.53,87.529 321,85.001 321.03,82.45C321.03,80.54 320.68,79.32 319.97,78.8C319.616,78.574 319.199,78.466 318.78,78.49C318.121,78.545 317.499,78.815 317.01,79.26C316.256,79.859 315.583,80.555 315.01,81.33C314.291,82.295 313.649,83.315 313.09,84.38C312.481,85.571 311.949,86.8 311.5,88.06L311.52,88.06Z"
          style="fill:currentColor;fill-rule:nonzero;" />
        <path
          d="M330.84,101.44C330.416,100.929 330.093,100.342 329.89,99.71C329.629,98.92 329.504,98.092 329.52,97.26C329.567,95.992 329.762,94.733 330.1,93.51C330.487,91.937 330.98,90.153 331.58,88.16L333.58,81.66C336.407,72.613 338.04,65.613 338.48,60.66C338.62,59.19 339.27,58.46 340.42,58.46C341.066,58.439 341.699,58.644 342.21,59.04C343.039,59.629 343.535,60.583 343.54,61.6C343.483,62.754 343.332,63.901 343.09,65.03C342.82,66.38 342.48,67.85 342.09,69.44C341.7,71.03 341.18,72.71 340.62,74.49L337.36,85.09C335.48,91.09 334.543,94.977 334.55,96.75C334.55,97.69 334.89,98.16 335.55,98.16C336.185,98.169 336.81,98.007 337.36,97.69C337.678,97.47 338.034,97.311 338.41,97.22C338.74,97.22 338.9,97.4 338.9,97.77C338.89,99.346 338.079,100.813 336.75,101.66C336.009,102.286 335.088,102.661 334.12,102.73C333.463,102.751 332.808,102.646 332.19,102.42C331.671,102.201 331.209,101.866 330.84,101.44Z"
          style="fill:currentColor;fill-rule:nonzero;" />
        <path
          d="M365.27,97.35C365.64,97.35 365.82,97.55 365.82,97.95C365.818,99.47 365.07,100.895 363.82,101.76C362.882,102.43 361.753,102.781 360.6,102.76C359.754,102.817 358.92,102.536 358.28,101.98C357.338,101.083 356.815,99.83 356.84,98.53C356.84,96.81 357.507,94.173 358.84,90.62C356.413,94.24 354.71,96.647 353.73,97.84C352.949,98.827 352.097,99.757 351.18,100.62C349.6,102.05 348.18,102.76 346.9,102.76C345.11,102.871 343.473,101.7 343,99.97C342.8,99.323 342.705,98.647 342.72,97.97C342.731,97.133 342.845,96.3 343.06,95.49C343.304,94.522 343.597,93.567 343.94,92.63C344.31,91.63 344.7,90.63 345.13,89.57L346.4,86.44C348.04,82.44 348.65,80.057 348.23,79.29C347.957,78.877 347.59,78.535 347.16,78.29C346.96,78.142 346.853,77.898 346.88,77.65C346.884,77.329 347.005,77.019 347.22,76.78C347.467,76.482 347.769,76.234 348.11,76.05C348.819,75.663 349.612,75.454 350.42,75.44C351.02,75.413 351.619,75.508 352.18,75.72C352.558,75.877 352.899,76.112 353.18,76.41C353.676,76.922 353.956,77.607 353.96,78.32C353.949,79.106 353.845,79.888 353.65,80.65C353.44,81.51 353.18,82.45 352.85,83.46C352.52,84.47 352.15,85.51 351.76,86.59C350.667,89.41 349.933,91.27 349.56,92.17L348.68,94.17C348.3,94.971 348.053,95.829 347.95,96.71C347.927,97.056 348,97.402 348.16,97.71C348.352,97.93 348.64,98.042 348.93,98.01C349.412,97.965 349.866,97.761 350.22,97.43C350.769,96.997 351.281,96.519 351.75,96C352.33,95.36 352.94,94.62 353.57,93.77C354.2,92.92 354.81,92.05 355.41,91.15C356.356,89.773 357.224,88.344 358.01,86.87C361.343,80.337 363.127,76.927 363.36,76.64C363.86,75.89 364.36,75.51 364.91,75.51C365.378,75.502 365.844,75.57 366.29,75.71C366.656,75.831 366.996,76.021 367.29,76.27C367.95,76.81 368.16,77.35 367.93,77.89C364.083,86.75 362.01,92.317 361.71,94.59C361.63,95.383 361.59,95.923 361.59,96.21C361.59,97.53 361.95,98.21 362.68,98.21C363.267,98.232 363.849,98.09 364.36,97.8C364.626,97.584 364.937,97.431 365.27,97.35Z"
          style="fill:currentColor;fill-rule:nonzero;" />
        <path
          d="M369.91,93.48C369.944,91.953 370.162,90.435 370.56,88.96C370.949,87.485 371.488,86.054 372.17,84.69C372.826,83.374 373.627,82.136 374.56,81C375.438,79.909 376.445,78.928 377.56,78.08C379.594,76.441 382.119,75.529 384.73,75.49C387.042,75.321 389.201,76.714 390,78.89C390.34,79.776 390.497,80.722 390.46,81.67C390.448,82.638 390.293,83.598 390,84.52C389.741,85.332 389.381,86.108 388.93,86.83C387.93,88.36 387,89.13 386.03,89.13C385.111,89.199 384.212,88.827 383.61,88.13C383.164,87.567 383.008,86.825 383.19,86.13C383.255,85.884 383.404,85.669 383.61,85.52C383.936,85.258 384.237,84.967 384.51,84.65C385.521,83.501 386.092,82.03 386.12,80.5C386.12,79.42 385.52,78.88 384.32,78.88C383.12,78.88 381.733,79.697 380.16,81.33C377.929,83.962 376.392,87.112 375.69,90.49C374.943,93.73 375.087,96.097 376.12,97.59C376.673,98.431 377.624,98.927 378.63,98.9C381.156,98.76 383.493,97.502 385,95.47C385.31,95.01 385.61,94.79 385.88,94.79C386.165,94.8 386.422,94.965 386.55,95.22C386.742,95.557 386.836,95.942 386.82,96.33C386.771,97.446 386.328,98.509 385.57,99.33C383.598,101.512 380.781,102.747 377.84,102.72C375.575,102.868 373.363,101.972 371.84,100.29C370.493,98.71 369.85,96.44 369.91,93.48Z"
          style="fill:currentColor;fill-rule:nonzero;" />
        <path
          d="M400.46,97.61C400.87,97.61 401.08,97.9 401.08,98.49C401.03,99.389 400.677,100.246 400.08,100.92C399.185,102.114 397.761,102.797 396.27,102.75C394.616,102.859 393.078,101.857 392.51,100.3C392.242,99.637 392.113,98.925 392.13,98.21C392.144,97.287 392.275,96.37 392.52,95.48C392.78,94.48 393.1,93.48 393.52,92.32C393.94,91.16 394.33,90.1 394.79,88.97L396,85.68C396.674,84.133 397.135,82.501 397.37,80.83C397.415,80.3 397.34,79.767 397.15,79.27C397.024,79.048 396.858,78.852 396.66,78.69L396.19,78.32C396.013,78.157 395.924,77.919 395.95,77.68C395.956,77.362 396.069,77.056 396.27,76.81C396.497,76.512 396.783,76.263 397.11,76.08C397.87,75.665 398.725,75.455 399.59,75.47C401.91,75.47 403.07,76.137 403.07,77.47C403.03,79.312 402.668,81.133 402,82.85C401.26,84.85 400.63,86.473 400.11,87.72L398.69,91.32C397.867,93.117 397.34,95.035 397.13,97C397.13,97.77 397.47,98.15 398.13,98.15C398.656,98.184 399.183,98.084 399.66,97.86C399.904,97.717 400.178,97.632 400.46,97.61ZM405.31,69.35C404.975,69.747 404.576,70.085 404.13,70.35C403.698,70.596 403.223,70.756 402.73,70.82C402.255,70.88 401.774,70.792 401.35,70.57C400.903,70.326 400.516,69.984 400.22,69.57C399.602,68.83 399.25,67.904 399.22,66.94C399.175,66.251 399.31,65.562 399.61,64.94C399.86,64.511 400.202,64.143 400.61,63.86C401.221,63.374 401.97,63.09 402.75,63.05C403.274,63.035 403.798,63.085 404.31,63.2C404.673,63.313 405.013,63.493 405.31,63.73C406.023,64.191 406.459,64.981 406.47,65.83C406.488,66.53 406.38,67.228 406.15,67.89C405.96,68.423 405.676,68.918 405.31,69.35Z"
          style="fill:currentColor;fill-rule:nonzero;" />
        <path
          d="M408.6,100.71C407.877,99.956 407.331,99.051 407,98.06C406.595,96.838 406.392,95.558 406.4,94.27C406.392,92.776 406.556,91.286 406.89,89.83C407.226,88.343 407.709,86.892 408.33,85.5C408.943,84.12 409.697,82.806 410.58,81.58C411.411,80.407 412.381,79.339 413.47,78.4C415.425,76.587 417.975,75.545 420.64,75.47C423.663,75.318 426.413,77.289 427.24,80.2C428.069,82.888 428.117,85.756 427.38,88.47C426.729,91.42 425.491,94.209 423.74,96.67C422.203,98.975 420.056,100.81 417.54,101.97C416.43,102.471 415.228,102.737 414.01,102.75C412.955,102.766 411.906,102.597 410.91,102.25C410.03,101.924 409.239,101.397 408.6,100.71ZM413.11,88.06C412.639,89.343 412.267,90.66 412,92C411.729,93.265 411.598,94.556 411.61,95.85C411.575,96.825 411.749,97.797 412.12,98.7C412.382,99.327 413.011,99.728 413.69,99.7C414.475,99.674 415.229,99.385 415.83,98.88C416.606,98.246 417.295,97.513 417.88,96.7C418.59,95.709 419.212,94.659 419.74,93.56C420.336,92.363 420.851,91.127 421.28,89.86C422.168,87.468 422.641,84.941 422.68,82.39C422.68,80.48 422.32,79.26 421.61,78.74C421.256,78.514 420.839,78.406 420.42,78.43C419.765,78.487 419.146,78.757 418.66,79.2C417.903,79.797 417.23,80.493 416.66,81.27C415.941,82.235 415.299,83.255 414.74,84.32C414.119,85.531 413.574,86.78 413.11,88.06Z"
          style="fill:currentColor;fill-rule:nonzero;" />
        <path
          d="M448.35,80.41C447.86,80.41 447.16,80.93 446.27,81.96C445.38,82.99 444.59,83.96 443.92,84.79L441.92,87.45L438,92.91C437.08,94.82 436.37,96.42 435.84,97.69L434.57,100.69C434.348,101.251 434.055,101.782 433.7,102.27C433.463,102.579 433.088,102.751 432.7,102.73C432.284,102.732 431.872,102.646 431.49,102.48C431.122,102.326 430.784,102.11 430.49,101.84C429.94,101.389 429.611,100.721 429.59,100.01C429.681,99.472 429.856,98.953 430.11,98.47L431.01,96.36C431.29,95.73 431.63,94.93 432.01,93.96L433.34,90.38C435.2,85.247 436.13,81.933 436.13,80.44C436.184,79.772 435.921,79.116 435.42,78.67L434.95,78.3C434.773,78.137 434.684,77.899 434.71,77.66C434.716,77.342 434.829,77.036 435.03,76.79C435.257,76.492 435.543,76.243 435.87,76.06C436.518,75.674 437.256,75.463 438.01,75.45C438.579,75.424 439.148,75.516 439.68,75.72C440.06,75.878 440.402,76.117 440.68,76.42C441.211,76.916 441.524,77.604 441.55,78.33C441.551,79.003 441.477,79.674 441.33,80.33C441.173,81.006 440.983,81.673 440.76,82.33C440.53,83.02 440.29,83.69 440.04,84.33C439.79,84.97 439.56,85.57 439.35,86.05L438.88,87.18C438.75,87.45 438.72,87.54 438.79,87.44C440.54,84.76 441.69,83.03 442.24,82.27L443.89,80.08C444.725,78.937 445.699,77.903 446.79,77C447.716,76.165 448.867,75.619 450.1,75.43C450.782,75.418 451.46,75.533 452.1,75.77C452.643,76.001 453.134,76.342 453.54,76.77C454.414,77.677 454.884,78.901 454.84,80.16C454.822,81.637 454.534,83.097 453.99,84.47C453.42,85.97 452.93,87.18 452.51,88.11C452.09,89.04 451.73,90 451.35,91C450.407,92.998 449.809,95.142 449.58,97.34C449.58,97.94 450,98.23 450.85,98.23C451.485,98.242 452.111,98.079 452.66,97.76C452.982,97.541 453.341,97.382 453.72,97.29C454.05,97.29 454.21,97.47 454.21,97.84C454.196,99.415 453.386,100.88 452.06,101.73C451.312,102.358 450.384,102.733 449.41,102.8C448.732,102.817 448.055,102.719 447.41,102.51C446.879,102.319 446.4,102.007 446.01,101.6C445.029,100.564 444.521,99.164 444.61,97.74C444.738,95.135 445.324,92.572 446.34,90.17C447.173,88.097 447.763,86.677 448.11,85.91L448.91,84.06C449.326,83.236 449.577,82.34 449.65,81.42C449.65,80.73 449.21,80.41 448.35,80.41Z"
          style="fill:currentColor;fill-rule:nonzero;" />
        <path
          d="M458.7,93.35C458.758,91.881 458.99,90.424 459.39,89.01C459.792,87.623 460.331,86.28 461,85C461.665,83.706 462.445,82.474 463.33,81.32C464.184,80.217 465.157,79.211 466.23,78.32C468.103,76.608 470.524,75.615 473.06,75.52C475.491,75.342 477.742,76.88 478.46,79.21C478.795,80.173 478.944,81.191 478.9,82.21C478.899,83.291 478.699,84.362 478.31,85.37C477.938,86.329 477.408,87.218 476.74,88C476.024,88.77 475.211,89.442 474.32,90C473.381,90.637 472.375,91.17 471.32,91.59C469.024,92.487 466.585,92.965 464.12,93C464.041,93.358 464.001,93.723 464,94.09C463.987,94.64 464.034,95.19 464.14,95.73C464.237,96.292 464.43,96.833 464.71,97.33C465.149,98.29 466.115,98.906 467.17,98.9C469.09,98.867 470.954,98.246 472.51,97.12C473.064,96.777 473.569,96.359 474.01,95.88C474.25,95.547 474.607,95.318 475.01,95.24C475.29,95.24 475.54,95.43 475.75,95.8C475.969,96.187 476.08,96.626 476.07,97.07C476.096,97.925 475.847,98.767 475.36,99.47C473.36,101.663 470.407,102.76 466.5,102.76C464.394,102.847 462.353,102.006 460.92,100.46C459.263,98.481 458.463,95.92 458.7,93.35ZM472.51,79C470.863,79 469.273,80.25 467.74,82.75C466.343,85.151 465.289,87.736 464.61,90.43C467.235,90.136 469.669,88.912 471.47,86.98C473.25,85.1 474.15,83.3 474.15,81.58C474.15,79.86 473.6,79 472.51,79Z"
          style="fill:currentColor;fill-rule:nonzero;" />
        <path
          d="M480.18,97.89C480.173,97.372 480.282,96.86 480.5,96.39C480.691,95.959 480.959,95.566 481.29,95.23C481.814,94.623 482.568,94.26 483.37,94.23C484,94.23 484.31,94.59 484.31,95.3C484.31,97.11 484.86,98.38 485.95,99.09C486.311,99.341 486.74,99.477 487.18,99.48C487.547,99.49 487.912,99.436 488.26,99.32C488.567,99.214 488.849,99.047 489.09,98.83C489.627,98.387 489.939,97.726 489.94,97.03C489.948,96.366 489.804,95.71 489.52,95.11C489.203,94.474 488.846,93.86 488.45,93.27L487.11,91.18C485.411,88.957 484.421,86.273 484.27,83.48C484.29,81.488 485.095,79.582 486.51,78.18C488.209,76.392 490.594,75.412 493.06,75.49C495.064,75.372 497.035,76.06 498.53,77.4C499.537,78.294 500.119,79.574 500.13,80.92C500.183,82.173 499.664,83.384 498.72,84.21C498.051,84.882 497.094,85.185 496.16,85.02C495.792,84.941 495.475,84.707 495.29,84.38C495.078,84.031 495.034,83.605 495.17,83.22C495.295,82.777 495.359,82.32 495.36,81.86C495.364,81.415 495.283,80.974 495.12,80.56C494.973,80.189 494.756,79.849 494.48,79.56C494.046,79.043 493.414,78.731 492.74,78.7C492.231,78.684 491.723,78.759 491.24,78.92C489.983,79.362 489.165,80.59 489.24,81.92C489.219,82.728 489.365,83.532 489.67,84.28C489.966,84.974 490.317,85.642 490.72,86.28C491.14,86.94 491.59,87.61 492.08,88.28C492.576,88.963 493.027,89.678 493.43,90.42C494.331,91.79 494.871,93.366 495,95C495.036,96.16 494.775,97.31 494.24,98.34C493.729,99.232 493.05,100.017 492.24,100.65C490.629,102.017 488.583,102.766 486.47,102.76C484.713,102.858 482.983,102.278 481.64,101.14C480.697,100.327 480.162,99.135 480.18,97.89Z"
          style="fill:currentColor;fill-rule:nonzero;" />
        <path
          d="M151.1,109.64C151.1,109.7 153.1,110.5 155.89,111.64C156.81,112.01 158.15,112.55 159.96,113.34L161.25,113.92C161.36,113.92 163.25,114.85 165,115.76C167.168,116.894 169.25,118.184 171.23,119.62C172.704,120.773 174.079,122.047 175.34,123.43C175.879,123.993 176.331,124.633 176.68,125.33C176.955,125.869 177.163,126.44 177.3,127.03C177.879,129.142 177.335,131.41 175.86,133.03C174.835,134.262 173.62,135.322 172.26,136.17C171.109,136.96 169.903,137.665 168.65,138.28C164.796,140.02 160.802,141.432 156.71,142.5C149.78,144.27 144.3,145.36 141.79,145.85C139.08,146.37 135.09,147.13 129.79,147.9C123.17,148.9 118.02,149.32 115.79,149.5C108.42,150.11 102.79,150.21 98.45,150.27C93.36,150.35 89.45,150.27 86.35,150.22C80.35,150.11 77.35,150.05 73.59,149.76C68.458,149.342 63.353,148.638 58.3,147.65C53.873,146.77 49.525,145.529 45.3,143.94C43.21,143.054 41.227,141.934 39.39,140.6C38.004,139.756 36.879,138.544 36.14,137.1C35.819,136.38 35.614,135.614 35.53,134.83C35.362,133.056 35.709,131.271 36.53,129.69C38.234,126.455 40.598,123.613 43.47,121.35C46.196,119.04 49.069,116.909 52.07,114.97C57.708,111.343 63.57,108.076 69.62,105.19C73.42,103.31 76.32,102 78.62,100.97C84.45,98.35 88.76,96.62 96.02,93.71C101.5,91.52 105.94,89.8 108.22,88.93C113.29,86.93 115.83,86 118.66,84.93C121.49,83.86 123.47,83.2 123.45,83.13C123.43,83.06 122.08,83.45 114.8,85.71C109.59,87.32 106.99,88.12 103.48,89.26C98.14,91 94.08,92.4 93.21,92.7C87.36,94.7 83.01,96.33 78.9,97.85C72.48,100.23 69.28,101.42 65.47,102.95C53.86,107.6 45.59,111.81 42.82,113.24C36.712,116.459 30.923,120.249 25.53,124.56C23.549,126.354 21.777,128.367 20.25,130.56C19.323,131.713 18.643,133.044 18.25,134.47C17.852,135.977 17.852,137.563 18.25,139.07C18.795,140.836 19.837,142.409 21.25,143.6C24.252,146.297 27.714,148.435 31.47,149.91C35.012,151.444 38.658,152.727 42.38,153.75C46.132,154.753 49.934,155.557 53.77,156.16C57.96,156.88 62.97,157.75 70.1,158.56C72.19,158.8 80.59,159.72 93.95,160.2C105.782,160.732 117.634,160.665 129.46,160C140.41,159.36 148.46,158.33 153.96,157.63C155.02,157.5 163.36,156.41 174.13,154.13C179.816,152.758 185.363,150.863 190.7,148.47C193.209,147.381 195.456,145.769 197.29,143.74C198.5,142.38 199.87,140.81 199.97,138.59C199.97,138.08 199.97,136.44 198.11,133.65C196.396,131.198 194.189,129.13 191.63,127.58C188.049,125.273 184.298,123.241 180.41,121.5C174.22,118.5 171.12,117.06 170.22,116.67C164.027,113.863 157.636,111.514 151.1,109.64Z"
          style="fill:currentColor;fill-rule:nonzero;" />
        <path
          d="M99.64,0C84.44,0 72.12,12.72 72.12,28.41C72.12,44.1 84.44,56.82 99.64,56.82C114.84,56.82 127.16,44.1 127.16,28.41C127.16,12.72 114.84,0 99.64,0ZM100,53.15L99.96,53.15C89.455,53.15 80.81,44.505 80.81,34C80.81,23.495 89.455,14.85 99.96,14.85C110.465,14.85 119.11,23.495 119.11,34C119.11,44.49 110.49,53.128 100,53.15Z"
          style="fill:currentColor;fill-rule:nonzero;" />
        <path
          d="M48.9,108.1C48.9,108.04 46.9,107.23 44.11,106.1C43.19,105.73 41.85,105.2 40.04,104.41L38.75,103.83C38.64,103.83 36.75,102.9 35,101.99C32.834,100.853 30.753,99.563 28.77,98.13C27.296,96.977 25.921,95.703 24.66,94.32C24.121,93.753 23.67,93.109 23.32,92.41C23.044,91.875 22.836,91.307 22.7,90.72C22.121,88.608 22.665,86.34 24.14,84.72C25.165,83.488 26.38,82.428 27.74,81.58C28.891,80.79 30.097,80.085 31.35,79.47C35.204,77.73 39.198,76.318 43.29,75.25C50.22,73.48 55.7,72.39 58.21,71.9C60.92,71.38 64.91,70.62 70.21,69.84C76.83,68.84 81.98,68.43 84.21,68.25C91.58,67.64 97.21,67.54 101.55,67.48C106.64,67.4 110.55,67.48 113.65,67.48C119.65,67.59 122.65,67.65 126.41,67.94C131.542,68.358 136.647,69.062 141.7,70.05C146.127,70.93 150.475,72.171 154.7,73.76C156.79,74.646 158.773,75.766 160.61,77.1C161.996,77.944 163.121,79.156 163.86,80.6C164.182,81.32 164.388,82.086 164.47,82.87C164.637,84.644 164.29,86.428 163.47,88.01C161.766,91.245 159.402,94.087 156.53,96.35C153.804,98.66 150.931,100.791 147.93,102.73C142.292,106.357 136.43,109.624 130.38,112.51C126.58,114.39 123.68,115.69 121.38,116.73C115.55,119.35 111.24,121.08 103.98,123.99C98.5,126.18 94.06,127.9 91.78,128.77C86.71,130.72 84.17,131.69 81.34,132.77C78.51,133.85 76.53,134.51 76.55,134.58C76.57,134.65 77.92,134.26 85.2,132C90.41,130.39 93.01,129.59 96.52,128.45C101.93,126.7 105.99,125.3 106.86,125C112.71,123 117.06,121.38 121.17,119.86C127.59,117.48 130.79,116.29 134.6,114.76C146.21,110.11 154.48,105.9 157.25,104.47C163.358,101.251 169.147,97.461 174.54,93.15C176.521,91.356 178.293,89.343 179.82,87.15C180.743,85.994 181.423,84.664 181.82,83.24C182.218,81.733 182.218,80.147 181.82,78.64C181.275,76.874 180.233,75.301 178.82,74.11C175.821,71.409 172.358,69.271 168.6,67.8C165.026,66.27 161.347,65 157.59,64C153.836,63.008 150.035,62.207 146.2,61.6C142.01,60.87 137,60.01 129.87,59.2C127.78,58.96 119.38,58.04 106.02,57.55C97.53,57.25 85.87,56.86 70.51,57.76C59.51,58.4 51.51,59.42 46.01,60.13C44.95,60.26 36.61,61.35 25.84,63.63C20.154,65.005 14.607,66.903 9.27,69.3C6.764,70.38 4.517,71.982 2.68,74C1.47,75.39 0.1,77 0,79.18C0,79.69 0,81.32 1.86,84.12C3.574,86.572 5.781,88.64 8.34,90.19C11.921,92.494 15.672,94.523 19.56,96.26C25.75,99.26 28.85,100.71 29.75,101.1C35.956,103.892 42.356,106.232 48.9,108.1Z"
          style="fill:currentColor;fill-rule:nonzero;" />
      </g>
    </g>
  </g>
  <g id="Capa11">
  </g>
</svg>
