<?xml version="1.0" encoding="UTF-8" standalone="no"?>
<!DOCTYPE svg PUBLIC "-//W3C//DTD SVG 1.1//EN" "http://www.w3.org/Graphics/SVG/1.1/DTD/svg11.dtd">
<svg width="100%" height="100%" viewBox="0 0 51 17" version="1.1" xmlns="http://www.w3.org/2000/svg"
  xmlns:xlink="http://www.w3.org/1999/xlink" xml:space="preserve" xmlns:serif="http://www.serif.com/"
  style="fill-rule:evenodd;clip-rule:evenodd;stroke-linejoin:round;stroke-miterlimit:2;">
  <g transform="matrix(1,0,0,1,-198.357,-119.845)">
    <g transform="matrix(1,0,0,1,198.358,117.845)">
      <g transform="matrix(1,0,0,1,7.5527,16.3914)">
        <path
          d="M0,-4.723C0.648,-4.856 1.225,-5.004 1.729,-5.168L1.699,-5.063C1.523,-4.332 1.342,-3.698 1.154,-3.159C1.377,-3.147 1.535,-3.141 1.629,-3.141C2.336,-3.141 2.892,-3.287 3.296,-3.58C3.7,-3.873 3.902,-4.278 3.902,-4.793C3.902,-5.758 2.809,-6.241 0.621,-6.241C-1.82,-6.241 -3.715,-5.694 -5.062,-4.6C-6.227,-3.651 -6.809,-2.549 -6.809,-1.295C-6.809,-0.506 -6.549,0.135 -6.029,0.63C-5.51,1.124 -4.834,1.371 -4.002,1.371C-3.561,1.371 -3.103,1.281 -2.628,1.101C-2.153,0.922 -1.746,0.683 -1.406,0.386C-0.926,-0.032 -0.477,-0.696 -0.059,-1.606C-0.719,-2.2 -1.34,-2.496 -1.922,-2.496C-2.441,-2.496 -2.869,-2.328 -3.205,-1.993C-3.541,-1.657 -3.709,-1.227 -3.709,-0.703C-3.709,-0.575 -3.689,-0.416 -3.65,-0.229C-3.951,-0.393 -4.102,-0.625 -4.102,-0.926C-4.102,-1.364 -3.79,-1.829 -3.167,-2.324C-2.544,-2.818 -1.959,-3.065 -1.412,-3.065C-1.002,-3.065 -0.604,-2.92 -0.217,-2.631L0.152,-2.35L0.24,-2.291C0.377,-2.6 0.506,-2.961 0.627,-3.375C0.748,-3.789 0.809,-4.075 0.809,-4.231C0.809,-4.453 0.678,-4.565 0.416,-4.565C0.334,-4.565 0.213,-4.549 0.053,-4.518L0,-4.723ZM0.896,-2.485L0.662,-1.905C1.158,-1.494 1.719,-0.977 2.344,-0.352L2.842,0.146C3.236,0.537 3.491,0.78 3.606,0.876C3.722,0.971 3.82,1.019 3.902,1.019C4.051,1.019 4.266,0.912 4.547,0.697L4.693,0.867C4.24,1.246 3.832,1.566 3.469,1.828L3.264,1.617C1.971,0.297 0.99,-0.661 0.322,-1.254C-0.135,-0.453 -0.713,0.193 -1.412,0.685C-2.479,1.443 -3.518,1.822 -4.529,1.822C-5.424,1.822 -6.151,1.555 -6.712,1.022C-7.272,0.489 -7.553,-0.202 -7.553,-1.049C-7.553,-1.811 -7.332,-2.538 -6.891,-3.232C-6.449,-3.925 -5.822,-4.528 -5.01,-5.039C-4.256,-5.512 -3.337,-5.882 -2.253,-6.15C-1.169,-6.417 -0.045,-6.551 1.119,-6.551C2.279,-6.551 3.17,-6.408 3.791,-6.12C4.412,-5.833 4.723,-5.422 4.723,-4.887C4.723,-4.176 4.252,-3.639 3.311,-3.276C2.854,-3.096 2.566,-2.832 2.449,-2.485C2.18,-2.5 1.891,-2.508 1.582,-2.508C1.34,-2.508 1.111,-2.5 0.896,-2.485"
          style="fill:curtrentColor;fill-rule:nonzero;" />
      </g>
    </g>
    <g transform="matrix(1,0,0,1,198.358,117.845)">
      <g transform="matrix(1,0,0,1,15.252,18.0902)">
        <path
          d="M0,-6.539C0.18,-6.539 0.27,-6.449 0.27,-6.269C0.27,-6.168 0.229,-6.076 0.149,-5.994C0.069,-5.912 -0.021,-5.871 -0.123,-5.871C-0.307,-5.871 -0.398,-5.961 -0.398,-6.141C-0.398,-6.242 -0.358,-6.334 -0.278,-6.416C-0.198,-6.498 -0.105,-6.539 0,-6.539M-0.34,-5.039L-0.34,-4.975C-0.34,-4.607 -0.582,-3.881 -1.066,-2.795L-1.5,-1.81C-1.73,-1.283 -1.85,-0.961 -1.857,-0.844C-1.861,-0.723 -1.795,-0.666 -1.658,-0.674C-1.58,-0.678 -1.451,-0.719 -1.271,-0.797L-1.195,-0.627C-1.809,-0.334 -2.299,-0.125 -2.666,0C-2.646,-0.367 -2.587,-0.706 -2.487,-1.017C-2.388,-1.327 -2.172,-1.842 -1.84,-2.56C-1.418,-3.482 -1.203,-4.021 -1.195,-4.178C-1.187,-4.299 -1.238,-4.359 -1.348,-4.359C-1.398,-4.359 -1.465,-4.346 -1.547,-4.318L-1.793,-4.23C-1.809,-4.226 -1.846,-4.213 -1.904,-4.189L-1.963,-4.377L-1.84,-4.418C-1.406,-4.578 -0.965,-4.758 -0.516,-4.957L-0.34,-5.039Z"
          style="fill:curtrentColor;fill-rule:nonzero;" />
      </g>
    </g>
    <g transform="matrix(1,0,0,1,198.358,117.845)">
      <g transform="matrix(1,0,0,1,18.9551,17.5278)">
        <path
          d="M0,-3.791C-0.207,-3.811 -0.379,-3.82 -0.516,-3.82C-1.543,-3.82 -2.33,-3.426 -2.877,-2.637C-3.092,-2.324 -3.273,-1.966 -3.422,-1.562C-3.57,-1.157 -3.645,-0.818 -3.645,-0.545C-3.645,-0.353 -3.589,-0.196 -3.478,-0.073C-3.366,0.05 -3.225,0.111 -3.053,0.111C-2.646,0.111 -2.197,-0.215 -1.705,-0.867C-1.213,-1.52 -0.967,-2.117 -0.967,-2.66C-0.967,-2.781 -0.999,-2.884 -1.063,-2.968C-1.128,-3.052 -1.205,-3.094 -1.295,-3.094C-1.607,-3.094 -1.906,-2.781 -2.191,-2.156C-2.211,-2.234 -2.221,-2.303 -2.221,-2.361C-2.221,-2.604 -2.07,-2.857 -1.77,-3.123C-1.469,-3.389 -1.184,-3.521 -0.914,-3.521C-0.734,-3.521 -0.582,-3.448 -0.457,-3.302C-0.332,-3.155 -0.27,-2.977 -0.27,-2.766C-0.27,-2.059 -0.721,-1.309 -1.623,-0.516C-2.396,0.172 -3.039,0.516 -3.551,0.516C-3.773,0.516 -3.958,0.436 -4.104,0.275C-4.251,0.115 -4.324,-0.086 -4.324,-0.328C-4.324,-0.863 -4.138,-1.423 -3.765,-2.007C-3.392,-2.591 -2.9,-3.094 -2.291,-3.516C-1.955,-3.746 -1.589,-3.936 -1.192,-4.084C-0.796,-4.232 -0.459,-4.307 -0.182,-4.307C-0.01,-4.307 0.076,-4.23 0.076,-4.078C0.076,-4.02 0.051,-3.924 0,-3.791"
          style="fill:curtrentColor;fill-rule:nonzero;" />
      </g>
    </g>
    <g transform="matrix(1,0,0,1,198.358,117.845)">
      <g transform="matrix(1,0,0,1,36.7266,16.8123)">
        <path
          d="M0,-6.304L-0.193,-6.298L-1.318,-6.281L-2.385,-6.263L-2.631,-6.263C-1.717,-5.88 -1.225,-5.355 -1.154,-4.687C-0.654,-5.14 -0.27,-5.679 0,-6.304M-1.811,-3.849C-2.564,-3.212 -3.375,-2.757 -4.242,-2.484L-5.256,-2.167C-5.26,-2.167 -5.297,-2.156 -5.367,-2.132C-5.34,-1.827 -5.326,-1.464 -5.326,-1.042C-5.326,-0.519 -5.342,-0.077 -5.373,0.282C-5.127,0.02 -4.852,-0.253 -4.547,-0.538L-3.949,-1.107C-3.223,-1.79 -2.711,-2.323 -2.414,-2.703C-2.117,-3.084 -1.916,-3.466 -1.811,-3.849M0.715,-6.796C0.348,-5.972 -0.27,-5.179 -1.137,-4.417C-1.172,-3.964 -1.374,-3.498 -1.743,-3.02C-2.112,-2.541 -2.84,-1.8 -3.926,-0.796C-4.695,-0.081 -5.352,0.583 -5.895,1.196L-6.041,1.354C-5.994,0.921 -5.971,0.477 -5.971,0.024C-5.971,-0.679 -6.008,-1.316 -6.082,-1.886C-7.426,-1.359 -8.098,-0.646 -8.098,0.253C-8.098,0.495 -8.021,0.764 -7.869,1.061C-8.287,1.026 -8.496,0.796 -8.496,0.37C-8.496,-0.083 -8.277,-0.548 -7.84,-1.025C-7.402,-1.501 -6.826,-1.9 -6.111,-2.22C-6.275,-3.618 -6.643,-4.716 -7.213,-5.513C-8.006,-6.622 -9,-7.177 -10.195,-7.177C-11.035,-7.177 -11.731,-6.875 -12.284,-6.272C-12.837,-5.668 -13.113,-4.908 -13.113,-3.99C-13.113,-3.423 -12.981,-2.898 -12.718,-2.413C-12.454,-1.929 -12.09,-1.546 -11.625,-1.265C-11.051,-0.913 -10.436,-0.738 -9.779,-0.738C-9.51,-0.738 -9.232,-0.779 -8.947,-0.861L-8.912,-0.755C-9.369,-0.521 -9.848,-0.404 -10.348,-0.404C-11.207,-0.404 -11.936,-0.729 -12.533,-1.379C-13.131,-2.03 -13.43,-2.822 -13.43,-3.755C-13.43,-4.857 -13.071,-5.783 -12.354,-6.533C-11.638,-7.283 -10.752,-7.658 -9.697,-7.658C-9.002,-7.658 -8.358,-7.473 -7.767,-7.104C-7.175,-6.735 -6.689,-6.212 -6.311,-5.536C-5.885,-4.786 -5.582,-3.779 -5.402,-2.513C-5.32,-2.544 -5.275,-2.56 -5.268,-2.56L-4.084,-2.97C-3.221,-3.271 -2.484,-3.646 -1.875,-4.095L-1.758,-4.183C-1.805,-4.534 -1.973,-4.861 -2.262,-5.161C-2.527,-5.439 -2.853,-5.652 -3.237,-5.8C-3.622,-5.949 -4.139,-6.06 -4.787,-6.134L-4.998,-6.158C-4.807,-6.318 -4.627,-6.517 -4.459,-6.755C-4.111,-6.728 -3.602,-6.714 -2.93,-6.714C-1.293,-6.714 -0.078,-6.741 0.715,-6.796"
          style="fill:curtrentColor;fill-rule:nonzero;" />
      </g>
    </g>
    <g transform="matrix(1,0,0,1,198.358,117.845)">
      <g transform="matrix(1,0,0,1,38.7188,15.8053)">
        <path
          d="M0,-0.34C0.055,-0.231 0.082,-0.133 0.082,-0.047C0.082,0.328 -0.178,0.76 -0.697,1.248C-1.455,1.963 -2.1,2.32 -2.631,2.32C-3.088,2.32 -3.316,2.06 -3.316,1.541C-3.316,0.955 -3.138,0.34 -2.78,-0.305C-2.423,-0.949 -1.965,-1.481 -1.406,-1.899C-0.727,-2.406 -0.121,-2.66 0.41,-2.66C0.719,-2.66 0.873,-2.547 0.873,-2.32C0.873,-2.172 0.799,-1.993 0.65,-1.784C0.502,-1.575 0.316,-1.387 0.094,-1.219C-0.113,-1.067 -0.376,-0.926 -0.694,-0.797C-1.013,-0.668 -1.258,-0.604 -1.43,-0.604C-1.613,-0.604 -1.74,-0.705 -1.811,-0.908C-1.646,-0.885 -1.516,-0.873 -1.418,-0.873C-1.027,-0.873 -0.667,-0.986 -0.337,-1.21C-0.007,-1.435 0.158,-1.678 0.158,-1.94C0.158,-2.127 0.037,-2.221 -0.205,-2.221C-0.639,-2.221 -1.082,-1.955 -1.535,-1.424C-1.855,-1.049 -2.119,-0.611 -2.326,-0.111C-2.533,0.389 -2.637,0.834 -2.637,1.224C-2.637,1.627 -2.469,1.828 -2.133,1.828C-1.766,1.828 -1.384,1.626 -0.987,1.222C-0.591,0.817 -0.262,0.297 0,-0.34"
          style="fill:curtrentColor;fill-rule:nonzero;" />
      </g>
    </g>
    <g transform="matrix(1,0,0,1,198.358,117.845)">
      <g transform="matrix(1,0,0,1,42.9785,17.9613)">
        <path
          d="M0,-4.746L-0.211,-4.154C-0.359,-4.185 -0.49,-4.201 -0.604,-4.201C-1.057,-4.201 -1.541,-3.853 -2.057,-3.158C-2.299,-2.826 -2.507,-2.465 -2.681,-2.074C-2.854,-1.683 -3.07,-1.088 -3.328,-0.287L-3.393,-0.088C-3.646,-0.033 -3.889,0.033 -4.119,0.111L-4.055,-0.064L-3.539,-1.435C-3.051,-2.756 -2.807,-3.533 -2.807,-3.767C-2.807,-3.889 -2.859,-3.949 -2.965,-3.949C-3.023,-3.949 -3.154,-3.896 -3.357,-3.791L-3.434,-3.973C-2.887,-4.238 -2.396,-4.533 -1.963,-4.857C-1.947,-4.787 -1.939,-4.723 -1.939,-4.664C-1.939,-4.363 -2.074,-3.861 -2.344,-3.158L-2.203,-3.322C-1.293,-4.322 -0.648,-4.822 -0.27,-4.822C-0.187,-4.822 -0.098,-4.797 0,-4.746"
          style="fill:curtrentColor;fill-rule:nonzero;" />
      </g>
    </g>
    <g transform="matrix(1,0,0,1,198.358,117.845)">
      <g transform="matrix(1,0,0,1,48.0352,18.0908)">
        <path
          d="M0,-8.063C-0.016,-7.805 -0.199,-7.233 -0.551,-6.346L-0.984,-5.256L-1.154,-4.834C-0.92,-4.741 -0.793,-4.549 -0.773,-4.26C-0.937,-4.315 -1.125,-4.348 -1.336,-4.36L-1.377,-4.254L-2.133,-2.333C-2.484,-1.438 -2.66,-0.928 -2.66,-0.803C-2.66,-0.694 -2.607,-0.639 -2.502,-0.639C-2.393,-0.639 -2.213,-0.715 -1.963,-0.868C-1.951,-0.876 -1.932,-0.887 -1.904,-0.903L-1.793,-0.762C-2.215,-0.469 -2.805,-0.215 -3.563,0L-3.516,-0.194C-3.391,-0.663 -3.186,-1.249 -2.9,-1.952C-2.811,-2.167 -2.729,-2.368 -2.654,-2.555L-1.998,-4.266L-1.939,-4.395C-2.361,-4.395 -2.816,-4.283 -3.305,-4.058C-3.793,-3.834 -4.221,-3.542 -4.588,-3.182C-5.275,-2.499 -5.619,-1.795 -5.619,-1.073C-5.619,-0.741 -5.498,-0.575 -5.256,-0.575C-5.018,-0.575 -4.72,-0.739 -4.362,-1.067C-4.005,-1.395 -3.689,-1.793 -3.416,-2.262C-3.158,-2.708 -2.947,-3.206 -2.783,-3.756C-2.717,-3.612 -2.684,-3.458 -2.684,-3.293C-2.684,-2.969 -2.823,-2.592 -3.103,-2.163C-3.382,-1.733 -3.756,-1.317 -4.225,-0.915C-4.924,-0.321 -5.469,-0.024 -5.859,-0.024C-6.156,-0.024 -6.305,-0.209 -6.305,-0.581C-6.305,-0.905 -6.2,-1.278 -5.991,-1.7C-5.782,-2.122 -5.504,-2.524 -5.156,-2.907C-4.184,-3.973 -3.053,-4.616 -1.764,-4.834L-1.605,-5.239L-1.184,-6.346C-1.059,-6.667 -0.994,-6.885 -0.99,-7.002C-0.982,-7.17 -1.066,-7.254 -1.242,-7.254C-1.344,-7.254 -1.457,-7.229 -1.582,-7.178L-1.652,-7.354L-1.559,-7.389C-0.922,-7.627 -0.402,-7.852 0,-8.063"
          style="fill:curtrentColor;fill-rule:nonzero;" />
      </g>
    </g>
    <g transform="matrix(1,0,0,1,198.358,117.845)">
      <g transform="matrix(1,0,0,1,49.8867,15.8053)">
        <path
          d="M0,-0.34C0.055,-0.231 0.082,-0.133 0.082,-0.047C0.082,0.328 -0.178,0.76 -0.697,1.248C-1.455,1.963 -2.1,2.32 -2.631,2.32C-3.088,2.32 -3.316,2.06 -3.316,1.541C-3.316,0.955 -3.138,0.34 -2.78,-0.305C-2.423,-0.949 -1.965,-1.481 -1.406,-1.899C-0.727,-2.406 -0.121,-2.66 0.41,-2.66C0.719,-2.66 0.873,-2.547 0.873,-2.32C0.873,-2.172 0.799,-1.993 0.65,-1.784C0.502,-1.575 0.316,-1.387 0.094,-1.219C-0.113,-1.067 -0.376,-0.926 -0.694,-0.797C-1.013,-0.668 -1.258,-0.604 -1.43,-0.604C-1.613,-0.604 -1.74,-0.705 -1.811,-0.908C-1.646,-0.885 -1.516,-0.873 -1.418,-0.873C-1.027,-0.873 -0.667,-0.986 -0.337,-1.21C-0.007,-1.435 0.158,-1.678 0.158,-1.94C0.158,-2.127 0.037,-2.221 -0.205,-2.221C-0.639,-2.221 -1.082,-1.955 -1.535,-1.424C-1.855,-1.049 -2.119,-0.611 -2.326,-0.111C-2.533,0.389 -2.637,0.834 -2.637,1.224C-2.637,1.627 -2.469,1.828 -2.133,1.828C-1.766,1.828 -1.384,1.626 -0.987,1.222C-0.591,0.817 -0.262,0.297 0,-0.34"
          style="fill:curtrentColor;fill-rule:nonzero;" />
      </g>
    </g>
    <g transform="matrix(1,0,0,1,198.358,117.845)">
      <g transform="matrix(1,0,0,1,11.7192,2.0692)">
        <path
          d="M0,5.088C-0.027,5.063 -0.04,5.025 -0.04,4.973C-0.04,4.902 -0.027,4.866 0,4.866C0.052,4.866 0.121,4.859 0.206,4.843C0.29,4.828 0.372,4.808 0.451,4.782C0.53,4.756 0.585,4.728 0.617,4.698C0.707,4.606 0.754,4.384 0.76,4.032C0.77,3.441 0.782,2.908 0.795,2.437C0.809,1.965 0.82,1.577 0.831,1.274C0.841,0.97 0.847,0.775 0.847,0.688C0.847,0.55 0.836,0.448 0.815,0.382C0.804,0.352 0.758,0.325 0.677,0.302C0.595,0.279 0.506,0.259 0.411,0.244C0.316,0.229 0.242,0.221 0.19,0.221C0.168,0.221 0.158,0.186 0.158,0.114C0.158,0.058 0.168,0.02 0.19,0C0.316,0.005 0.456,0.012 0.609,0.023C0.762,0.033 0.918,0.038 1.076,0.038C1.176,0.038 1.286,0.034 1.405,0.026C1.523,0.019 1.657,0.01 1.804,0C1.847,0.112 2.369,1.39 3.372,3.833C3.382,3.843 3.393,3.848 3.403,3.848C3.424,3.848 3.438,3.838 3.443,3.818C3.701,3.231 3.934,2.695 4.14,2.211C4.345,1.726 4.524,1.295 4.678,0.918L4.994,0C5.163,0.01 5.302,0.017 5.41,0.023C5.518,0.027 5.599,0.03 5.651,0.03C5.815,0.03 5.97,0.027 6.118,0.023C6.266,0.017 6.406,0.01 6.538,0C6.554,0.046 6.562,0.084 6.562,0.114C6.562,0.186 6.548,0.221 6.522,0.221L6.506,0.221C6.448,0.221 6.372,0.238 6.276,0.271C6.182,0.304 6.11,0.339 6.063,0.375C6,0.421 5.968,0.591 5.968,0.887L6.039,3.994C6.05,4.29 6.089,4.525 6.158,4.698C6.174,4.728 6.216,4.756 6.285,4.782C6.353,4.808 6.428,4.828 6.51,4.843C6.592,4.859 6.651,4.866 6.688,4.866C6.709,4.866 6.72,4.902 6.72,4.973C6.72,5.009 6.714,5.047 6.704,5.088C6.44,5.078 6.23,5.069 6.075,5.061C5.919,5.053 5.815,5.05 5.762,5.05L4.812,5.088C4.791,5.067 4.781,5.027 4.781,4.965C4.781,4.9 4.791,4.866 4.812,4.866C4.865,4.866 4.945,4.854 5.054,4.828C5.162,4.802 5.24,4.777 5.287,4.751C5.351,4.711 5.382,4.601 5.382,4.422L5.382,4.017L5.287,1.323C5.287,1.267 5.28,1.205 5.267,1.136C5.254,1.067 5.24,1.005 5.224,0.952C5.208,0.899 5.189,0.872 5.168,0.872C5.158,0.872 5.145,0.89 5.129,0.925L3.475,4.751C3.374,4.971 3.277,5.08 3.182,5.08C3.176,5.08 3.153,5.075 3.11,5.065L1.298,0.611C1.282,1.331 1.264,1.972 1.243,2.536C1.221,3.1 1.204,3.552 1.191,3.894C1.178,4.236 1.171,4.435 1.171,4.491C1.171,4.583 1.187,4.65 1.219,4.69C1.24,4.716 1.292,4.742 1.377,4.771C1.461,4.798 1.55,4.821 1.642,4.839C1.734,4.857 1.796,4.866 1.828,4.866C1.849,4.866 1.86,4.904 1.86,4.981C1.86,5.011 1.854,5.047 1.844,5.088C1.58,5.078 1.372,5.069 1.219,5.061C1.065,5.053 0.968,5.05 0.926,5.05L0,5.088Z"
          style="fill:curtrentColor;fill-rule:nonzero;" />
      </g>
    </g>
    <g transform="matrix(1,0,0,1,198.358,117.845)">
      <g transform="matrix(1,0,0,1,21.6763,2.4088)">
        <path
          d="M0,4.473C0.337,4.473 0.633,4.366 0.886,4.152C1.14,3.942 1.326,3.681 1.444,3.367C1.563,3.054 1.623,2.718 1.623,2.361C1.623,1.958 1.554,1.573 1.417,1.205C1.279,0.844 1.066,0.542 0.775,0.303C0.485,0.063 0.145,-0.057 -0.246,-0.057C-0.578,-0.057 -0.866,0.041 -1.108,0.238C-1.351,0.434 -1.539,0.692 -1.67,1.011C-1.802,1.329 -1.868,1.675 -1.868,2.047C-1.868,2.451 -1.8,2.835 -1.662,3.202C-1.525,3.565 -1.312,3.867 -1.021,4.109C-0.731,4.352 -0.391,4.473 0,4.473M-1.908,4.044C-2.404,3.544 -2.652,2.935 -2.652,2.216C-2.652,1.859 -2.586,1.523 -2.454,1.209C-2.322,0.896 -2.141,0.62 -1.912,0.383C-1.682,0.146 -1.415,-0.04 -1.108,-0.175C-0.802,-0.311 -0.475,-0.379 -0.127,-0.379C0.222,-0.379 0.549,-0.311 0.854,-0.175C1.161,-0.04 1.43,0.146 1.662,0.383C1.894,0.62 2.076,0.896 2.208,1.209C2.34,1.523 2.406,1.859 2.406,2.216C2.406,2.935 2.158,3.544 1.662,4.044C1.324,4.391 0.942,4.622 0.514,4.737C0.087,4.852 -0.339,4.852 -0.764,4.737C-1.189,4.622 -1.57,4.391 -1.908,4.044"
          style="fill:curtrentColor;fill-rule:nonzero;" />
      </g>
    </g>
    <g transform="matrix(1,0,0,1,198.358,117.845)">
      <g transform="matrix(1,0,0,1,25.7607,2.0002)">
        <path
          d="M0,5.157C-0.021,5.136 -0.032,5.098 -0.032,5.042C-0.032,4.971 -0.021,4.935 0,4.935C0.047,4.935 0.111,4.929 0.19,4.916C0.269,4.903 0.343,4.884 0.412,4.859C0.48,4.833 0.52,4.808 0.53,4.782C0.551,4.711 0.566,4.619 0.574,4.507C0.582,4.394 0.585,4.259 0.585,4.101L0.585,1.331C0.585,0.887 0.562,0.625 0.514,0.543C0.478,0.467 0.192,0.428 -0.34,0.428C-0.541,0.428 -0.697,0.445 -0.808,0.478C-0.918,0.511 -1.003,0.576 -1.061,0.673C-1.119,0.77 -1.174,0.915 -1.227,1.109C-1.238,1.135 -1.264,1.147 -1.306,1.147C-1.396,1.147 -1.459,1.13 -1.496,1.094L-1.346,0C-1.23,0.025 -1.127,0.046 -1.037,0.061C-0.947,0.076 -0.868,0.084 -0.8,0.084C-0.42,0.084 -0.084,0.089 0.206,0.099C0.496,0.109 0.739,0.115 0.934,0.115C1.34,0.115 1.69,0.109 1.982,0.099C2.275,0.089 2.506,0.084 2.675,0.084C2.744,0.084 2.823,0.076 2.913,0.061C3.002,0.046 3.105,0.025 3.221,0L3.372,1.094C3.335,1.13 3.271,1.147 3.182,1.147C3.14,1.147 3.113,1.135 3.103,1.109C3.055,0.915 3.001,0.77 2.94,0.673C2.879,0.576 2.794,0.511 2.683,0.478C2.572,0.445 2.417,0.428 2.216,0.428C1.662,0.428 1.372,0.467 1.345,0.543C1.298,0.701 1.274,0.956 1.274,1.308L1.274,4.071C1.274,4.366 1.298,4.604 1.345,4.782C1.356,4.803 1.396,4.825 1.464,4.851C1.533,4.877 1.606,4.897 1.686,4.912C1.765,4.928 1.82,4.935 1.852,4.935C1.873,4.935 1.884,4.973 1.884,5.05C1.884,5.08 1.878,5.116 1.868,5.157C1.604,5.147 1.396,5.138 1.243,5.13C1.089,5.122 0.992,5.119 0.95,5.119L0,5.157Z"
          style="fill:curtrentColor;fill-rule:nonzero;" />
      </g>
    </g>
    <g transform="matrix(1,0,0,1,198.358,117.845)">
      <g transform="matrix(1,0,0,1,33.2563,2.053)">
        <path
          d="M0,5.112C-0.132,5.112 -0.305,5.111 -0.519,5.108C-0.732,5.105 -0.984,5.102 -1.274,5.096C-1.564,5.091 -1.828,5.088 -2.066,5.085C-2.303,5.082 -2.514,5.081 -2.699,5.081L-3.657,5.104C-3.672,5.089 -3.681,5.048 -3.681,4.982C-3.681,4.916 -3.672,4.883 -3.657,4.883C-3.609,4.883 -3.546,4.873 -3.467,4.856C-3.388,4.838 -3.313,4.816 -3.241,4.79C-3.17,4.765 -3.126,4.737 -3.111,4.706C-3.074,4.65 -3.055,4.41 -3.055,3.987L-3.055,1.094C-3.055,0.946 -3.059,0.817 -3.067,0.704C-3.075,0.592 -3.089,0.503 -3.111,0.437C-3.121,0.406 -3.162,0.378 -3.233,0.352C-3.305,0.327 -3.381,0.306 -3.463,0.291C-3.545,0.276 -3.609,0.268 -3.657,0.268C-3.678,0.268 -3.688,0.237 -3.688,0.176C-3.688,0.11 -3.678,0.067 -3.657,0.046C-3.52,0.051 -3.373,0.055 -3.217,0.058C-3.062,0.06 -2.895,0.062 -2.715,0.062C-2.594,0.062 -2.43,0.059 -2.224,0.054C-2.019,0.049 -1.771,0.041 -1.48,0.031C-1.185,0.021 -0.927,0.013 -0.708,0.008C-0.489,0.003 -0.306,0 -0.158,0C-0.148,0.072 -0.132,0.157 -0.111,0.257C-0.09,0.356 -0.063,0.465 -0.032,0.582C-0.005,0.704 0.017,0.804 0.036,0.881C0.054,0.957 0.066,1.01 0.071,1.041C0.045,1.067 -0.002,1.079 -0.071,1.079C-0.14,1.079 -0.177,1.061 -0.182,1.026C-0.261,0.745 -0.372,0.566 -0.515,0.486C-0.657,0.407 -0.852,0.368 -1.1,0.368L-1.63,0.368C-2.089,0.368 -2.322,0.401 -2.327,0.467C-2.338,0.529 -2.347,0.612 -2.354,0.719C-2.363,0.827 -2.367,0.957 -2.367,1.11L-2.367,2.334C-2.367,2.365 -2.253,2.38 -2.026,2.38L-1.607,2.38C-1.427,2.38 -1.306,2.379 -1.243,2.376C-1.179,2.374 -1.133,2.367 -1.104,2.357C-1.075,2.347 -1.019,2.332 -0.934,2.311C-0.881,2.301 -0.84,2.241 -0.811,2.132C-0.782,2.022 -0.757,1.931 -0.736,1.86C-0.731,1.824 -0.691,1.806 -0.617,1.806C-0.554,1.806 -0.509,1.819 -0.483,1.844L-0.483,3.291C-0.504,3.311 -0.546,3.321 -0.609,3.321C-0.678,3.321 -0.72,3.301 -0.736,3.26C-0.757,3.189 -0.775,3.128 -0.792,3.076C-0.807,3.026 -0.82,2.982 -0.831,2.946C-0.857,2.875 -0.877,2.834 -0.891,2.824C-0.904,2.814 -0.926,2.799 -0.958,2.778C-1.032,2.737 -1.311,2.717 -1.797,2.717C-2.177,2.717 -2.367,2.74 -2.367,2.786L-2.367,3.972C-2.367,4.303 -2.343,4.535 -2.295,4.668C-2.279,4.719 -2.1,4.744 -1.757,4.744L-1.377,4.744C-0.892,4.744 -0.56,4.701 -0.38,4.614C-0.301,4.574 -0.212,4.483 -0.115,4.343C-0.017,4.203 0.061,4.035 0.119,3.841C0.129,3.811 0.167,3.796 0.229,3.796C0.33,3.796 0.396,3.811 0.427,3.841C0.412,3.883 0.387,3.945 0.352,4.029C0.318,4.113 0.285,4.199 0.253,4.285C0.222,4.372 0.195,4.446 0.174,4.508C0.143,4.599 0.108,4.704 0.071,4.821C0.034,4.939 0.011,5.035 0,5.112"
          style="fill:curtrentColor;fill-rule:nonzero;" />
      </g>
    </g>
    <g transform="matrix(1,0,0,1,198.358,117.845)">
      <g transform="matrix(1,0,0,1,37.8232,2.069)">
        <path
          d="M0,5.096C-0.274,5.096 -0.702,5.088 -1.282,5.073C-1.572,5.063 -1.836,5.055 -2.074,5.05C-2.311,5.045 -2.52,5.045 -2.699,5.05L-3.657,5.073C-3.672,5.057 -3.68,5.017 -3.68,4.95C-3.68,4.884 -3.672,4.851 -3.657,4.851C-3.604,4.851 -3.539,4.844 -3.463,4.828C-3.386,4.813 -3.313,4.794 -3.241,4.771C-3.17,4.748 -3.126,4.721 -3.11,4.69C-3.074,4.634 -3.055,4.394 -3.055,3.971L-3.055,1.078C-3.055,0.742 -3.074,0.51 -3.11,0.382C-3.121,0.352 -3.161,0.325 -3.229,0.302C-3.298,0.279 -3.372,0.26 -3.451,0.244C-3.53,0.229 -3.593,0.221 -3.641,0.221C-3.662,0.221 -3.672,0.188 -3.672,0.122C-3.672,0.061 -3.662,0.02 -3.641,0C-3.593,0 -3.513,0.003 -3.399,0.011C-3.286,0.019 -3.163,0.027 -3.031,0.034C-2.899,0.042 -2.786,0.046 -2.691,0.046C-2.522,0.046 -2.354,0.039 -2.185,0.027C-2.016,0.014 -1.878,0.005 -1.773,0C-1.762,0.04 -1.757,0.079 -1.757,0.115C-1.757,0.186 -1.768,0.221 -1.789,0.221C-1.82,0.221 -1.875,0.23 -1.955,0.248C-2.034,0.266 -2.108,0.286 -2.176,0.309C-2.245,0.332 -2.285,0.357 -2.295,0.382C-2.343,0.556 -2.367,0.793 -2.367,1.094L-2.367,3.979C-2.367,4.249 -2.343,4.473 -2.295,4.652C-2.279,4.703 -2.1,4.728 -1.757,4.728L-1.377,4.728C-0.892,4.728 -0.559,4.685 -0.38,4.598C-0.301,4.558 -0.212,4.467 -0.115,4.327C-0.017,4.187 0.061,4.019 0.119,3.825C0.129,3.795 0.167,3.78 0.229,3.78C0.33,3.78 0.396,3.795 0.428,3.825C0.412,3.867 0.387,3.929 0.353,4.013C0.318,4.097 0.285,4.183 0.253,4.269C0.222,4.356 0.195,4.43 0.174,4.492C0.143,4.583 0.108,4.688 0.071,4.805C0.035,4.923 0.011,5.019 0,5.096"
          style="fill:curtrentColor;fill-rule:nonzero;" />
      </g>
    </g>
  </g>
</svg>
