<?xml version="1.0" encoding="UTF-8" standalone="no"?>
<!DOCTYPE svg PUBLIC "-//W3C//DTD SVG 1.1//EN" "http://www.w3.org/Graphics/SVG/1.1/DTD/svg11.dtd">
<svg width="100%" height="100%" viewBox="0 0 584 292" version="1.1" xmlns="http://www.w3.org/2000/svg"
  xmlns:xlink="http://www.w3.org/1999/xlink" xml:space="preserve" xmlns:serif="http://www.serif.com/"
  style="fill-rule:evenodd;clip-rule:evenodd;stroke-linejoin:round;stroke-miterlimit:2;">
  <g transform="matrix(3.05109,0,0,3.05109,57.5698,54.9251)">
    <g id="Capa7">
      <g>
        <g>
          <path
            d="M6.14,7.37L11.39,7.37L17.52,44.45L13.41,44.45L12.36,37.37L5.64,37.37L4.67,44.45L0.51,44.45L6.14,7.37ZM6.12,33.84L11.81,33.84L8.88,14.24L8.82,14.24L6.12,33.84Z"
            style="fill:currentColor;fill-rule:nonzero;" />
          <path
            d="M36.94,7.37L42.4,7.37L42.4,44.46L38.52,44.46L38.52,29.58L38.88,15.72L33.85,44.39L29.91,44.39L24.66,15.72L25.02,29.58L25.02,44.46L21.16,44.46L21.16,7.37L26.6,7.37L31.91,37.86L36.94,7.37Z"
            style="fill:currentColor;fill-rule:nonzero;" />
          <path
            d="M51.67,7.37L56.92,7.37L63.05,44.45L58.94,44.45L57.89,37.37L51.17,37.37L50.2,44.45L46.05,44.45L51.68,7.37L51.67,7.37ZM51.65,33.84L57.34,33.84L54.41,14.24L54.35,14.24L51.65,33.84Z"
            style="fill:currentColor;fill-rule:nonzero;" />
          <path d="M63.69,7.37L75.93,7.37L75.93,11L72.11,11L72.11,44.46L67.77,44.46L67.77,11L63.69,11L63.69,7.37Z"
            style="fill:currentColor;fill-rule:nonzero;" />
          <rect x="79.11" y="7.37" width="4.36" height="37.08" style="fill:currentColor;" />
          <path d="M86.66,7.37L98.9,7.37L98.9,11L95.08,11L95.08,44.46L90.75,44.46L90.75,11L86.66,11L86.66,7.37Z"
            style="fill:currentColor;fill-rule:nonzero;" />
          <path
            d="M101.75,7.37L112.83,7.37L112.83,11L106.11,11L106.11,23.68L112.47,23.68L112.47,27.31L106.11,27.31L106.11,40.83L112.91,40.83L112.91,44.46L101.75,44.46L101.75,7.37Z"
            style="fill:currentColor;fill-rule:nonzero;" />
          <path
            d="M128.65,7.37L132.51,7.37L132.51,44.45L129.31,44.45L120.99,19L121.24,28.36L121.24,44.46L117.22,44.46L117.22,7.37L120.51,7.37L129.11,32.61L128.67,21.89L128.67,7.37L128.65,7.37ZM118.27,3.33C118.65,2.02 119.15,1.14 119.77,0.69C120.39,0.23 121.08,0 121.85,0C122.62,0 123.69,0.26 125.07,0.78C126.45,1.3 127.29,1.56 127.59,1.56L127.68,1.56C127.92,1.52 128.13,1.4 128.3,1.21C128.48,1.02 128.66,0.64 128.86,0.06L131.45,0.65L131.26,1.43C130.91,2.76 130.49,3.66 130,4.12C129.51,4.58 128.89,4.81 128.14,4.81C127.39,4.81 126.36,4.52 125.03,3.95C123.7,3.37 122.84,3.09 122.44,3.09C122.04,3.09 121.73,3.11 121.51,3.16C121.29,3.21 120.99,3.61 120.62,4.37L118.28,3.34L118.27,3.33Z"
            style="fill:currentColor;fill-rule:nonzero;" />
          <path
            d="M141.78,7.37L147.03,7.37L153.16,44.45L149.05,44.45L148,37.37L141.28,37.37L140.31,44.45L136.16,44.45L141.79,7.37L141.78,7.37ZM141.75,33.84L147.45,33.84L144.52,14.24L144.45,14.24L141.75,33.84Z"
            style="fill:currentColor;fill-rule:nonzero;" />
        </g>
        <g>
          <path
            d="M4.8,53.98C4.72,53.68 4.6,53.38 4.5,53.23C4.36,53 4.27,52.94 3.78,52.94L2.96,52.94L2.96,57.2C2.96,57.9 3.03,57.99 3.86,58.04L3.86,58.3L1.23,58.3L1.23,58.04C2.04,57.99 2.11,57.9 2.11,57.2L2.11,52.94L1.36,52.94C0.87,52.94 0.73,53 0.58,53.25C0.47,53.42 0.39,53.65 0.28,53.99L-0,53.99C0.05,53.43 0.11,52.86 0.13,52.38L0.34,52.38C0.47,52.59 0.57,52.59 0.82,52.59L4.31,52.59C4.55,52.59 4.63,52.55 4.77,52.38L4.99,52.38C4.99,52.79 5.03,53.44 5.07,53.97L4.79,54L4.8,53.98Z"
            style="fill:currentColor;fill-rule:nonzero;" />
          <path
            d="M12.16,56.87C12.11,57.1 11.87,58.03 11.78,58.29L7.45,58.29L7.45,58.03C8.27,57.97 8.33,57.89 8.33,57.17L8.33,53.71C8.33,52.93 8.23,52.89 7.58,52.83L7.58,52.57L10.3,52.57C11.14,52.57 11.48,52.57 11.59,52.55C11.59,52.76 11.64,53.43 11.67,53.91L11.39,53.95C11.31,53.65 11.21,53.43 11.11,53.25C10.97,52.98 10.78,52.92 10.27,52.92L9.48,52.92C9.2,52.92 9.18,52.94 9.18,53.21L9.18,55.14L10.14,55.14C10.77,55.14 10.82,55.01 10.93,54.4L11.22,54.4L11.22,56.24L10.93,56.24C10.81,55.6 10.74,55.51 10.13,55.51L9.18,55.51L9.18,57.22C9.18,57.83 9.34,57.91 9.8,57.92L10.58,57.92C11.11,57.92 11.2,57.84 11.4,57.61C11.58,57.41 11.76,57.06 11.89,56.79L12.17,56.86L12.16,56.87Z"
            style="fill:currentColor;fill-rule:nonzero;" />
          <path
            d="M17.54,52.45C19.07,52.45 20.41,53.61 20.41,55.36C20.41,57.25 19.09,58.43 17.46,58.43C15.83,58.43 14.55,57.18 14.55,55.48C14.55,53.92 15.66,52.45 17.54,52.45M17.37,52.78C16.4,52.78 15.54,53.62 15.54,55.25C15.54,56.88 16.38,58.08 17.62,58.08C18.58,58.08 19.42,57.28 19.42,55.6C19.42,53.77 18.5,52.78 17.37,52.78M17.97,57.83C18.93,58.56 19.9,59.19 20.68,59.48L20.62,59.7C20.2,59.7 19.67,59.67 19.39,59.59C18.75,59.41 17.74,58.66 17.02,58.15L17.97,57.83Z"
            style="fill:currentColor;fill-rule:nonzero;" />
          <path
            d="M29.02,52.83C28.46,52.87 28.27,53.01 28.25,53.4C28.24,53.61 28.22,53.97 28.22,54.75L28.22,55.74C28.22,56.61 28.11,57.31 27.6,57.85C27.19,58.28 26.58,58.42 25.97,58.42C25.45,58.42 24.89,58.31 24.5,58.01C23.97,57.61 23.72,57.01 23.72,55.99L23.72,53.75C23.72,52.95 23.65,52.9 22.95,52.84L22.95,52.58L25.34,52.58L25.34,52.84C24.64,52.89 24.57,52.96 24.57,53.75L24.57,55.98C24.57,57.21 25.16,57.91 26.19,57.91C27.4,57.91 27.81,57.14 27.81,55.7L27.81,54.77C27.81,54 27.78,53.67 27.77,53.42C27.74,53.02 27.53,52.88 26.89,52.85L26.89,52.59L29.02,52.59L29.02,52.85L29.02,52.83Z"
            style="fill:currentColor;fill-rule:nonzero;" />
          <path
            d="M31.27,58.29L31.27,58.03C31.98,57.95 32.05,57.92 32.05,57.17L32.05,53.7C32.05,52.95 31.98,52.9 31.27,52.83L31.27,52.57L33.69,52.57L33.69,52.83C32.97,52.91 32.9,52.95 32.9,53.7L32.9,57.17C32.9,57.92 32.97,57.95 33.69,58.03L33.69,58.29L31.27,58.29Z"
            style="fill:currentColor;fill-rule:nonzero;" />
          <path
            d="M40.78,56.81C40.72,57.1 40.46,58.02 40.38,58.29L36.24,58.29L36.24,58.03C37.04,57.96 37.11,57.91 37.11,57.16L37.11,53.69C37.11,52.94 37.02,52.89 36.33,52.83L36.33,52.57L38.76,52.57L38.76,52.83C38.06,52.9 37.96,52.94 37.96,53.69L37.96,57.24C37.96,57.77 38.02,57.91 38.52,57.92L39.17,57.92C39.63,57.92 39.76,57.86 39.96,57.63C40.17,57.41 40.36,57.05 40.5,56.72L40.78,56.8L40.78,56.81Z"
            style="fill:currentColor;fill-rule:nonzero;" />
          <path
            d="M46.57,58.29L46.57,58.03C47.14,57.96 47.2,57.87 47.07,57.53C46.96,57.2 46.79,56.77 46.62,56.25L44.75,56.25C44.62,56.62 44.49,56.97 44.37,57.31C44.18,57.88 44.32,57.95 45.03,58.03L45.03,58.29L42.97,58.29L42.97,58.03C43.52,57.96 43.67,57.89 43.97,57.11L45.79,52.5L46.1,52.44C46.66,53.95 47.26,55.6 47.82,57.11C48.11,57.89 48.19,57.95 48.8,58.02L48.8,58.28L46.56,58.28L46.57,58.29ZM45.71,53.69C45.43,54.42 45.14,55.19 44.89,55.87L46.49,55.87L45.71,53.69Z"
            style="fill:currentColor;fill-rule:nonzero;" />
          <path
            d="M62.41,52.7C63.76,52.7 64.26,54.2 64.26,55.54C64.26,56.88 63.77,58.39 62.41,58.39C61.05,58.39 60.54,56.92 60.54,55.55C60.54,54.26 61.05,52.7 62.41,52.7M62.4,53.02C61.62,53.02 61.43,54.31 61.43,55.53C61.43,56.75 61.67,58.07 62.41,58.07C63.15,58.07 63.36,56.77 63.36,55.54C63.36,54.31 63.15,53.02 62.4,53.02"
            style="fill:currentColor;fill-rule:nonzero;" />
          <path
            d="M68.47,52.7C69.82,52.7 70.32,54.2 70.32,55.54C70.32,56.88 69.83,58.39 68.47,58.39C67.11,58.39 66.6,56.92 66.6,55.55C66.6,54.26 67.11,52.7 68.47,52.7M68.47,53.02C67.69,53.02 67.5,54.31 67.5,55.53C67.5,56.75 67.74,58.07 68.48,58.07C69.22,58.07 69.43,56.77 69.43,55.54C69.43,54.31 69.22,53.02 68.47,53.02"
            style="fill:currentColor;fill-rule:nonzero;" />
          <path
            d="M74.13,52.7C75.06,52.7 75.46,53.6 75.46,54.32C75.46,55.04 75.07,55.94 74.13,55.94C73.19,55.94 72.8,55.07 72.8,54.33C72.8,53.59 73.2,52.7 74.13,52.7M74.14,52.99C73.63,52.99 73.52,53.81 73.52,54.32C73.52,54.83 73.63,55.66 74.14,55.66C74.65,55.66 74.74,54.81 74.74,54.32C74.74,53.83 74.66,52.99 74.14,52.99M74.3,58.48L74,58.26L77.59,52.67L77.9,52.88L74.3,58.47L74.3,58.48ZM77.81,55.16C78.74,55.16 79.15,56.04 79.15,56.78C79.15,57.52 78.75,58.4 77.81,58.4C76.87,58.4 76.48,57.53 76.48,56.78C76.48,56.07 76.88,55.16 77.81,55.16M77.82,55.44C77.32,55.44 77.2,56.24 77.2,56.77C77.2,57.3 77.32,58.1 77.82,58.1C78.32,58.1 78.42,57.26 78.42,56.77C78.42,56.28 78.34,55.44 77.82,55.44"
            style="fill:currentColor;fill-rule:nonzero;" />
          <path
            d="M88.45,58.29L88.45,58.03C89.02,57.96 89.08,57.87 88.95,57.53C88.84,57.2 88.67,56.77 88.5,56.25L86.63,56.25C86.5,56.62 86.37,56.97 86.25,57.31C86.06,57.88 86.2,57.95 86.91,58.03L86.91,58.29L84.85,58.29L84.85,58.03C85.4,57.96 85.55,57.89 85.85,57.11L87.67,52.5L87.98,52.44C88.54,53.95 89.14,55.6 89.7,57.11C89.99,57.89 90.07,57.95 90.68,58.02L90.68,58.28L88.44,58.28L88.45,58.29ZM87.59,53.69C87.31,54.42 87.02,55.19 86.77,55.87L88.37,55.87L87.59,53.69Z"
            style="fill:currentColor;fill-rule:nonzero;" />
          <path
            d="M98.52,55.89C97.98,55.96 97.94,56.01 97.94,56.55L97.94,57.28C97.94,57.59 97.94,57.88 97.99,58.12C97.46,58.24 96.7,58.43 95.97,58.43C93.96,58.43 92.75,57.19 92.75,55.42C92.75,53.54 94.28,52.45 96.06,52.45C96.92,52.45 97.61,52.63 97.88,52.67C97.9,53.01 97.95,53.57 98.01,54.11L97.73,54.16C97.52,53.41 97.25,53.08 96.7,52.9C96.5,52.83 96.14,52.79 95.89,52.79C94.59,52.79 93.74,53.71 93.74,55.31C93.74,56.74 94.43,58.1 96.09,58.1C96.37,58.1 96.63,58.04 96.8,57.96C96.98,57.86 97.08,57.75 97.08,57.41L97.08,56.68C97.08,56.04 97,55.97 96.17,55.91L96.17,55.64L98.5,55.64L98.5,55.91L98.52,55.89Z"
            style="fill:currentColor;fill-rule:nonzero;" />
          <path
            d="M104.24,58.29L104.24,58.03C104.81,57.96 104.87,57.87 104.74,57.53C104.63,57.2 104.46,56.77 104.29,56.25L102.42,56.25C102.29,56.62 102.16,56.97 102.04,57.31C101.85,57.88 101.99,57.95 102.7,58.03L102.7,58.29L100.64,58.29L100.64,58.03C101.19,57.96 101.34,57.89 101.64,57.11L103.46,52.5L103.77,52.44C104.33,53.95 104.93,55.6 105.49,57.11C105.78,57.89 105.86,57.95 106.47,58.02L106.47,58.28L104.23,58.28L104.24,58.29ZM103.38,53.69C103.1,54.42 102.81,55.19 102.56,55.87L104.16,55.87L103.38,53.69Z"
            style="fill:currentColor;fill-rule:nonzero;" />
          <path
            d="M113.39,52.83C112.8,52.91 112.65,52.99 112.33,53.79C112.09,54.39 110.93,57.2 110.46,58.39L110.13,58.39C109.66,57.1 108.83,54.87 108.35,53.64C108.1,52.99 107.96,52.89 107.41,52.84L107.41,52.58L109.73,52.58L109.73,52.84C109.08,52.91 109.05,53.01 109.18,53.34C109.41,54 110.06,55.76 110.56,57.1C111.04,55.94 111.6,54.55 111.98,53.54C112.18,53.01 112.08,52.92 111.36,52.84L111.36,52.58L113.4,52.58L113.4,52.84L113.39,52.83Z"
            style="fill:currentColor;fill-rule:nonzero;" />
          <path
            d="M120.13,56.87C120.08,57.1 119.84,58.03 119.75,58.29L115.42,58.29L115.42,58.03C116.24,57.97 116.3,57.89 116.3,57.17L116.3,53.71C116.3,52.93 116.2,52.89 115.55,52.83L115.55,52.57L118.27,52.57C119.11,52.57 119.45,52.57 119.56,52.55C119.56,52.76 119.61,53.43 119.64,53.91L119.36,53.95C119.28,53.65 119.18,53.43 119.08,53.25C118.94,52.98 118.75,52.92 118.24,52.92L117.45,52.92C117.17,52.92 117.15,52.94 117.15,53.21L117.15,55.14L118.11,55.14C118.74,55.14 118.79,55.01 118.9,54.4L119.19,54.4L119.19,56.24L118.9,56.24C118.78,55.6 118.71,55.51 118.1,55.51L117.15,55.51L117.15,57.22C117.15,57.83 117.31,57.91 117.77,57.92L118.55,57.92C119.08,57.92 119.17,57.84 119.37,57.61C119.55,57.41 119.73,57.06 119.86,56.79L120.14,56.86L120.13,56.87Z"
            style="fill:currentColor;fill-rule:nonzero;" />
          <path
            d="M129.21,58.29L129.21,58.03C129.78,57.96 129.84,57.87 129.71,57.53C129.6,57.2 129.43,56.77 129.26,56.25L127.39,56.25C127.26,56.62 127.13,56.97 127.01,57.31C126.82,57.88 126.96,57.95 127.67,58.03L127.67,58.29L125.61,58.29L125.61,58.03C126.16,57.96 126.31,57.89 126.61,57.11L128.43,52.5L128.74,52.44C129.3,53.95 129.9,55.6 130.46,57.11C130.75,57.89 130.83,57.95 131.44,58.02L131.44,58.28L129.2,58.28L129.21,58.29ZM128.35,53.69C128.07,54.42 127.78,55.19 127.53,55.87L129.13,55.87L128.35,53.69Z"
            style="fill:currentColor;fill-rule:nonzero;" />
          <path
            d="M138.72,56.76C138.66,57.07 138.44,57.92 138.35,58.29L133.75,58.29L133.67,58.14C134.87,56.46 136.08,54.7 137.3,52.93L135.63,52.93C134.87,52.93 134.74,52.99 134.55,53.27C134.46,53.39 134.33,53.68 134.21,54.01L133.93,54.01C133.98,53.53 134.08,52.75 134.1,52.36L134.34,52.36C134.44,52.57 134.55,52.57 134.81,52.57L138.37,52.57L138.44,52.71C137.24,54.42 136.06,56.13 134.87,57.9C135.15,57.92 135.66,57.93 136.25,57.93C137.38,57.93 137.63,57.89 137.88,57.62C138.07,57.43 138.27,57.08 138.44,56.7L138.71,56.76L138.72,56.76Z"
            style="fill:currentColor;fill-rule:nonzero;" />
          <path
            d="M146.96,52.83C146.4,52.87 146.21,53.01 146.19,53.4C146.18,53.61 146.16,53.97 146.16,54.75L146.16,55.74C146.16,56.61 146.05,57.31 145.54,57.85C145.13,58.28 144.52,58.42 143.91,58.42C143.39,58.42 142.83,58.31 142.44,58.01C141.91,57.61 141.66,57.01 141.66,55.99L141.66,53.75C141.66,52.95 141.59,52.9 140.89,52.84L140.89,52.58L143.28,52.58L143.28,52.84C142.58,52.89 142.51,52.96 142.51,53.75L142.51,55.98C142.51,57.21 143.1,57.91 144.13,57.91C145.34,57.91 145.75,57.14 145.75,55.7L145.75,54.77C145.75,54 145.72,53.67 145.71,53.42C145.68,53.02 145.47,52.88 144.83,52.85L144.83,52.59L146.96,52.59L146.96,52.85L146.96,52.83Z"
            style="fill:currentColor;fill-rule:nonzero;" />
          <path
            d="M153.67,56.81C153.61,57.1 153.35,58.02 153.27,58.29L149.13,58.29L149.13,58.03C149.93,57.96 150,57.91 150,57.16L150,53.69C150,52.94 149.91,52.89 149.22,52.83L149.22,52.57L151.65,52.57L151.65,52.83C150.95,52.9 150.85,52.94 150.85,53.69L150.85,57.24C150.85,57.77 150.91,57.91 151.41,57.92L152.06,57.92C152.52,57.92 152.65,57.86 152.85,57.63C153.06,57.41 153.25,57.05 153.39,56.72L153.67,56.8L153.67,56.81Z"
            style="fill:currentColor;fill-rule:nonzero;" />
        </g>
      </g>
    </g>
  </g>
</svg>
